<?xml version="1.0" encoding="utf-8" standalone="no"?>
<!DOCTYPE svg PUBLIC "-//W3C//DTD SVG 1.1//EN"
  "http://www.w3.org/Graphics/SVG/1.1/DTD/svg11.dtd">
<svg xmlns:xlink="http://www.w3.org/1999/xlink" width="1032.226055pt" height="448.238pt" viewBox="0 0 1032.226055 448.238" xmlns="http://www.w3.org/2000/svg" version="1.1">
 <metadata>
  <rdf:RDF xmlns:dc="http://purl.org/dc/elements/1.1/" xmlns:cc="http://creativecommons.org/ns#" xmlns:rdf="http://www.w3.org/1999/02/22-rdf-syntax-ns#">
   <cc:Work>
    <dc:type rdf:resource="http://purl.org/dc/dcmitype/StillImage"/>
    <dc:date>2026-04-12T22:06:59.369210</dc:date>
    <dc:format>image/svg+xml</dc:format>
    <dc:creator>
     <cc:Agent>
      <dc:title>Matplotlib v3.10.1, https://matplotlib.org/</dc:title>
     </cc:Agent>
    </dc:creator>
   </cc:Work>
  </rdf:RDF>
 </metadata>
 <defs>
  <style type="text/css">*{stroke-linejoin: round; stroke-linecap: butt}</style>
 </defs>
 <g id="figure_1">
  <g id="patch_1">
   <path d="M 0 448.238 
L 1032.226055 448.238 
L 1032.226055 0 
L 0 0 
z
" style="fill: #ffffff"/>
  </g>
  <g id="axes_1">
   <g id="patch_2">
    <path d="M 54.002 370.1655 
L 748.332 370.1655 
L 748.332 29.2625 
L 54.002 29.2625 
z
" style="fill: #ffffff"/>
   </g>
   <g id="matplotlib.axis_1">
    <g id="xtick_1">
     <g id="line2d_1">
      <defs>
       <path id="m7f1d19dc71" d="M 0 0 
L 0 3.5 
" style="stroke: #000000; stroke-width: 0.8"/>
      </defs>
      <g>
       <use xlink:href="#m7f1d19dc71" x="162.107274" y="370.1655" style="stroke: #000000; stroke-width: 0.8"/>
      </g>
     </g>
     <g id="text_1">
      <!-- −12 -->
      <g transform="translate(152.082547 384.384016) scale(0.095 -0.095)">
       <defs>
        <path id="DejaVuSans-2212" d="M 678 2272 
L 4684 2272 
L 4684 1741 
L 678 1741 
L 678 2272 
z
" transform="scale(0.015625)"/>
        <path id="DejaVuSans-31" d="M 794 531 
L 1825 531 
L 1825 4091 
L 703 3866 
L 703 4441 
L 1819 4666 
L 2450 4666 
L 2450 531 
L 3481 531 
L 3481 0 
L 794 0 
L 794 531 
z
" transform="scale(0.015625)"/>
        <path id="DejaVuSans-32" d="M 1228 531 
L 3431 531 
L 3431 0 
L 469 0 
L 469 531 
Q 828 903 1448 1529 
Q 2069 2156 2228 2338 
Q 2531 2678 2651 2914 
Q 2772 3150 2772 3378 
Q 2772 3750 2511 3984 
Q 2250 4219 1831 4219 
Q 1534 4219 1204 4116 
Q 875 4013 500 3803 
L 500 4441 
Q 881 4594 1212 4672 
Q 1544 4750 1819 4750 
Q 2544 4750 2975 4387 
Q 3406 4025 3406 3419 
Q 3406 3131 3298 2873 
Q 3191 2616 2906 2266 
Q 2828 2175 2409 1742 
Q 1991 1309 1228 531 
z
" transform="scale(0.015625)"/>
       </defs>
       <use xlink:href="#DejaVuSans-2212"/>
       <use xlink:href="#DejaVuSans-31" transform="translate(83.789062 0)"/>
       <use xlink:href="#DejaVuSans-32" transform="translate(147.412109 0)"/>
      </g>
     </g>
    </g>
    <g id="xtick_2">
     <g id="line2d_2">
      <g>
       <use xlink:href="#m7f1d19dc71" x="277.643969" y="370.1655" style="stroke: #000000; stroke-width: 0.8"/>
      </g>
     </g>
     <g id="text_2">
      <!-- −9 -->
      <g transform="translate(270.64143 384.384016) scale(0.095 -0.095)">
       <defs>
        <path id="DejaVuSans-39" d="M 703 97 
L 703 672 
Q 941 559 1184 500 
Q 1428 441 1663 441 
Q 2288 441 2617 861 
Q 2947 1281 2994 2138 
Q 2813 1869 2534 1725 
Q 2256 1581 1919 1581 
Q 1219 1581 811 2004 
Q 403 2428 403 3163 
Q 403 3881 828 4315 
Q 1253 4750 1959 4750 
Q 2769 4750 3195 4129 
Q 3622 3509 3622 2328 
Q 3622 1225 3098 567 
Q 2575 -91 1691 -91 
Q 1453 -91 1209 -44 
Q 966 3 703 97 
z
M 1959 2075 
Q 2384 2075 2632 2365 
Q 2881 2656 2881 3163 
Q 2881 3666 2632 3958 
Q 2384 4250 1959 4250 
Q 1534 4250 1286 3958 
Q 1038 3666 1038 3163 
Q 1038 2656 1286 2365 
Q 1534 2075 1959 2075 
z
" transform="scale(0.015625)"/>
       </defs>
       <use xlink:href="#DejaVuSans-2212"/>
       <use xlink:href="#DejaVuSans-39" transform="translate(83.789062 0)"/>
      </g>
     </g>
    </g>
    <g id="xtick_3">
     <g id="line2d_3">
      <g>
       <use xlink:href="#m7f1d19dc71" x="393.180665" y="370.1655" style="stroke: #000000; stroke-width: 0.8"/>
      </g>
     </g>
     <g id="text_3">
      <!-- −6 -->
      <g transform="translate(386.178125 384.384016) scale(0.095 -0.095)">
       <defs>
        <path id="DejaVuSans-36" d="M 2113 2584 
Q 1688 2584 1439 2293 
Q 1191 2003 1191 1497 
Q 1191 994 1439 701 
Q 1688 409 2113 409 
Q 2538 409 2786 701 
Q 3034 994 3034 1497 
Q 3034 2003 2786 2293 
Q 2538 2584 2113 2584 
z
M 3366 4563 
L 3366 3988 
Q 3128 4100 2886 4159 
Q 2644 4219 2406 4219 
Q 1781 4219 1451 3797 
Q 1122 3375 1075 2522 
Q 1259 2794 1537 2939 
Q 1816 3084 2150 3084 
Q 2853 3084 3261 2657 
Q 3669 2231 3669 1497 
Q 3669 778 3244 343 
Q 2819 -91 2113 -91 
Q 1303 -91 875 529 
Q 447 1150 447 2328 
Q 447 3434 972 4092 
Q 1497 4750 2381 4750 
Q 2619 4750 2861 4703 
Q 3103 4656 3366 4563 
z
" transform="scale(0.015625)"/>
       </defs>
       <use xlink:href="#DejaVuSans-2212"/>
       <use xlink:href="#DejaVuSans-36" transform="translate(83.789062 0)"/>
      </g>
     </g>
    </g>
    <g id="xtick_4">
     <g id="line2d_4">
      <g>
       <use xlink:href="#m7f1d19dc71" x="508.71736" y="370.1655" style="stroke: #000000; stroke-width: 0.8"/>
      </g>
     </g>
     <g id="text_4">
      <!-- −3 -->
      <g transform="translate(501.714821 384.384016) scale(0.095 -0.095)">
       <defs>
        <path id="DejaVuSans-33" d="M 2597 2516 
Q 3050 2419 3304 2112 
Q 3559 1806 3559 1356 
Q 3559 666 3084 287 
Q 2609 -91 1734 -91 
Q 1441 -91 1130 -33 
Q 819 25 488 141 
L 488 750 
Q 750 597 1062 519 
Q 1375 441 1716 441 
Q 2309 441 2620 675 
Q 2931 909 2931 1356 
Q 2931 1769 2642 2001 
Q 2353 2234 1838 2234 
L 1294 2234 
L 1294 2753 
L 1863 2753 
Q 2328 2753 2575 2939 
Q 2822 3125 2822 3475 
Q 2822 3834 2567 4026 
Q 2313 4219 1838 4219 
Q 1578 4219 1281 4162 
Q 984 4106 628 3988 
L 628 4550 
Q 988 4650 1302 4700 
Q 1616 4750 1894 4750 
Q 2613 4750 3031 4423 
Q 3450 4097 3450 3541 
Q 3450 3153 3228 2886 
Q 3006 2619 2597 2516 
z
" transform="scale(0.015625)"/>
       </defs>
       <use xlink:href="#DejaVuSans-2212"/>
       <use xlink:href="#DejaVuSans-33" transform="translate(83.789062 0)"/>
      </g>
     </g>
    </g>
    <g id="xtick_5">
     <g id="line2d_5">
      <g>
       <use xlink:href="#m7f1d19dc71" x="624.254055" y="370.1655" style="stroke: #000000; stroke-width: 0.8"/>
      </g>
     </g>
     <g id="text_5">
      <!-- 0 -->
      <g transform="translate(621.231868 384.384016) scale(0.095 -0.095)">
       <defs>
        <path id="DejaVuSans-30" d="M 2034 4250 
Q 1547 4250 1301 3770 
Q 1056 3291 1056 2328 
Q 1056 1369 1301 889 
Q 1547 409 2034 409 
Q 2525 409 2770 889 
Q 3016 1369 3016 2328 
Q 3016 3291 2770 3770 
Q 2525 4250 2034 4250 
z
M 2034 4750 
Q 2819 4750 3233 4129 
Q 3647 3509 3647 2328 
Q 3647 1150 3233 529 
Q 2819 -91 2034 -91 
Q 1250 -91 836 529 
Q 422 1150 422 2328 
Q 422 3509 836 4129 
Q 1250 4750 2034 4750 
z
" transform="scale(0.015625)"/>
       </defs>
       <use xlink:href="#DejaVuSans-30"/>
      </g>
     </g>
    </g>
    <g id="xtick_6">
     <g id="line2d_6">
      <g>
       <use xlink:href="#m7f1d19dc71" x="739.790751" y="370.1655" style="stroke: #000000; stroke-width: 0.8"/>
      </g>
     </g>
     <g id="text_6">
      <!-- 3 -->
      <g transform="translate(736.768563 384.384016) scale(0.095 -0.095)">
       <use xlink:href="#DejaVuSans-33"/>
      </g>
     </g>
    </g>
    <g id="text_7">
     <!-- Скорость смещения бровки, м/год -->
     <g transform="translate(301.27325 398.905344) scale(0.11 -0.11)">
      <defs>
       <path id="DejaVuSans-421" d="M 4122 4306 
L 4122 3641 
Q 3803 3938 3442 4084 
Q 3081 4231 2675 4231 
Q 1875 4231 1450 3742 
Q 1025 3253 1025 2328 
Q 1025 1406 1450 917 
Q 1875 428 2675 428 
Q 3081 428 3442 575 
Q 3803 722 4122 1019 
L 4122 359 
Q 3791 134 3420 21 
Q 3050 -91 2638 -91 
Q 1578 -91 968 557 
Q 359 1206 359 2328 
Q 359 3453 968 4101 
Q 1578 4750 2638 4750 
Q 3056 4750 3426 4639 
Q 3797 4528 4122 4306 
z
" transform="scale(0.015625)"/>
       <path id="DejaVuSans-43a" d="M 581 3500 
L 1153 3500 
L 1153 1856 
L 2775 3500 
L 3481 3500 
L 2144 2147 
L 3653 0 
L 3009 0 
L 1769 1766 
L 1153 1141 
L 1153 0 
L 581 0 
L 581 3500 
z
" transform="scale(0.015625)"/>
       <path id="DejaVuSans-43e" d="M 1959 3097 
Q 1497 3097 1228 2736 
Q 959 2375 959 1747 
Q 959 1119 1226 758 
Q 1494 397 1959 397 
Q 2419 397 2687 759 
Q 2956 1122 2956 1747 
Q 2956 2369 2687 2733 
Q 2419 3097 1959 3097 
z
M 1959 3584 
Q 2709 3584 3137 3096 
Q 3566 2609 3566 1747 
Q 3566 888 3137 398 
Q 2709 -91 1959 -91 
Q 1206 -91 779 398 
Q 353 888 353 1747 
Q 353 2609 779 3096 
Q 1206 3584 1959 3584 
z
" transform="scale(0.015625)"/>
       <path id="DejaVuSans-440" d="M 1159 525 
L 1159 -1331 
L 581 -1331 
L 581 3500 
L 1159 3500 
L 1159 2969 
Q 1341 3281 1617 3432 
Q 1894 3584 2278 3584 
Q 2916 3584 3314 3078 
Q 3713 2572 3713 1747 
Q 3713 922 3314 415 
Q 2916 -91 2278 -91 
Q 1894 -91 1617 61 
Q 1341 213 1159 525 
z
M 3116 1747 
Q 3116 2381 2855 2742 
Q 2594 3103 2138 3103 
Q 1681 3103 1420 2742 
Q 1159 2381 1159 1747 
Q 1159 1113 1420 752 
Q 1681 391 2138 391 
Q 2594 391 2855 752 
Q 3116 1113 3116 1747 
z
" transform="scale(0.015625)"/>
       <path id="DejaVuSans-441" d="M 3122 3366 
L 3122 2828 
Q 2878 2963 2633 3030 
Q 2388 3097 2138 3097 
Q 1578 3097 1268 2742 
Q 959 2388 959 1747 
Q 959 1106 1268 751 
Q 1578 397 2138 397 
Q 2388 397 2633 464 
Q 2878 531 3122 666 
L 3122 134 
Q 2881 22 2623 -34 
Q 2366 -91 2075 -91 
Q 1284 -91 818 406 
Q 353 903 353 1747 
Q 353 2603 823 3093 
Q 1294 3584 2113 3584 
Q 2378 3584 2631 3529 
Q 2884 3475 3122 3366 
z
" transform="scale(0.015625)"/>
       <path id="DejaVuSans-442" d="M 188 3500 
L 3541 3500 
L 3541 3041 
L 2147 3041 
L 2147 0 
L 1581 0 
L 1581 3041 
L 188 3041 
L 188 3500 
z
" transform="scale(0.015625)"/>
       <path id="DejaVuSans-44c" d="M 2781 1038 
Q 2781 1319 2576 1466 
Q 2372 1613 1978 1613 
L 1159 1613 
L 1159 459 
L 1978 459 
Q 2372 459 2576 607 
Q 2781 756 2781 1038 
z
M 581 3500 
L 1159 3500 
L 1159 2072 
L 2003 2072 
Q 2672 2072 3033 1817 
Q 3394 1563 3394 1038 
Q 3394 513 3033 256 
Q 2672 0 2003 0 
L 581 0 
L 581 3500 
z
" transform="scale(0.015625)"/>
       <path id="DejaVuSans-20" transform="scale(0.015625)"/>
       <path id="DejaVuSans-43c" d="M 581 3500 
L 1422 3500 
L 2416 1156 
L 3413 3500 
L 4247 3500 
L 4247 0 
L 3669 0 
L 3669 2950 
L 2703 672 
L 2128 672 
L 1159 2950 
L 1159 0 
L 581 0 
L 581 3500 
z
" transform="scale(0.015625)"/>
       <path id="DejaVuSans-435" d="M 3597 1894 
L 3597 1613 
L 953 1613 
Q 991 1019 1311 708 
Q 1631 397 2203 397 
Q 2534 397 2845 478 
Q 3156 559 3463 722 
L 3463 178 
Q 3153 47 2828 -22 
Q 2503 -91 2169 -91 
Q 1331 -91 842 396 
Q 353 884 353 1716 
Q 353 2575 817 3079 
Q 1281 3584 2069 3584 
Q 2775 3584 3186 3129 
Q 3597 2675 3597 1894 
z
M 3022 2063 
Q 3016 2534 2758 2815 
Q 2500 3097 2075 3097 
Q 1594 3097 1305 2825 
Q 1016 2553 972 2059 
L 3022 2063 
z
" transform="scale(0.015625)"/>
       <path id="DejaVuSans-449" d="M 5275 0 
L 581 0 
L 581 3500 
L 1159 3500 
L 1159 459 
L 2638 459 
L 2638 3500 
L 3216 3500 
L 3216 459 
L 4697 459 
L 4697 3500 
L 5275 3500 
L 5275 459 
L 5734 459 
L 5734 -884 
L 5275 -884 
L 5275 0 
z
" transform="scale(0.015625)"/>
       <path id="DejaVuSans-43d" d="M 581 3500 
L 1159 3500 
L 1159 2072 
L 3025 2072 
L 3025 3500 
L 3603 3500 
L 3603 0 
L 3025 0 
L 3025 1613 
L 1159 1613 
L 1159 0 
L 581 0 
L 581 3500 
z
" transform="scale(0.015625)"/>
       <path id="DejaVuSans-438" d="M 3578 3500 
L 3578 0 
L 3006 0 
L 3006 2809 
L 1319 0 
L 581 0 
L 581 3500 
L 1153 3500 
L 1153 697 
L 2838 3500 
L 3578 3500 
z
" transform="scale(0.015625)"/>
       <path id="DejaVuSans-44f" d="M 1181 2491 
Q 1181 2231 1381 2084 
Q 1581 1938 1953 1938 
L 2728 1938 
L 2728 3041 
L 1953 3041 
Q 1581 3041 1381 2897 
Q 1181 2753 1181 2491 
z
M 363 0 
L 1431 1534 
Q 1069 1616 828 1830 
Q 588 2044 588 2491 
Q 588 2997 923 3248 
Q 1259 3500 1938 3500 
L 3306 3500 
L 3306 0 
L 2728 0 
L 2728 1478 
L 2013 1478 
L 981 0 
L 363 0 
z
" transform="scale(0.015625)"/>
       <path id="DejaVuSans-431" d="M 1991 3584 
Q 2741 3584 3169 3096 
Q 3597 2609 3597 1747 
Q 3597 888 3169 398 
Q 2741 -91 1991 -91 
Q 1238 -91 822 384 
Q 406 859 384 1747 
L 366 2463 
Q 350 2834 350 2963 
Q 350 3463 531 3831 
Q 816 4409 1308 4659 
Q 1800 4909 2625 4916 
Q 3006 4919 3175 4972 
L 3334 4516 
Q 3181 4453 3041 4450 
L 2259 4397 
Q 1866 4369 1628 4231 
Q 1006 3866 947 3388 
L 925 3213 
Q 1331 3584 1991 3584 
z
M 1991 3097 
Q 1528 3097 1259 2736 
Q 991 2375 991 1747 
Q 991 1119 1258 758 
Q 1525 397 1991 397 
Q 2450 397 2719 759 
Q 2988 1122 2988 1747 
Q 2988 2369 2719 2733 
Q 2450 3097 1991 3097 
z
" transform="scale(0.015625)"/>
       <path id="DejaVuSans-432" d="M 1156 1613 
L 1156 459 
L 1975 459 
Q 2369 459 2575 607 
Q 2781 756 2781 1038 
Q 2781 1319 2575 1466 
Q 2369 1613 1975 1613 
L 1156 1613 
z
M 1156 3041 
L 1156 2072 
L 1913 2072 
Q 2238 2072 2444 2201 
Q 2650 2331 2650 2563 
Q 2650 2794 2444 2917 
Q 2238 3041 1913 3041 
L 1156 3041 
z
M 581 3500 
L 1950 3500 
Q 2566 3500 2897 3275 
Q 3228 3050 3228 2634 
Q 3228 2313 3059 2123 
Q 2891 1934 2559 1888 
Q 2956 1813 3175 1575 
Q 3394 1338 3394 981 
Q 3394 513 3033 256 
Q 2672 0 2003 0 
L 581 0 
L 581 3500 
z
" transform="scale(0.015625)"/>
       <path id="DejaVuSans-2c" d="M 750 794 
L 1409 794 
L 1409 256 
L 897 -744 
L 494 -744 
L 750 256 
L 750 794 
z
" transform="scale(0.015625)"/>
       <path id="DejaVuSans-2f" d="M 1625 4666 
L 2156 4666 
L 531 -594 
L 0 -594 
L 1625 4666 
z
" transform="scale(0.015625)"/>
       <path id="DejaVuSans-433" d="M 581 0 
L 581 3500 
L 3050 3500 
L 3050 3041 
L 1159 3041 
L 1159 0 
L 581 0 
z
" transform="scale(0.015625)"/>
       <path id="DejaVuSans-434" d="M 1384 459 
L 3053 459 
L 3053 3041 
L 1844 3041 
L 1844 2603 
Q 1844 1316 1475 628 
L 1384 459 
z
M 550 459 
Q 834 584 959 850 
Q 1266 1509 1266 2838 
L 1266 3500 
L 3631 3500 
L 3631 459 
L 4091 459 
L 4091 -884 
L 3631 -884 
L 3631 0 
L 794 0 
L 794 -884 
L 334 -884 
L 334 459 
L 550 459 
z
" transform="scale(0.015625)"/>
      </defs>
      <use xlink:href="#DejaVuSans-421"/>
      <use xlink:href="#DejaVuSans-43a" transform="translate(69.824219 0)"/>
      <use xlink:href="#DejaVuSans-43e" transform="translate(130.224609 0)"/>
      <use xlink:href="#DejaVuSans-440" transform="translate(191.40625 0)"/>
      <use xlink:href="#DejaVuSans-43e" transform="translate(254.882812 0)"/>
      <use xlink:href="#DejaVuSans-441" transform="translate(316.064453 0)"/>
      <use xlink:href="#DejaVuSans-442" transform="translate(371.044922 0)"/>
      <use xlink:href="#DejaVuSans-44c" transform="translate(429.296875 0)"/>
      <use xlink:href="#DejaVuSans-20" transform="translate(488.232422 0)"/>
      <use xlink:href="#DejaVuSans-441" transform="translate(520.019531 0)"/>
      <use xlink:href="#DejaVuSans-43c" transform="translate(575 0)"/>
      <use xlink:href="#DejaVuSans-435" transform="translate(650.439453 0)"/>
      <use xlink:href="#DejaVuSans-449" transform="translate(711.962891 0)"/>
      <use xlink:href="#DejaVuSans-435" transform="translate(806.152344 0)"/>
      <use xlink:href="#DejaVuSans-43d" transform="translate(867.675781 0)"/>
      <use xlink:href="#DejaVuSans-438" transform="translate(933.056641 0)"/>
      <use xlink:href="#DejaVuSans-44f" transform="translate(998.046875 0)"/>
      <use xlink:href="#DejaVuSans-20" transform="translate(1058.203125 0)"/>
      <use xlink:href="#DejaVuSans-431" transform="translate(1089.990234 0)"/>
      <use xlink:href="#DejaVuSans-440" transform="translate(1151.660156 0)"/>
      <use xlink:href="#DejaVuSans-43e" transform="translate(1215.136719 0)"/>
      <use xlink:href="#DejaVuSans-432" transform="translate(1276.318359 0)"/>
      <use xlink:href="#DejaVuSans-43a" transform="translate(1335.253906 0)"/>
      <use xlink:href="#DejaVuSans-438" transform="translate(1395.654297 0)"/>
      <use xlink:href="#DejaVuSans-2c" transform="translate(1460.644531 0)"/>
      <use xlink:href="#DejaVuSans-20" transform="translate(1492.431641 0)"/>
      <use xlink:href="#DejaVuSans-43c" transform="translate(1524.21875 0)"/>
      <use xlink:href="#DejaVuSans-2f" transform="translate(1599.658203 0)"/>
      <use xlink:href="#DejaVuSans-433" transform="translate(1633.349609 0)"/>
      <use xlink:href="#DejaVuSans-43e" transform="translate(1685.888672 0)"/>
      <use xlink:href="#DejaVuSans-434" transform="translate(1747.070312 0)"/>
     </g>
    </g>
   </g>
   <g id="matplotlib.axis_2">
    <g id="ytick_1">
     <g id="line2d_7">
      <path d="M 54.002 370.1655 
L 748.332 370.1655 
" clip-path="url(#p7b60e19759)" style="fill: none; stroke: #d7dde5; stroke-opacity: 0.7; stroke-width: 0.8; stroke-linecap: square"/>
     </g>
     <g id="line2d_8">
      <defs>
       <path id="m224309a505" d="M 0 0 
L -3.5 0 
" style="stroke: #000000; stroke-width: 0.8"/>
      </defs>
      <g>
       <use xlink:href="#m224309a505" x="54.002" y="370.1655" style="stroke: #000000; stroke-width: 0.8"/>
      </g>
     </g>
     <g id="text_8">
      <!-- 0 -->
      <g transform="translate(40.957625 373.774758) scale(0.095 -0.095)">
       <use xlink:href="#DejaVuSans-30"/>
      </g>
     </g>
    </g>
    <g id="ytick_2">
     <g id="line2d_9">
      <path d="M 54.002 323.383148 
L 748.332 323.383148 
" clip-path="url(#p7b60e19759)" style="fill: none; stroke: #d7dde5; stroke-opacity: 0.7; stroke-width: 0.8; stroke-linecap: square"/>
     </g>
     <g id="line2d_10">
      <g>
       <use xlink:href="#m224309a505" x="54.002" y="323.383148" style="stroke: #000000; stroke-width: 0.8"/>
      </g>
     </g>
     <g id="text_9">
      <!-- 50 -->
      <g transform="translate(34.91325 326.992406) scale(0.095 -0.095)">
       <defs>
        <path id="DejaVuSans-35" d="M 691 4666 
L 3169 4666 
L 3169 4134 
L 1269 4134 
L 1269 2991 
Q 1406 3038 1543 3061 
Q 1681 3084 1819 3084 
Q 2600 3084 3056 2656 
Q 3513 2228 3513 1497 
Q 3513 744 3044 326 
Q 2575 -91 1722 -91 
Q 1428 -91 1123 -41 
Q 819 9 494 109 
L 494 744 
Q 775 591 1075 516 
Q 1375 441 1709 441 
Q 2250 441 2565 725 
Q 2881 1009 2881 1497 
Q 2881 1984 2565 2268 
Q 2250 2553 1709 2553 
Q 1456 2553 1204 2497 
Q 953 2441 691 2322 
L 691 4666 
z
" transform="scale(0.015625)"/>
       </defs>
       <use xlink:href="#DejaVuSans-35"/>
       <use xlink:href="#DejaVuSans-30" transform="translate(63.623047 0)"/>
      </g>
     </g>
    </g>
    <g id="ytick_3">
     <g id="line2d_11">
      <path d="M 54.002 276.600796 
L 748.332 276.600796 
" clip-path="url(#p7b60e19759)" style="fill: none; stroke: #d7dde5; stroke-opacity: 0.7; stroke-width: 0.8; stroke-linecap: square"/>
     </g>
     <g id="line2d_12">
      <g>
       <use xlink:href="#m224309a505" x="54.002" y="276.600796" style="stroke: #000000; stroke-width: 0.8"/>
      </g>
     </g>
     <g id="text_10">
      <!-- 100 -->
      <g transform="translate(28.868875 280.210054) scale(0.095 -0.095)">
       <use xlink:href="#DejaVuSans-31"/>
       <use xlink:href="#DejaVuSans-30" transform="translate(63.623047 0)"/>
       <use xlink:href="#DejaVuSans-30" transform="translate(127.246094 0)"/>
      </g>
     </g>
    </g>
    <g id="ytick_4">
     <g id="line2d_13">
      <path d="M 54.002 229.818444 
L 748.332 229.818444 
" clip-path="url(#p7b60e19759)" style="fill: none; stroke: #d7dde5; stroke-opacity: 0.7; stroke-width: 0.8; stroke-linecap: square"/>
     </g>
     <g id="line2d_14">
      <g>
       <use xlink:href="#m224309a505" x="54.002" y="229.818444" style="stroke: #000000; stroke-width: 0.8"/>
      </g>
     </g>
     <g id="text_11">
      <!-- 150 -->
      <g transform="translate(28.868875 233.427701) scale(0.095 -0.095)">
       <use xlink:href="#DejaVuSans-31"/>
       <use xlink:href="#DejaVuSans-35" transform="translate(63.623047 0)"/>
       <use xlink:href="#DejaVuSans-30" transform="translate(127.246094 0)"/>
      </g>
     </g>
    </g>
    <g id="ytick_5">
     <g id="line2d_15">
      <path d="M 54.002 183.036091 
L 748.332 183.036091 
" clip-path="url(#p7b60e19759)" style="fill: none; stroke: #d7dde5; stroke-opacity: 0.7; stroke-width: 0.8; stroke-linecap: square"/>
     </g>
     <g id="line2d_16">
      <g>
       <use xlink:href="#m224309a505" x="54.002" y="183.036091" style="stroke: #000000; stroke-width: 0.8"/>
      </g>
     </g>
     <g id="text_12">
      <!-- 200 -->
      <g transform="translate(28.868875 186.645349) scale(0.095 -0.095)">
       <use xlink:href="#DejaVuSans-32"/>
       <use xlink:href="#DejaVuSans-30" transform="translate(63.623047 0)"/>
       <use xlink:href="#DejaVuSans-30" transform="translate(127.246094 0)"/>
      </g>
     </g>
    </g>
    <g id="ytick_6">
     <g id="line2d_17">
      <path d="M 54.002 136.253739 
L 748.332 136.253739 
" clip-path="url(#p7b60e19759)" style="fill: none; stroke: #d7dde5; stroke-opacity: 0.7; stroke-width: 0.8; stroke-linecap: square"/>
     </g>
     <g id="line2d_18">
      <g>
       <use xlink:href="#m224309a505" x="54.002" y="136.253739" style="stroke: #000000; stroke-width: 0.8"/>
      </g>
     </g>
     <g id="text_13">
      <!-- 250 -->
      <g transform="translate(28.868875 139.862997) scale(0.095 -0.095)">
       <use xlink:href="#DejaVuSans-32"/>
       <use xlink:href="#DejaVuSans-35" transform="translate(63.623047 0)"/>
       <use xlink:href="#DejaVuSans-30" transform="translate(127.246094 0)"/>
      </g>
     </g>
    </g>
    <g id="ytick_7">
     <g id="line2d_19">
      <path d="M 54.002 89.471387 
L 748.332 89.471387 
" clip-path="url(#p7b60e19759)" style="fill: none; stroke: #d7dde5; stroke-opacity: 0.7; stroke-width: 0.8; stroke-linecap: square"/>
     </g>
     <g id="line2d_20">
      <g>
       <use xlink:href="#m224309a505" x="54.002" y="89.471387" style="stroke: #000000; stroke-width: 0.8"/>
      </g>
     </g>
     <g id="text_14">
      <!-- 300 -->
      <g transform="translate(28.868875 93.080645) scale(0.095 -0.095)">
       <use xlink:href="#DejaVuSans-33"/>
       <use xlink:href="#DejaVuSans-30" transform="translate(63.623047 0)"/>
       <use xlink:href="#DejaVuSans-30" transform="translate(127.246094 0)"/>
      </g>
     </g>
    </g>
    <g id="ytick_8">
     <g id="line2d_21">
      <path d="M 54.002 42.689035 
L 748.332 42.689035 
" clip-path="url(#p7b60e19759)" style="fill: none; stroke: #d7dde5; stroke-opacity: 0.7; stroke-width: 0.8; stroke-linecap: square"/>
     </g>
     <g id="line2d_22">
      <g>
       <use xlink:href="#m224309a505" x="54.002" y="42.689035" style="stroke: #000000; stroke-width: 0.8"/>
      </g>
     </g>
     <g id="text_15">
      <!-- 350 -->
      <g transform="translate(28.868875 46.298293) scale(0.095 -0.095)">
       <use xlink:href="#DejaVuSans-33"/>
       <use xlink:href="#DejaVuSans-35" transform="translate(63.623047 0)"/>
       <use xlink:href="#DejaVuSans-30" transform="translate(127.246094 0)"/>
      </g>
     </g>
    </g>
    <g id="text_16">
     <!-- Частота интервалов -->
     <g transform="translate(22.581219 258.754781) rotate(-90) scale(0.11 -0.11)">
      <defs>
       <path id="DejaVuSans-427" d="M 3125 0 
L 3125 1913 
L 1822 1913 
Q 1241 1913 894 2277 
Q 547 2641 547 3384 
L 547 4666 
L 1175 4666 
L 1175 3434 
Q 1175 2938 1369 2691 
Q 1563 2444 1950 2444 
L 3125 2444 
L 3125 4666 
L 3759 4666 
L 3759 0 
L 3125 0 
z
" transform="scale(0.015625)"/>
       <path id="DejaVuSans-430" d="M 2194 1759 
Q 1497 1759 1228 1600 
Q 959 1441 959 1056 
Q 959 750 1161 570 
Q 1363 391 1709 391 
Q 2188 391 2477 730 
Q 2766 1069 2766 1631 
L 2766 1759 
L 2194 1759 
z
M 3341 1997 
L 3341 0 
L 2766 0 
L 2766 531 
Q 2569 213 2275 61 
Q 1981 -91 1556 -91 
Q 1019 -91 701 211 
Q 384 513 384 1019 
Q 384 1609 779 1909 
Q 1175 2209 1959 2209 
L 2766 2209 
L 2766 2266 
Q 2766 2663 2505 2880 
Q 2244 3097 1772 3097 
Q 1472 3097 1187 3025 
Q 903 2953 641 2809 
L 641 3341 
Q 956 3463 1253 3523 
Q 1550 3584 1831 3584 
Q 2591 3584 2966 3190 
Q 3341 2797 3341 1997 
z
" transform="scale(0.015625)"/>
       <path id="DejaVuSans-43b" d="M 238 0 
L 238 478 
Q 806 566 981 959 
Q 1194 1513 1194 2928 
L 1194 3500 
L 3559 3500 
L 3559 0 
L 2984 0 
L 2984 3041 
L 1769 3041 
L 1769 2694 
Q 1769 1344 1494 738 
Q 1200 91 238 0 
z
" transform="scale(0.015625)"/>
      </defs>
      <use xlink:href="#DejaVuSans-427"/>
      <use xlink:href="#DejaVuSans-430" transform="translate(68.554688 0)"/>
      <use xlink:href="#DejaVuSans-441" transform="translate(129.833984 0)"/>
      <use xlink:href="#DejaVuSans-442" transform="translate(184.814453 0)"/>
      <use xlink:href="#DejaVuSans-43e" transform="translate(243.066406 0)"/>
      <use xlink:href="#DejaVuSans-442" transform="translate(304.248047 0)"/>
      <use xlink:href="#DejaVuSans-430" transform="translate(362.5 0)"/>
      <use xlink:href="#DejaVuSans-20" transform="translate(423.779297 0)"/>
      <use xlink:href="#DejaVuSans-438" transform="translate(455.566406 0)"/>
      <use xlink:href="#DejaVuSans-43d" transform="translate(520.556641 0)"/>
      <use xlink:href="#DejaVuSans-442" transform="translate(585.9375 0)"/>
      <use xlink:href="#DejaVuSans-435" transform="translate(644.189453 0)"/>
      <use xlink:href="#DejaVuSans-440" transform="translate(705.712891 0)"/>
      <use xlink:href="#DejaVuSans-432" transform="translate(769.189453 0)"/>
      <use xlink:href="#DejaVuSans-430" transform="translate(828.125 0)"/>
      <use xlink:href="#DejaVuSans-43b" transform="translate(889.404297 0)"/>
      <use xlink:href="#DejaVuSans-43e" transform="translate(953.320312 0)"/>
      <use xlink:href="#DejaVuSans-432" transform="translate(1014.501953 0)"/>
     </g>
    </g>
   </g>
   <g id="patch_3">
    <path d="M -2189.064479 370.1655 
L -2013.625991 370.1655 
L -2013.625991 369.229853 
L -2189.064479 369.229853 
z
" clip-path="url(#p7b60e19759)" style="fill: #c46c5e; opacity: 0.95; stroke: #ffffff; stroke-linejoin: miter"/>
   </g>
   <g id="patch_4">
    <path d="M -2013.625991 370.1655 
L -1838.187503 370.1655 
L -1838.187503 370.1655 
L -2013.625991 370.1655 
z
" clip-path="url(#p7b60e19759)" style="fill: #c46c5e; opacity: 0.95; stroke: #ffffff; stroke-linejoin: miter"/>
   </g>
   <g id="patch_5">
    <path d="M -1838.187503 370.1655 
L -1662.749015 370.1655 
L -1662.749015 369.229853 
L -1838.187503 369.229853 
z
" clip-path="url(#p7b60e19759)" style="fill: #c46c5e; opacity: 0.95; stroke: #ffffff; stroke-linejoin: miter"/>
   </g>
   <g id="patch_6">
    <path d="M -1662.749015 370.1655 
L -1487.310527 370.1655 
L -1487.310527 370.1655 
L -1662.749015 370.1655 
z
" clip-path="url(#p7b60e19759)" style="fill: #c46c5e; opacity: 0.95; stroke: #ffffff; stroke-linejoin: miter"/>
   </g>
   <g id="patch_7">
    <path d="M -1487.310527 370.1655 
L -1311.872039 370.1655 
L -1311.872039 370.1655 
L -1487.310527 370.1655 
z
" clip-path="url(#p7b60e19759)" style="fill: #c46c5e; opacity: 0.95; stroke: #ffffff; stroke-linejoin: miter"/>
   </g>
   <g id="patch_8">
    <path d="M -1311.872039 370.1655 
L -1136.433551 370.1655 
L -1136.433551 369.229853 
L -1311.872039 369.229853 
z
" clip-path="url(#p7b60e19759)" style="fill: #c46c5e; opacity: 0.95; stroke: #ffffff; stroke-linejoin: miter"/>
   </g>
   <g id="patch_9">
    <path d="M -1136.433551 370.1655 
L -960.995063 370.1655 
L -960.995063 370.1655 
L -1136.433551 370.1655 
z
" clip-path="url(#p7b60e19759)" style="fill: #c46c5e; opacity: 0.95; stroke: #ffffff; stroke-linejoin: miter"/>
   </g>
   <g id="patch_10">
    <path d="M -960.995063 370.1655 
L -785.556575 370.1655 
L -785.556575 370.1655 
L -960.995063 370.1655 
z
" clip-path="url(#p7b60e19759)" style="fill: #c46c5e; opacity: 0.95; stroke: #ffffff; stroke-linejoin: miter"/>
   </g>
   <g id="patch_11">
    <path d="M -785.556575 370.1655 
L -610.118087 370.1655 
L -610.118087 370.1655 
L -785.556575 370.1655 
z
" clip-path="url(#p7b60e19759)" style="fill: #c46c5e; opacity: 0.95; stroke: #ffffff; stroke-linejoin: miter"/>
   </g>
   <g id="patch_12">
    <path d="M -610.118087 370.1655 
L -434.679599 370.1655 
L -434.679599 370.1655 
L -610.118087 370.1655 
z
" clip-path="url(#p7b60e19759)" style="fill: #c46c5e; opacity: 0.95; stroke: #ffffff; stroke-linejoin: miter"/>
   </g>
   <g id="patch_13">
    <path d="M -434.679599 370.1655 
L -259.241111 370.1655 
L -259.241111 369.229853 
L -434.679599 369.229853 
z
" clip-path="url(#p7b60e19759)" style="fill: #c46c5e; opacity: 0.95; stroke: #ffffff; stroke-linejoin: miter"/>
   </g>
   <g id="patch_14">
    <path d="M -259.241111 370.1655 
L -83.802623 370.1655 
L -83.802623 369.229853 
L -259.241111 369.229853 
z
" clip-path="url(#p7b60e19759)" style="fill: #c46c5e; opacity: 0.95; stroke: #ffffff; stroke-linejoin: miter"/>
   </g>
   <g id="patch_15">
    <path d="M -83.802623 370.1655 
L 91.635865 370.1655 
L 91.635865 369.229853 
L -83.802623 369.229853 
z
" clip-path="url(#p7b60e19759)" style="fill: #c46c5e; opacity: 0.95; stroke: #ffffff; stroke-linejoin: miter"/>
   </g>
   <g id="patch_16">
    <path d="M 91.635865 370.1655 
L 267.074353 370.1655 
L 267.074353 361.744677 
L 91.635865 361.744677 
z
" clip-path="url(#p7b60e19759)" style="fill: #c46c5e; opacity: 0.95; stroke: #ffffff; stroke-linejoin: miter"/>
   </g>
   <g id="patch_17">
    <path d="M 267.074353 370.1655 
L 442.512841 370.1655 
L 442.512841 319.64056 
L 267.074353 319.64056 
z
" clip-path="url(#p7b60e19759)" style="fill: #c46c5e; opacity: 0.95; stroke: #ffffff; stroke-linejoin: miter"/>
   </g>
   <g id="patch_18">
    <path d="M 442.512841 370.1655 
L 617.951329 370.1655 
L 617.951329 45.495976 
L 442.512841 45.495976 
z
" clip-path="url(#p7b60e19759)" style="fill: #c46c5e; opacity: 0.95; stroke: #ffffff; stroke-linejoin: miter"/>
   </g>
   <g id="patch_19">
    <path d="M 617.951329 370.1655 
L 793.389817 370.1655 
L 793.389817 224.204561 
L 617.951329 224.204561 
z
" clip-path="url(#p7b60e19759)" style="fill: #c46c5e; opacity: 0.95; stroke: #ffffff; stroke-linejoin: miter"/>
   </g>
   <g id="patch_20">
    <path d="M 793.389817 370.1655 
L 968.828305 370.1655 
L 968.828305 369.229853 
L 793.389817 369.229853 
z
" clip-path="url(#p7b60e19759)" style="fill: #c46c5e; opacity: 0.95; stroke: #ffffff; stroke-linejoin: miter"/>
   </g>
   <g id="patch_21">
    <path d="M 968.828305 370.1655 
L 1144.266793 370.1655 
L 1144.266793 370.1655 
L 968.828305 370.1655 
z
" clip-path="url(#p7b60e19759)" style="fill: #c46c5e; opacity: 0.95; stroke: #ffffff; stroke-linejoin: miter"/>
   </g>
   <g id="patch_22">
    <path d="M 1144.266793 370.1655 
L 1319.705281 370.1655 
L 1319.705281 370.1655 
L 1144.266793 370.1655 
z
" clip-path="url(#p7b60e19759)" style="fill: #c46c5e; opacity: 0.95; stroke: #ffffff; stroke-linejoin: miter"/>
   </g>
   <g id="patch_23">
    <path d="M 1319.705281 370.1655 
L 1495.143769 370.1655 
L 1495.143769 369.229853 
L 1319.705281 369.229853 
z
" clip-path="url(#p7b60e19759)" style="fill: #c46c5e; opacity: 0.95; stroke: #ffffff; stroke-linejoin: miter"/>
   </g>
   <g id="patch_24">
    <path d="M 1495.143769 370.1655 
L 1670.582257 370.1655 
L 1670.582257 370.1655 
L 1495.143769 370.1655 
z
" clip-path="url(#p7b60e19759)" style="fill: #c46c5e; opacity: 0.95; stroke: #ffffff; stroke-linejoin: miter"/>
   </g>
   <g id="patch_25">
    <path d="M 1670.582257 370.1655 
L 1846.020745 370.1655 
L 1846.020745 370.1655 
L 1670.582257 370.1655 
z
" clip-path="url(#p7b60e19759)" style="fill: #c46c5e; opacity: 0.95; stroke: #ffffff; stroke-linejoin: miter"/>
   </g>
   <g id="patch_26">
    <path d="M 1846.020745 370.1655 
L 2021.459233 370.1655 
L 2021.459233 370.1655 
L 1846.020745 370.1655 
z
" clip-path="url(#p7b60e19759)" style="fill: #c46c5e; opacity: 0.95; stroke: #ffffff; stroke-linejoin: miter"/>
   </g>
   <g id="patch_27">
    <path d="M 2021.459233 370.1655 
L 2196.897721 370.1655 
L 2196.897721 370.1655 
L 2021.459233 370.1655 
z
" clip-path="url(#p7b60e19759)" style="fill: #c46c5e; opacity: 0.95; stroke: #ffffff; stroke-linejoin: miter"/>
   </g>
   <g id="patch_28">
    <path d="M 2196.897721 370.1655 
L 2372.336209 370.1655 
L 2372.336209 370.1655 
L 2196.897721 370.1655 
z
" clip-path="url(#p7b60e19759)" style="fill: #c46c5e; opacity: 0.95; stroke: #ffffff; stroke-linejoin: miter"/>
   </g>
   <g id="patch_29">
    <path d="M 2372.336209 370.1655 
L 2547.774697 370.1655 
L 2547.774697 370.1655 
L 2372.336209 370.1655 
z
" clip-path="url(#p7b60e19759)" style="fill: #c46c5e; opacity: 0.95; stroke: #ffffff; stroke-linejoin: miter"/>
   </g>
   <g id="patch_30">
    <path d="M 2547.774697 370.1655 
L 2723.213185 370.1655 
L 2723.213185 369.229853 
L 2547.774697 369.229853 
z
" clip-path="url(#p7b60e19759)" style="fill: #c46c5e; opacity: 0.95; stroke: #ffffff; stroke-linejoin: miter"/>
   </g>
   <g id="line2d_23">
    <path d="M 624.254055 370.1655 
L 624.254055 29.2625 
" clip-path="url(#p7b60e19759)" style="fill: none; stroke-dasharray: 4.255,1.84; stroke-dashoffset: 0; stroke: #7d8792; stroke-width: 1.15"/>
   </g>
   <g id="patch_31">
    <path d="M 54.002 370.1655 
L 54.002 29.2625 
" style="fill: none; stroke: #6f7680; stroke-width: 0.8; stroke-linejoin: miter; stroke-linecap: square"/>
   </g>
   <g id="patch_32">
    <path d="M 54.002 370.1655 
L 748.332 370.1655 
" style="fill: none; stroke: #6f7680; stroke-width: 0.8; stroke-linejoin: miter; stroke-linecap: square"/>
   </g>
   <g id="text_17">
    <g id="patch_33">
     <path d="M 67.8886 65.885919 
L 267.766162 65.885919 
Q 270.226162 65.885919 270.226162 63.425919 
L 270.226162 46.30765 
Q 270.226162 43.84765 267.766162 43.84765 
L 67.8886 43.84765 
Q 65.4286 43.84765 65.4286 46.30765 
L 65.4286 63.425919 
Q 65.4286 65.885919 67.8886 65.885919 
z
" style="fill: #ffffff; opacity: 0.95; stroke: #d7dde5; stroke-linejoin: miter"/>
    </g>
    <!-- За пределами основного диапазона остаются -->
    <g style="fill: #49525c" transform="translate(67.8886 52.538369) scale(0.082 -0.082)">
     <defs>
      <path id="DejaVuSans-417" d="M 1828 4750 
Q 2597 4750 3084 4423 
Q 3572 4097 3572 3541 
Q 3572 3153 3350 2886 
Q 3128 2619 2719 2516 
Q 3172 2419 3426 2112 
Q 3681 1806 3681 1356 
Q 3681 638 3126 273 
Q 2572 -91 1828 -91 
Q 1447 -91 1003 12 
Q 559 116 422 203 
L 422 853 
Q 900 575 1164 508 
Q 1428 441 1816 441 
Q 2403 441 2728 666 
Q 3053 891 3053 1356 
Q 3053 1769 2764 2001 
Q 2475 2234 1866 2234 
L 1228 2234 
L 1228 2753 
L 1891 2753 
Q 2450 2753 2697 2939 
Q 2944 3125 2944 3475 
Q 2944 3834 2689 4026 
Q 2434 4219 1816 4219 
Q 1397 4219 1253 4181 
Q 1109 4144 469 3903 
L 469 4519 
Q 822 4644 1190 4697 
Q 1559 4750 1828 4750 
z
" transform="scale(0.015625)"/>
      <path id="DejaVuSans-43f" d="M 3603 3500 
L 3603 0 
L 3025 0 
L 3025 3041 
L 1159 3041 
L 1159 0 
L 581 0 
L 581 3500 
L 3603 3500 
z
" transform="scale(0.015625)"/>
      <path id="DejaVuSans-437" d="M 2206 1888 
Q 2594 1813 2809 1584 
Q 3025 1356 3025 1019 
Q 3025 478 2622 193 
Q 2219 -91 1475 -91 
Q 1225 -91 961 -47 
Q 697 -3 416 84 
L 416 619 
Q 638 503 903 445 
Q 1169 388 1459 388 
Q 1931 388 2195 563 
Q 2459 738 2459 1019 
Q 2459 1294 2225 1461 
Q 1991 1628 1563 1628 
L 1100 1628 
L 1100 2103 
L 1584 2103 
Q 1947 2103 2158 2242 
Q 2369 2381 2369 2600 
Q 2369 2800 2151 2944 
Q 1934 3088 1563 3088 
Q 1341 3088 1089 3047 
Q 838 3006 534 2916 
L 534 3438 
Q 841 3513 1106 3550 
Q 1372 3588 1609 3588 
Q 2222 3588 2576 3342 
Q 2931 3097 2931 2656 
Q 2931 2366 2743 2164 
Q 2556 1963 2206 1888 
z
" transform="scale(0.015625)"/>
      <path id="DejaVuSans-44e" d="M 3431 3097 
Q 2969 3097 2700 2736 
Q 2431 2375 2431 1747 
Q 2431 1119 2698 758 
Q 2966 397 3431 397 
Q 3891 397 4159 759 
Q 4428 1122 4428 1747 
Q 4428 2369 4159 2733 
Q 3891 3097 3431 3097 
z
M 1844 2103 
Q 1903 2697 2292 3140 
Q 2681 3584 3431 3584 
Q 4181 3584 4609 3096 
Q 5038 2609 5038 1747 
Q 5038 888 4609 398 
Q 4181 -91 3431 -91 
Q 2678 -91 2267 381 
Q 1856 853 1828 1628 
L 1178 1628 
L 1178 0 
L 603 0 
L 603 3500 
L 1178 3500 
L 1178 2103 
L 1844 2103 
z
" transform="scale(0.015625)"/>
     </defs>
     <use xlink:href="#DejaVuSans-417"/>
     <use xlink:href="#DejaVuSans-430" transform="translate(64.111328 0)"/>
     <use xlink:href="#DejaVuSans-20" transform="translate(125.390625 0)"/>
     <use xlink:href="#DejaVuSans-43f" transform="translate(157.177734 0)"/>
     <use xlink:href="#DejaVuSans-440" transform="translate(222.558594 0)"/>
     <use xlink:href="#DejaVuSans-435" transform="translate(286.035156 0)"/>
     <use xlink:href="#DejaVuSans-434" transform="translate(347.558594 0)"/>
     <use xlink:href="#DejaVuSans-435" transform="translate(416.699219 0)"/>
     <use xlink:href="#DejaVuSans-43b" transform="translate(478.222656 0)"/>
     <use xlink:href="#DejaVuSans-430" transform="translate(542.138672 0)"/>
     <use xlink:href="#DejaVuSans-43c" transform="translate(603.417969 0)"/>
     <use xlink:href="#DejaVuSans-438" transform="translate(678.857422 0)"/>
     <use xlink:href="#DejaVuSans-20" transform="translate(743.847656 0)"/>
     <use xlink:href="#DejaVuSans-43e" transform="translate(775.634766 0)"/>
     <use xlink:href="#DejaVuSans-441" transform="translate(836.816406 0)"/>
     <use xlink:href="#DejaVuSans-43d" transform="translate(891.796875 0)"/>
     <use xlink:href="#DejaVuSans-43e" transform="translate(957.177734 0)"/>
     <use xlink:href="#DejaVuSans-432" transform="translate(1018.359375 0)"/>
     <use xlink:href="#DejaVuSans-43d" transform="translate(1077.294922 0)"/>
     <use xlink:href="#DejaVuSans-43e" transform="translate(1142.675781 0)"/>
     <use xlink:href="#DejaVuSans-433" transform="translate(1203.857422 0)"/>
     <use xlink:href="#DejaVuSans-43e" transform="translate(1256.396484 0)"/>
     <use xlink:href="#DejaVuSans-20" transform="translate(1317.578125 0)"/>
     <use xlink:href="#DejaVuSans-434" transform="translate(1349.365234 0)"/>
     <use xlink:href="#DejaVuSans-438" transform="translate(1418.505859 0)"/>
     <use xlink:href="#DejaVuSans-430" transform="translate(1483.496094 0)"/>
     <use xlink:href="#DejaVuSans-43f" transform="translate(1544.775391 0)"/>
     <use xlink:href="#DejaVuSans-430" transform="translate(1610.15625 0)"/>
     <use xlink:href="#DejaVuSans-437" transform="translate(1671.435547 0)"/>
     <use xlink:href="#DejaVuSans-43e" transform="translate(1724.609375 0)"/>
     <use xlink:href="#DejaVuSans-43d" transform="translate(1785.791016 0)"/>
     <use xlink:href="#DejaVuSans-430" transform="translate(1851.171875 0)"/>
     <use xlink:href="#DejaVuSans-20" transform="translate(1912.451172 0)"/>
     <use xlink:href="#DejaVuSans-43e" transform="translate(1944.238281 0)"/>
     <use xlink:href="#DejaVuSans-441" transform="translate(2005.419922 0)"/>
     <use xlink:href="#DejaVuSans-442" transform="translate(2060.400391 0)"/>
     <use xlink:href="#DejaVuSans-430" transform="translate(2118.652344 0)"/>
     <use xlink:href="#DejaVuSans-44e" transform="translate(2179.931641 0)"/>
     <use xlink:href="#DejaVuSans-442" transform="translate(2264.111328 0)"/>
     <use xlink:href="#DejaVuSans-441" transform="translate(2322.363281 0)"/>
     <use xlink:href="#DejaVuSans-44f" transform="translate(2377.34375 0)"/>
    </g>
    <!-- редкие экстремумы: 12 -->
    <g style="fill: #49525c" transform="translate(67.8886 61.720575) scale(0.082 -0.082)">
     <defs>
      <path id="DejaVuSans-44d" d="M 353 666 
Q 847 397 1338 397 
Q 1797 397 2125 664 
Q 2453 931 2513 1613 
L 738 1613 
L 738 2072 
L 2494 2072 
Q 2456 2400 2207 2748 
Q 1959 3097 1338 3097 
Q 856 3097 353 2828 
L 353 3366 
Q 844 3584 1363 3584 
Q 2181 3584 2651 3089 
Q 3122 2594 3122 1747 
Q 3122 903 2664 406 
Q 2206 -91 1403 -91 
Q 813 -91 353 134 
L 353 666 
z
" transform="scale(0.015625)"/>
      <path id="DejaVuSans-443" d="M 2059 -325 
Q 1816 -950 1584 -1140 
Q 1353 -1331 966 -1331 
L 506 -1331 
L 506 -850 
L 844 -850 
Q 1081 -850 1212 -737 
Q 1344 -625 1503 -206 
L 1606 56 
L 191 3500 
L 800 3500 
L 1894 763 
L 2988 3500 
L 3597 3500 
L 2059 -325 
z
" transform="scale(0.015625)"/>
      <path id="DejaVuSans-44b" d="M 3907 3500 
L 4482 3500 
L 4482 0 
L 3907 0 
L 3907 3500 
z
M 4195 3584 
L 4195 3584 
z
M 2781 1038 
Q 2781 1319 2576 1466 
Q 2372 1613 1978 1613 
L 1159 1613 
L 1159 459 
L 1978 459 
Q 2372 459 2576 607 
Q 2781 756 2781 1038 
z
M 581 3500 
L 1159 3500 
L 1159 2072 
L 2003 2072 
Q 2672 2072 3033 1817 
Q 3394 1563 3394 1038 
Q 3394 513 3033 256 
Q 2672 0 2003 0 
L 581 0 
L 581 3500 
z
" transform="scale(0.015625)"/>
      <path id="DejaVuSans-3a" d="M 750 794 
L 1409 794 
L 1409 0 
L 750 0 
L 750 794 
z
M 750 3309 
L 1409 3309 
L 1409 2516 
L 750 2516 
L 750 3309 
z
" transform="scale(0.015625)"/>
     </defs>
     <use xlink:href="#DejaVuSans-440"/>
     <use xlink:href="#DejaVuSans-435" transform="translate(63.476562 0)"/>
     <use xlink:href="#DejaVuSans-434" transform="translate(125 0)"/>
     <use xlink:href="#DejaVuSans-43a" transform="translate(194.140625 0)"/>
     <use xlink:href="#DejaVuSans-438" transform="translate(254.541016 0)"/>
     <use xlink:href="#DejaVuSans-435" transform="translate(319.53125 0)"/>
     <use xlink:href="#DejaVuSans-20" transform="translate(381.054688 0)"/>
     <use xlink:href="#DejaVuSans-44d" transform="translate(412.841797 0)"/>
     <use xlink:href="#DejaVuSans-43a" transform="translate(467.724609 0)"/>
     <use xlink:href="#DejaVuSans-441" transform="translate(528.125 0)"/>
     <use xlink:href="#DejaVuSans-442" transform="translate(583.105469 0)"/>
     <use xlink:href="#DejaVuSans-440" transform="translate(641.357422 0)"/>
     <use xlink:href="#DejaVuSans-435" transform="translate(704.833984 0)"/>
     <use xlink:href="#DejaVuSans-43c" transform="translate(766.357422 0)"/>
     <use xlink:href="#DejaVuSans-443" transform="translate(841.796875 0)"/>
     <use xlink:href="#DejaVuSans-43c" transform="translate(900.976562 0)"/>
     <use xlink:href="#DejaVuSans-44b" transform="translate(976.416016 0)"/>
     <use xlink:href="#DejaVuSans-3a" transform="translate(1055.371094 0)"/>
     <use xlink:href="#DejaVuSans-20" transform="translate(1089.0625 0)"/>
     <use xlink:href="#DejaVuSans-31" transform="translate(1120.849609 0)"/>
     <use xlink:href="#DejaVuSans-32" transform="translate(1184.472656 0)"/>
    </g>
   </g>
   <g id="text_18">
    <!-- Интервальные скорости смещения береговой бровки -->
    <g transform="translate(199.055594 23.2625) scale(0.13 -0.13)">
     <defs>
      <path id="DejaVuSans-Bold-418" d="M 4769 4666 
L 4769 0 
L 3628 0 
L 3628 3200 
L 1931 0 
L 588 0 
L 588 4666 
L 1728 4666 
L 1728 1466 
L 3425 4666 
L 4769 4666 
z
" transform="scale(0.015625)"/>
      <path id="DejaVuSans-Bold-43d" d="M 538 3500 
L 1656 3500 
L 1656 2169 
L 2766 2169 
L 2766 3500 
L 3884 3500 
L 3884 0 
L 2766 0 
L 2766 1478 
L 1656 1478 
L 1656 0 
L 538 0 
L 538 3500 
z
" transform="scale(0.015625)"/>
      <path id="DejaVuSans-Bold-442" d="M 25 3500 
L 3681 3500 
L 3681 2809 
L 2413 2809 
L 2413 0 
L 1297 0 
L 1297 2809 
L 25 2809 
L 25 3500 
z
" transform="scale(0.015625)"/>
      <path id="DejaVuSans-Bold-435" d="M 4031 1759 
L 4031 1441 
L 1416 1441 
Q 1456 1047 1700 850 
Q 1944 653 2381 653 
Q 2734 653 3104 758 
Q 3475 863 3866 1075 
L 3866 213 
Q 3469 63 3072 -14 
Q 2675 -91 2278 -91 
Q 1328 -91 801 392 
Q 275 875 275 1747 
Q 275 2603 792 3093 
Q 1309 3584 2216 3584 
Q 3041 3584 3536 3087 
Q 4031 2591 4031 1759 
z
M 2881 2131 
Q 2881 2450 2695 2645 
Q 2509 2841 2209 2841 
Q 1884 2841 1681 2658 
Q 1478 2475 1428 2131 
L 2881 2131 
z
" transform="scale(0.015625)"/>
      <path id="DejaVuSans-Bold-440" d="M 1656 506 
L 1656 -1331 
L 538 -1331 
L 538 3500 
L 1656 3500 
L 1656 2988 
Q 1888 3294 2169 3439 
Q 2450 3584 2816 3584 
Q 3463 3584 3878 3070 
Q 4294 2556 4294 1747 
Q 4294 938 3878 423 
Q 3463 -91 2816 -91 
Q 2450 -91 2169 54 
Q 1888 200 1656 506 
z
M 2400 2772 
Q 2041 2772 1848 2508 
Q 1656 2244 1656 1747 
Q 1656 1250 1848 986 
Q 2041 722 2400 722 
Q 2759 722 2948 984 
Q 3138 1247 3138 1747 
Q 3138 2247 2948 2509 
Q 2759 2772 2400 2772 
z
" transform="scale(0.015625)"/>
      <path id="DejaVuSans-Bold-432" d="M 2184 2181 
Q 2378 2181 2478 2261 
Q 2578 2341 2578 2497 
Q 2578 2653 2478 2731 
Q 2378 2809 2184 2809 
L 1656 2809 
L 1656 2181 
L 2184 2181 
z
M 2222 700 
Q 2469 700 2594 798 
Q 2719 897 2719 1094 
Q 2719 1288 2594 1384 
Q 2469 1481 2222 1481 
L 1656 1481 
L 1656 700 
L 2222 700 
z
M 538 3500 
L 2141 3500 
Q 2919 3500 3267 3279 
Q 3616 3059 3616 2575 
Q 3616 2319 3487 2139 
Q 3359 1959 3119 1872 
Q 3428 1788 3598 1561 
Q 3769 1334 3769 1003 
Q 3769 497 3403 248 
Q 3038 0 2294 0 
L 538 0 
L 538 3500 
z
" transform="scale(0.015625)"/>
      <path id="DejaVuSans-Bold-430" d="M 2106 1575 
Q 1756 1575 1579 1456 
Q 1403 1338 1403 1106 
Q 1403 894 1545 773 
Q 1688 653 1941 653 
Q 2256 653 2472 879 
Q 2688 1106 2688 1447 
L 2688 1575 
L 2106 1575 
z
M 3816 1997 
L 3816 0 
L 2688 0 
L 2688 519 
Q 2463 200 2181 54 
Q 1900 -91 1497 -91 
Q 953 -91 614 226 
Q 275 544 275 1050 
Q 275 1666 698 1953 
Q 1122 2241 2028 2241 
L 2688 2241 
L 2688 2328 
Q 2688 2594 2478 2717 
Q 2269 2841 1825 2841 
Q 1466 2841 1156 2769 
Q 847 2697 581 2553 
L 581 3406 
Q 941 3494 1303 3539 
Q 1666 3584 2028 3584 
Q 2975 3584 3395 3211 
Q 3816 2838 3816 1997 
z
" transform="scale(0.015625)"/>
      <path id="DejaVuSans-Bold-43b" d="M 353 0 
L 353 800 
Q 906 913 1031 1278 
Q 1125 1556 1125 2928 
L 1125 3500 
L 4150 3500 
L 4150 0 
L 3031 0 
L 3031 2700 
L 2244 2700 
L 2244 2584 
Q 2244 1213 2028 813 
Q 1591 0 353 0 
z
" transform="scale(0.015625)"/>
      <path id="DejaVuSans-Bold-44c" d="M 2719 1094 
Q 2719 1291 2594 1388 
Q 2472 1481 2222 1481 
L 1656 1481 
L 1656 700 
L 2222 700 
Q 2469 700 2594 800 
Q 2719 897 2719 1094 
z
M 538 3500 
L 1656 3500 
L 1656 2172 
L 2291 2172 
Q 3000 2172 3381 1913 
Q 3766 1650 3766 1081 
Q 3766 513 3381 256 
Q 3000 0 2291 0 
L 538 0 
L 538 3500 
z
" transform="scale(0.015625)"/>
      <path id="DejaVuSans-Bold-44b" d="M 4154 3500 
L 5272 3500 
L 5272 0 
L 4154 0 
L 4154 3500 
z
M 2719 1094 
Q 2719 1291 2594 1388 
Q 2472 1481 2222 1481 
L 1656 1481 
L 1656 700 
L 2222 700 
Q 2469 700 2594 800 
Q 2719 897 2719 1094 
z
M 538 3500 
L 1656 3500 
L 1656 2172 
L 2291 2172 
Q 3000 2172 3381 1913 
Q 3766 1650 3766 1081 
Q 3766 513 3381 256 
Q 3000 0 2291 0 
L 538 0 
L 538 3500 
z
" transform="scale(0.015625)"/>
      <path id="DejaVuSans-Bold-20" transform="scale(0.015625)"/>
      <path id="DejaVuSans-Bold-441" d="M 3366 3391 
L 3366 2478 
Q 3138 2634 2908 2709 
Q 2678 2784 2431 2784 
Q 1963 2784 1702 2511 
Q 1441 2238 1441 1747 
Q 1441 1256 1702 982 
Q 1963 709 2431 709 
Q 2694 709 2930 787 
Q 3166 866 3366 1019 
L 3366 103 
Q 3103 6 2833 -42 
Q 2563 -91 2291 -91 
Q 1344 -91 809 395 
Q 275 881 275 1747 
Q 275 2613 809 3098 
Q 1344 3584 2291 3584 
Q 2566 3584 2833 3536 
Q 3100 3488 3366 3391 
z
" transform="scale(0.015625)"/>
      <path id="DejaVuSans-Bold-43a" d="M 538 3500 
L 1656 3500 
L 1656 2316 
L 2903 3500 
L 4128 3500 
L 2634 2078 
L 4250 0 
L 3094 0 
L 1972 1447 
L 1656 1147 
L 1656 0 
L 538 0 
L 538 3500 
z
" transform="scale(0.015625)"/>
      <path id="DejaVuSans-Bold-43e" d="M 2203 2784 
Q 1831 2784 1636 2517 
Q 1441 2250 1441 1747 
Q 1441 1244 1636 976 
Q 1831 709 2203 709 
Q 2569 709 2762 976 
Q 2956 1244 2956 1747 
Q 2956 2250 2762 2517 
Q 2569 2784 2203 2784 
z
M 2203 3584 
Q 3106 3584 3614 3096 
Q 4122 2609 4122 1747 
Q 4122 884 3614 396 
Q 3106 -91 2203 -91 
Q 1297 -91 786 396 
Q 275 884 275 1747 
Q 275 2609 786 3096 
Q 1297 3584 2203 3584 
z
" transform="scale(0.015625)"/>
      <path id="DejaVuSans-Bold-438" d="M 3947 3500 
L 3947 0 
L 2828 0 
L 2828 1863 
L 1700 0 
L 538 0 
L 538 3500 
L 1656 3500 
L 1656 1638 
L 2784 3500 
L 3947 3500 
z
" transform="scale(0.015625)"/>
      <path id="DejaVuSans-Bold-43c" d="M 538 3500 
L 1825 3500 
L 2613 1750 
L 3400 3500 
L 4691 3500 
L 4691 0 
L 3575 0 
L 3575 1984 
L 2984 672 
L 2250 672 
L 1656 1984 
L 1656 0 
L 538 0 
L 538 3500 
z
" transform="scale(0.015625)"/>
      <path id="DejaVuSans-Bold-449" d="M 6000 0 
L 538 0 
L 538 3500 
L 1656 3500 
L 1656 800 
L 2819 800 
L 2819 3500 
L 3938 3500 
L 3938 800 
L 5100 800 
L 5100 3500 
L 6219 3500 
L 6219 800 
L 6800 800 
L 6800 -884 
L 6000 -884 
L 6000 0 
z
" transform="scale(0.015625)"/>
      <path id="DejaVuSans-Bold-44f" d="M 1528 2394 
Q 1528 2169 1651 2069 
Q 1775 1969 2059 1969 
L 2463 1969 
L 2463 2816 
L 2059 2816 
Q 1775 2816 1651 2719 
Q 1528 2622 1528 2394 
z
M 197 0 
L 1113 1497 
Q 847 1650 650 1917 
Q 453 2184 453 2516 
Q 453 3013 789 3256 
Q 1125 3500 1878 3500 
L 3581 3500 
L 3581 0 
L 2463 0 
L 2463 1278 
L 2069 1278 
L 1288 0 
L 197 0 
z
" transform="scale(0.015625)"/>
      <path id="DejaVuSans-Bold-431" d="M 344 1941 
L 322 2463 
Q 275 2672 275 2881 
Q 275 3494 456 3894 
Q 791 4631 1238 4781 
Q 1606 4909 3141 5031 
Q 3297 5044 3475 5072 
L 3725 4378 
Q 3488 4316 2269 4209 
Q 1734 4163 1516 4013 
Q 1153 3766 1125 3300 
Q 1584 3584 2275 3584 
Q 3178 3584 3686 3096 
Q 4194 2609 4194 1747 
Q 4194 884 3687 396 
Q 3181 -91 2275 -91 
Q 1369 -91 858 396 
Q 347 884 347 1747 
Q 347 1866 344 1941 
z
M 2272 2784 
Q 1903 2784 1708 2517 
Q 1513 2250 1513 1747 
Q 1513 1244 1708 976 
Q 1903 709 2272 709 
Q 2641 709 2834 976 
Q 3028 1244 3028 1747 
Q 3028 2250 2834 2517 
Q 2641 2784 2272 2784 
z
" transform="scale(0.015625)"/>
      <path id="DejaVuSans-Bold-433" d="M 538 0 
L 538 3500 
L 3191 3500 
L 3191 2809 
L 1656 2809 
L 1656 0 
L 538 0 
z
" transform="scale(0.015625)"/>
      <path id="DejaVuSans-Bold-439" d="M 3947 3500 
L 3947 0 
L 2828 0 
L 2828 1863 
L 1700 0 
L 538 0 
L 538 3500 
L 1656 3500 
L 1656 1638 
L 2784 3500 
L 3947 3500 
z
M 1190 4891 
L 1637 4891 
Q 1671 4672 1826 4556 
Q 1981 4441 2240 4441 
Q 2499 4441 2654 4556 
Q 2809 4672 2843 4891 
L 3290 4891 
Q 3271 4441 2999 4202 
Q 2728 3963 2240 3963 
Q 1753 3963 1481 4202 
Q 1209 4441 1190 4891 
z
" transform="scale(0.015625)"/>
     </defs>
     <use xlink:href="#DejaVuSans-Bold-418"/>
     <use xlink:href="#DejaVuSans-Bold-43d" transform="translate(83.691406 0)"/>
     <use xlink:href="#DejaVuSans-Bold-442" transform="translate(152.783203 0)"/>
     <use xlink:href="#DejaVuSans-Bold-435" transform="translate(210.742188 0)"/>
     <use xlink:href="#DejaVuSans-Bold-440" transform="translate(278.564453 0)"/>
     <use xlink:href="#DejaVuSans-Bold-432" transform="translate(350.146484 0)"/>
     <use xlink:href="#DejaVuSans-Bold-430" transform="translate(413.427734 0)"/>
     <use xlink:href="#DejaVuSans-Bold-43b" transform="translate(480.908203 0)"/>
     <use xlink:href="#DejaVuSans-Bold-44c" transform="translate(554.150391 0)"/>
     <use xlink:href="#DejaVuSans-Bold-43d" transform="translate(617.382812 0)"/>
     <use xlink:href="#DejaVuSans-Bold-44b" transform="translate(686.474609 0)"/>
     <use xlink:href="#DejaVuSans-Bold-435" transform="translate(776.904297 0)"/>
     <use xlink:href="#DejaVuSans-Bold-20" transform="translate(844.726562 0)"/>
     <use xlink:href="#DejaVuSans-Bold-441" transform="translate(879.541016 0)"/>
     <use xlink:href="#DejaVuSans-Bold-43a" transform="translate(938.818359 0)"/>
     <use xlink:href="#DejaVuSans-Bold-43e" transform="translate(1006.689453 0)"/>
     <use xlink:href="#DejaVuSans-Bold-440" transform="translate(1075.390625 0)"/>
     <use xlink:href="#DejaVuSans-Bold-43e" transform="translate(1146.972656 0)"/>
     <use xlink:href="#DejaVuSans-Bold-441" transform="translate(1215.673828 0)"/>
     <use xlink:href="#DejaVuSans-Bold-442" transform="translate(1274.951172 0)"/>
     <use xlink:href="#DejaVuSans-Bold-438" transform="translate(1332.910156 0)"/>
     <use xlink:href="#DejaVuSans-Bold-20" transform="translate(1402.978516 0)"/>
     <use xlink:href="#DejaVuSans-Bold-441" transform="translate(1437.792969 0)"/>
     <use xlink:href="#DejaVuSans-Bold-43c" transform="translate(1497.070312 0)"/>
     <use xlink:href="#DejaVuSans-Bold-435" transform="translate(1578.808594 0)"/>
     <use xlink:href="#DejaVuSans-Bold-449" transform="translate(1646.630859 0)"/>
     <use xlink:href="#DejaVuSans-Bold-435" transform="translate(1757.177734 0)"/>
     <use xlink:href="#DejaVuSans-Bold-43d" transform="translate(1825 0)"/>
     <use xlink:href="#DejaVuSans-Bold-438" transform="translate(1894.091797 0)"/>
     <use xlink:href="#DejaVuSans-Bold-44f" transform="translate(1964.160156 0)"/>
     <use xlink:href="#DejaVuSans-Bold-20" transform="translate(2028.369141 0)"/>
     <use xlink:href="#DejaVuSans-Bold-431" transform="translate(2063.183594 0)"/>
     <use xlink:href="#DejaVuSans-Bold-435" transform="translate(2133.007812 0)"/>
     <use xlink:href="#DejaVuSans-Bold-440" transform="translate(2200.830078 0)"/>
     <use xlink:href="#DejaVuSans-Bold-435" transform="translate(2272.412109 0)"/>
     <use xlink:href="#DejaVuSans-Bold-433" transform="translate(2340.234375 0)"/>
     <use xlink:href="#DejaVuSans-Bold-43e" transform="translate(2392.480469 0)"/>
     <use xlink:href="#DejaVuSans-Bold-432" transform="translate(2461.181641 0)"/>
     <use xlink:href="#DejaVuSans-Bold-43e" transform="translate(2524.462891 0)"/>
     <use xlink:href="#DejaVuSans-Bold-439" transform="translate(2593.164062 0)"/>
     <use xlink:href="#DejaVuSans-Bold-20" transform="translate(2663.232422 0)"/>
     <use xlink:href="#DejaVuSans-Bold-431" transform="translate(2698.046875 0)"/>
     <use xlink:href="#DejaVuSans-Bold-440" transform="translate(2767.871094 0)"/>
     <use xlink:href="#DejaVuSans-Bold-43e" transform="translate(2839.453125 0)"/>
     <use xlink:href="#DejaVuSans-Bold-432" transform="translate(2908.154297 0)"/>
     <use xlink:href="#DejaVuSans-Bold-43a" transform="translate(2971.435547 0)"/>
     <use xlink:href="#DejaVuSans-Bold-438" transform="translate(3039.306641 0)"/>
    </g>
   </g>
  </g>
  <g id="text_19">
   <!-- Знак смещения и скорости показывает направление изменения в профильной системе координат и не должен автоматически трактоваться как готовая физическая категория без полевой верификации. -->
   <g style="fill: #46505b" transform="translate(12.96 433.354289) scale(0.0925 -0.0925)">
    <defs>
     <path id="DejaVuSans-444" d="M 947 1747 
Q 947 1013 1173 702 
Q 1400 391 1784 391 
Q 2091 391 2447 916 
L 2447 2578 
Q 2091 3103 1784 3103 
Q 1400 3103 1173 2792 
Q 947 2481 947 1747 
z
M 2447 -1331 
L 2447 447 
Q 2269 153 2064 31 
Q 1859 -91 1600 -91 
Q 1078 -91 714 392 
Q 350 875 350 1734 
Q 350 2594 714 3089 
Q 1078 3584 1600 3584 
Q 1859 3584 2064 3465 
Q 2269 3347 2447 3053 
L 2447 4666 
L 3025 4666 
L 3025 3053 
Q 3203 3347 3408 3465 
Q 3613 3584 3872 3584 
Q 4394 3584 4758 3089 
Q 5122 2594 5122 1734 
Q 5122 875 4758 392 
Q 4394 -91 3872 -91 
Q 3613 -91 3408 31 
Q 3203 153 3025 447 
L 3025 -1331 
L 2447 -1331 
z
M 4525 1747 
Q 4525 2481 4298 2792 
Q 4072 3103 3688 3103 
Q 3381 3103 3025 2578 
L 3025 916 
Q 3381 391 3688 391 
Q 4072 391 4298 702 
Q 4525 1013 4525 1747 
z
" transform="scale(0.015625)"/>
     <path id="DejaVuSans-439" d="M 3578 3500 
L 3578 0 
L 3006 0 
L 3006 2809 
L 1319 0 
L 581 0 
L 581 3500 
L 1153 3500 
L 1153 697 
L 2838 3500 
L 3578 3500 
z
M 1102 4833 
L 1471 4833 
Q 1505 4599 1656 4481 
Q 1808 4364 2080 4364 
Q 2349 4364 2499 4480 
Q 2649 4596 2689 4833 
L 3058 4833 
Q 3027 4386 2780 4161 
Q 2533 3936 2080 3936 
Q 1627 3936 1380 4161 
Q 1133 4386 1102 4833 
z
" transform="scale(0.015625)"/>
     <path id="DejaVuSans-436" d="M 2597 3500 
L 3169 3500 
L 3169 1856 
L 4697 3500 
L 5366 3500 
L 4109 2153 
L 5547 0 
L 4931 0 
L 3753 1769 
L 3169 1141 
L 3169 0 
L 2597 0 
L 2597 1141 
L 2013 1769 
L 834 0 
L 219 0 
L 1656 2153 
L 400 3500 
L 1069 3500 
L 2597 1856 
L 2597 3500 
z
" transform="scale(0.015625)"/>
     <path id="DejaVuSans-447" d="M 2625 0 
L 2625 1472 
L 1553 1472 
Q 1075 1472 756 1769 
Q 469 2038 469 2613 
L 469 3500 
L 1044 3500 
L 1044 2666 
Q 1044 2300 1206 2116 
Q 1372 1931 1697 1931 
L 2625 1931 
L 2625 3500 
L 3200 3500 
L 3200 0 
L 2625 0 
z
" transform="scale(0.015625)"/>
     <path id="DejaVuSans-446" d="M 3603 0 
L 581 0 
L 581 3500 
L 1159 3500 
L 1159 459 
L 3025 459 
L 3025 3500 
L 3603 3500 
L 3603 459 
L 4063 459 
L 4063 -884 
L 3603 -884 
L 3603 0 
z
" transform="scale(0.015625)"/>
     <path id="DejaVuSans-2e" d="M 684 794 
L 1344 794 
L 1344 0 
L 684 0 
L 684 794 
z
" transform="scale(0.015625)"/>
    </defs>
    <use xlink:href="#DejaVuSans-417"/>
    <use xlink:href="#DejaVuSans-43d" transform="translate(64.111328 0)"/>
    <use xlink:href="#DejaVuSans-430" transform="translate(129.492188 0)"/>
    <use xlink:href="#DejaVuSans-43a" transform="translate(190.771484 0)"/>
    <use xlink:href="#DejaVuSans-20" transform="translate(251.171875 0)"/>
    <use xlink:href="#DejaVuSans-441" transform="translate(282.958984 0)"/>
    <use xlink:href="#DejaVuSans-43c" transform="translate(337.939453 0)"/>
    <use xlink:href="#DejaVuSans-435" transform="translate(413.378906 0)"/>
    <use xlink:href="#DejaVuSans-449" transform="translate(474.902344 0)"/>
    <use xlink:href="#DejaVuSans-435" transform="translate(569.091797 0)"/>
    <use xlink:href="#DejaVuSans-43d" transform="translate(630.615234 0)"/>
    <use xlink:href="#DejaVuSans-438" transform="translate(695.996094 0)"/>
    <use xlink:href="#DejaVuSans-44f" transform="translate(760.986328 0)"/>
    <use xlink:href="#DejaVuSans-20" transform="translate(821.142578 0)"/>
    <use xlink:href="#DejaVuSans-438" transform="translate(852.929688 0)"/>
    <use xlink:href="#DejaVuSans-20" transform="translate(917.919922 0)"/>
    <use xlink:href="#DejaVuSans-441" transform="translate(949.707031 0)"/>
    <use xlink:href="#DejaVuSans-43a" transform="translate(1004.6875 0)"/>
    <use xlink:href="#DejaVuSans-43e" transform="translate(1065.087891 0)"/>
    <use xlink:href="#DejaVuSans-440" transform="translate(1126.269531 0)"/>
    <use xlink:href="#DejaVuSans-43e" transform="translate(1189.746094 0)"/>
    <use xlink:href="#DejaVuSans-441" transform="translate(1250.927734 0)"/>
    <use xlink:href="#DejaVuSans-442" transform="translate(1305.908203 0)"/>
    <use xlink:href="#DejaVuSans-438" transform="translate(1364.160156 0)"/>
    <use xlink:href="#DejaVuSans-20" transform="translate(1429.150391 0)"/>
    <use xlink:href="#DejaVuSans-43f" transform="translate(1460.9375 0)"/>
    <use xlink:href="#DejaVuSans-43e" transform="translate(1526.318359 0)"/>
    <use xlink:href="#DejaVuSans-43a" transform="translate(1587.5 0)"/>
    <use xlink:href="#DejaVuSans-430" transform="translate(1647.900391 0)"/>
    <use xlink:href="#DejaVuSans-437" transform="translate(1709.179688 0)"/>
    <use xlink:href="#DejaVuSans-44b" transform="translate(1762.353516 0)"/>
    <use xlink:href="#DejaVuSans-432" transform="translate(1841.308594 0)"/>
    <use xlink:href="#DejaVuSans-430" transform="translate(1900.244141 0)"/>
    <use xlink:href="#DejaVuSans-435" transform="translate(1961.523438 0)"/>
    <use xlink:href="#DejaVuSans-442" transform="translate(2023.046875 0)"/>
    <use xlink:href="#DejaVuSans-20" transform="translate(2081.298828 0)"/>
    <use xlink:href="#DejaVuSans-43d" transform="translate(2113.085938 0)"/>
    <use xlink:href="#DejaVuSans-430" transform="translate(2178.466797 0)"/>
    <use xlink:href="#DejaVuSans-43f" transform="translate(2239.746094 0)"/>
    <use xlink:href="#DejaVuSans-440" transform="translate(2305.126953 0)"/>
    <use xlink:href="#DejaVuSans-430" transform="translate(2368.603516 0)"/>
    <use xlink:href="#DejaVuSans-432" transform="translate(2429.882812 0)"/>
    <use xlink:href="#DejaVuSans-43b" transform="translate(2488.818359 0)"/>
    <use xlink:href="#DejaVuSans-435" transform="translate(2552.734375 0)"/>
    <use xlink:href="#DejaVuSans-43d" transform="translate(2614.257812 0)"/>
    <use xlink:href="#DejaVuSans-438" transform="translate(2679.638672 0)"/>
    <use xlink:href="#DejaVuSans-435" transform="translate(2744.628906 0)"/>
    <use xlink:href="#DejaVuSans-20" transform="translate(2806.152344 0)"/>
    <use xlink:href="#DejaVuSans-438" transform="translate(2837.939453 0)"/>
    <use xlink:href="#DejaVuSans-437" transform="translate(2902.929688 0)"/>
    <use xlink:href="#DejaVuSans-43c" transform="translate(2956.103516 0)"/>
    <use xlink:href="#DejaVuSans-435" transform="translate(3031.542969 0)"/>
    <use xlink:href="#DejaVuSans-43d" transform="translate(3093.066406 0)"/>
    <use xlink:href="#DejaVuSans-435" transform="translate(3158.447266 0)"/>
    <use xlink:href="#DejaVuSans-43d" transform="translate(3219.970703 0)"/>
    <use xlink:href="#DejaVuSans-438" transform="translate(3285.351562 0)"/>
    <use xlink:href="#DejaVuSans-44f" transform="translate(3350.341797 0)"/>
    <use xlink:href="#DejaVuSans-20" transform="translate(3410.498047 0)"/>
    <use xlink:href="#DejaVuSans-432" transform="translate(3442.285156 0)"/>
    <use xlink:href="#DejaVuSans-20" transform="translate(3501.220703 0)"/>
    <use xlink:href="#DejaVuSans-43f" transform="translate(3533.007812 0)"/>
    <use xlink:href="#DejaVuSans-440" transform="translate(3598.388672 0)"/>
    <use xlink:href="#DejaVuSans-43e" transform="translate(3661.865234 0)"/>
    <use xlink:href="#DejaVuSans-444" transform="translate(3723.046875 0)"/>
    <use xlink:href="#DejaVuSans-438" transform="translate(3808.544922 0)"/>
    <use xlink:href="#DejaVuSans-43b" transform="translate(3873.535156 0)"/>
    <use xlink:href="#DejaVuSans-44c" transform="translate(3937.451172 0)"/>
    <use xlink:href="#DejaVuSans-43d" transform="translate(3996.386719 0)"/>
    <use xlink:href="#DejaVuSans-43e" transform="translate(4061.767578 0)"/>
    <use xlink:href="#DejaVuSans-439" transform="translate(4122.949219 0)"/>
    <use xlink:href="#DejaVuSans-20" transform="translate(4187.939453 0)"/>
    <use xlink:href="#DejaVuSans-441" transform="translate(4219.726562 0)"/>
    <use xlink:href="#DejaVuSans-438" transform="translate(4274.707031 0)"/>
    <use xlink:href="#DejaVuSans-441" transform="translate(4339.697266 0)"/>
    <use xlink:href="#DejaVuSans-442" transform="translate(4394.677734 0)"/>
    <use xlink:href="#DejaVuSans-435" transform="translate(4452.929688 0)"/>
    <use xlink:href="#DejaVuSans-43c" transform="translate(4514.453125 0)"/>
    <use xlink:href="#DejaVuSans-435" transform="translate(4589.892578 0)"/>
    <use xlink:href="#DejaVuSans-20" transform="translate(4651.416016 0)"/>
    <use xlink:href="#DejaVuSans-43a" transform="translate(4683.203125 0)"/>
    <use xlink:href="#DejaVuSans-43e" transform="translate(4743.603516 0)"/>
    <use xlink:href="#DejaVuSans-43e" transform="translate(4804.785156 0)"/>
    <use xlink:href="#DejaVuSans-440" transform="translate(4865.966797 0)"/>
    <use xlink:href="#DejaVuSans-434" transform="translate(4929.443359 0)"/>
    <use xlink:href="#DejaVuSans-438" transform="translate(4998.583984 0)"/>
    <use xlink:href="#DejaVuSans-43d" transform="translate(5063.574219 0)"/>
    <use xlink:href="#DejaVuSans-430" transform="translate(5128.955078 0)"/>
    <use xlink:href="#DejaVuSans-442" transform="translate(5190.234375 0)"/>
    <use xlink:href="#DejaVuSans-20" transform="translate(5248.486328 0)"/>
    <use xlink:href="#DejaVuSans-438" transform="translate(5280.273438 0)"/>
    <use xlink:href="#DejaVuSans-20" transform="translate(5345.263672 0)"/>
    <use xlink:href="#DejaVuSans-43d" transform="translate(5377.050781 0)"/>
    <use xlink:href="#DejaVuSans-435" transform="translate(5442.431641 0)"/>
    <use xlink:href="#DejaVuSans-20" transform="translate(5503.955078 0)"/>
    <use xlink:href="#DejaVuSans-434" transform="translate(5535.742188 0)"/>
    <use xlink:href="#DejaVuSans-43e" transform="translate(5604.882812 0)"/>
    <use xlink:href="#DejaVuSans-43b" transform="translate(5666.064453 0)"/>
    <use xlink:href="#DejaVuSans-436" transform="translate(5729.980469 0)"/>
    <use xlink:href="#DejaVuSans-435" transform="translate(5820.068359 0)"/>
    <use xlink:href="#DejaVuSans-43d" transform="translate(5881.591797 0)"/>
    <use xlink:href="#DejaVuSans-20" transform="translate(5946.972656 0)"/>
    <use xlink:href="#DejaVuSans-430" transform="translate(5978.759766 0)"/>
    <use xlink:href="#DejaVuSans-432" transform="translate(6040.039062 0)"/>
    <use xlink:href="#DejaVuSans-442" transform="translate(6098.974609 0)"/>
    <use xlink:href="#DejaVuSans-43e" transform="translate(6157.226562 0)"/>
    <use xlink:href="#DejaVuSans-43c" transform="translate(6218.408203 0)"/>
    <use xlink:href="#DejaVuSans-430" transform="translate(6293.847656 0)"/>
    <use xlink:href="#DejaVuSans-442" transform="translate(6355.126953 0)"/>
    <use xlink:href="#DejaVuSans-438" transform="translate(6413.378906 0)"/>
    <use xlink:href="#DejaVuSans-447" transform="translate(6478.369141 0)"/>
    <use xlink:href="#DejaVuSans-435" transform="translate(6537.451172 0)"/>
    <use xlink:href="#DejaVuSans-441" transform="translate(6598.974609 0)"/>
    <use xlink:href="#DejaVuSans-43a" transform="translate(6653.955078 0)"/>
    <use xlink:href="#DejaVuSans-438" transform="translate(6714.355469 0)"/>
    <use xlink:href="#DejaVuSans-20" transform="translate(6779.345703 0)"/>
    <use xlink:href="#DejaVuSans-442" transform="translate(6811.132812 0)"/>
    <use xlink:href="#DejaVuSans-440" transform="translate(6869.384766 0)"/>
    <use xlink:href="#DejaVuSans-430" transform="translate(6932.861328 0)"/>
    <use xlink:href="#DejaVuSans-43a" transform="translate(6994.140625 0)"/>
    <use xlink:href="#DejaVuSans-442" transform="translate(7054.541016 0)"/>
    <use xlink:href="#DejaVuSans-43e" transform="translate(7112.792969 0)"/>
    <use xlink:href="#DejaVuSans-432" transform="translate(7173.974609 0)"/>
    <use xlink:href="#DejaVuSans-430" transform="translate(7232.910156 0)"/>
    <use xlink:href="#DejaVuSans-442" transform="translate(7294.189453 0)"/>
    <use xlink:href="#DejaVuSans-44c" transform="translate(7352.441406 0)"/>
    <use xlink:href="#DejaVuSans-441" transform="translate(7411.376953 0)"/>
    <use xlink:href="#DejaVuSans-44f" transform="translate(7466.357422 0)"/>
    <use xlink:href="#DejaVuSans-20" transform="translate(7526.513672 0)"/>
    <use xlink:href="#DejaVuSans-43a" transform="translate(7558.300781 0)"/>
    <use xlink:href="#DejaVuSans-430" transform="translate(7618.701172 0)"/>
    <use xlink:href="#DejaVuSans-43a" transform="translate(7679.980469 0)"/>
    <use xlink:href="#DejaVuSans-20" transform="translate(7740.380859 0)"/>
    <use xlink:href="#DejaVuSans-433" transform="translate(7772.167969 0)"/>
    <use xlink:href="#DejaVuSans-43e" transform="translate(7824.707031 0)"/>
    <use xlink:href="#DejaVuSans-442" transform="translate(7885.888672 0)"/>
    <use xlink:href="#DejaVuSans-43e" transform="translate(7944.140625 0)"/>
    <use xlink:href="#DejaVuSans-432" transform="translate(8005.322266 0)"/>
    <use xlink:href="#DejaVuSans-430" transform="translate(8064.257812 0)"/>
    <use xlink:href="#DejaVuSans-44f" transform="translate(8125.537109 0)"/>
    <use xlink:href="#DejaVuSans-20" transform="translate(8185.693359 0)"/>
    <use xlink:href="#DejaVuSans-444" transform="translate(8217.480469 0)"/>
    <use xlink:href="#DejaVuSans-438" transform="translate(8302.978516 0)"/>
    <use xlink:href="#DejaVuSans-437" transform="translate(8367.96875 0)"/>
    <use xlink:href="#DejaVuSans-438" transform="translate(8421.142578 0)"/>
    <use xlink:href="#DejaVuSans-447" transform="translate(8486.132812 0)"/>
    <use xlink:href="#DejaVuSans-435" transform="translate(8545.214844 0)"/>
    <use xlink:href="#DejaVuSans-441" transform="translate(8606.738281 0)"/>
    <use xlink:href="#DejaVuSans-43a" transform="translate(8661.71875 0)"/>
    <use xlink:href="#DejaVuSans-430" transform="translate(8722.119141 0)"/>
    <use xlink:href="#DejaVuSans-44f" transform="translate(8783.398438 0)"/>
    <use xlink:href="#DejaVuSans-20" transform="translate(8843.554688 0)"/>
    <use xlink:href="#DejaVuSans-43a" transform="translate(8875.341797 0)"/>
    <use xlink:href="#DejaVuSans-430" transform="translate(8935.742188 0)"/>
    <use xlink:href="#DejaVuSans-442" transform="translate(8997.021484 0)"/>
    <use xlink:href="#DejaVuSans-435" transform="translate(9055.273438 0)"/>
    <use xlink:href="#DejaVuSans-433" transform="translate(9116.796875 0)"/>
    <use xlink:href="#DejaVuSans-43e" transform="translate(9169.335938 0)"/>
    <use xlink:href="#DejaVuSans-440" transform="translate(9230.517578 0)"/>
    <use xlink:href="#DejaVuSans-438" transform="translate(9293.994141 0)"/>
    <use xlink:href="#DejaVuSans-44f" transform="translate(9358.984375 0)"/>
    <use xlink:href="#DejaVuSans-20" transform="translate(9419.140625 0)"/>
    <use xlink:href="#DejaVuSans-431" transform="translate(9450.927734 0)"/>
    <use xlink:href="#DejaVuSans-435" transform="translate(9512.597656 0)"/>
    <use xlink:href="#DejaVuSans-437" transform="translate(9574.121094 0)"/>
    <use xlink:href="#DejaVuSans-20" transform="translate(9627.294922 0)"/>
    <use xlink:href="#DejaVuSans-43f" transform="translate(9659.082031 0)"/>
    <use xlink:href="#DejaVuSans-43e" transform="translate(9724.462891 0)"/>
    <use xlink:href="#DejaVuSans-43b" transform="translate(9785.644531 0)"/>
    <use xlink:href="#DejaVuSans-435" transform="translate(9849.560547 0)"/>
    <use xlink:href="#DejaVuSans-432" transform="translate(9911.083984 0)"/>
    <use xlink:href="#DejaVuSans-43e" transform="translate(9970.019531 0)"/>
    <use xlink:href="#DejaVuSans-439" transform="translate(10031.201172 0)"/>
    <use xlink:href="#DejaVuSans-20" transform="translate(10096.191406 0)"/>
    <use xlink:href="#DejaVuSans-432" transform="translate(10127.978516 0)"/>
    <use xlink:href="#DejaVuSans-435" transform="translate(10186.914062 0)"/>
    <use xlink:href="#DejaVuSans-440" transform="translate(10248.4375 0)"/>
    <use xlink:href="#DejaVuSans-438" transform="translate(10311.914062 0)"/>
    <use xlink:href="#DejaVuSans-444" transform="translate(10376.904297 0)"/>
    <use xlink:href="#DejaVuSans-438" transform="translate(10462.402344 0)"/>
    <use xlink:href="#DejaVuSans-43a" transform="translate(10527.392578 0)"/>
    <use xlink:href="#DejaVuSans-430" transform="translate(10587.792969 0)"/>
    <use xlink:href="#DejaVuSans-446" transform="translate(10649.072266 0)"/>
    <use xlink:href="#DejaVuSans-438" transform="translate(10717.138672 0)"/>
    <use xlink:href="#DejaVuSans-438" transform="translate(10782.128906 0)"/>
    <use xlink:href="#DejaVuSans-2e" transform="translate(10847.119141 0)"/>
   </g>
  </g>
 </g>
 <defs>
  <clipPath id="p7b60e19759">
   <rect x="54.002" y="29.2625" width="694.33" height="340.903"/>
  </clipPath>
 </defs>
</svg>
