<?xml version="1.0" encoding="utf-8" standalone="no"?>
<!DOCTYPE svg PUBLIC "-//W3C//DTD SVG 1.1//EN"
  "http://www.w3.org/Graphics/SVG/1.1/DTD/svg11.dtd">
<svg xmlns:xlink="http://www.w3.org/1999/xlink" width="1138.172688pt" height="487.1232pt" viewBox="0 0 1138.172688 487.1232" xmlns="http://www.w3.org/2000/svg" version="1.1">
 <metadata>
  <rdf:RDF xmlns:dc="http://purl.org/dc/elements/1.1/" xmlns:cc="http://creativecommons.org/ns#" xmlns:rdf="http://www.w3.org/1999/02/22-rdf-syntax-ns#">
   <cc:Work>
    <dc:type rdf:resource="http://purl.org/dc/dcmitype/StillImage"/>
    <dc:date>2026-04-12T22:07:00.837156</dc:date>
    <dc:format>image/svg+xml</dc:format>
    <dc:creator>
     <cc:Agent>
      <dc:title>Matplotlib v3.10.1, https://matplotlib.org/</dc:title>
     </cc:Agent>
    </dc:creator>
   </cc:Work>
  </rdf:RDF>
 </metadata>
 <defs>
  <style type="text/css">*{stroke-linejoin: round; stroke-linecap: butt}</style>
 </defs>
 <g id="figure_1">
  <g id="patch_1">
   <path d="M 0 487.1232 
L 1138.172688 487.1232 
L 1138.172688 0 
L 0 0 
z
" style="fill: #ffffff"/>
  </g>
  <g id="axes_1">
   <g id="patch_2">
    <path d="M 124.68 401.9947 
L 888.493903 401.9947 
L 888.493903 60.5157 
L 124.68 60.5157 
z
" style="fill: #ffffff"/>
   </g>
   <g id="matplotlib.axis_1">
    <g id="xtick_1">
     <g id="line2d_1">
      <path d="M 156.531246 401.9947 
L 156.531246 60.5157 
" clip-path="url(#p7a1585576a)" style="fill: none; stroke: #d7dde5; stroke-opacity: 0.7; stroke-width: 0.8; stroke-linecap: square"/>
     </g>
     <g id="line2d_2">
      <defs>
       <path id="ma7766aed6a" d="M 0 0 
L 0 3.5 
" style="stroke: #000000; stroke-width: 0.8"/>
      </defs>
      <g>
       <use xlink:href="#ma7766aed6a" x="156.531246" y="401.9947" style="stroke: #000000; stroke-width: 0.8"/>
      </g>
     </g>
     <g id="text_1">
      <!-- 0 -->
      <g transform="translate(153.509058 416.213216) scale(0.095 -0.095)">
       <defs>
        <path id="DejaVuSans-30" d="M 2034 4250 
Q 1547 4250 1301 3770 
Q 1056 3291 1056 2328 
Q 1056 1369 1301 889 
Q 1547 409 2034 409 
Q 2525 409 2770 889 
Q 3016 1369 3016 2328 
Q 3016 3291 2770 3770 
Q 2525 4250 2034 4250 
z
M 2034 4750 
Q 2819 4750 3233 4129 
Q 3647 3509 3647 2328 
Q 3647 1150 3233 529 
Q 2819 -91 2034 -91 
Q 1250 -91 836 529 
Q 422 1150 422 2328 
Q 422 3509 836 4129 
Q 1250 4750 2034 4750 
z
" transform="scale(0.015625)"/>
       </defs>
       <use xlink:href="#DejaVuSans-30"/>
      </g>
     </g>
    </g>
    <g id="xtick_2">
     <g id="line2d_3">
      <path d="M 270.804481 401.9947 
L 270.804481 60.5157 
" clip-path="url(#p7a1585576a)" style="fill: none; stroke: #d7dde5; stroke-opacity: 0.7; stroke-width: 0.8; stroke-linecap: square"/>
     </g>
     <g id="line2d_4">
      <g>
       <use xlink:href="#ma7766aed6a" x="270.804481" y="401.9947" style="stroke: #000000; stroke-width: 0.8"/>
      </g>
     </g>
     <g id="text_2">
      <!-- 1 -->
      <g transform="translate(267.782294 416.213216) scale(0.095 -0.095)">
       <defs>
        <path id="DejaVuSans-31" d="M 794 531 
L 1825 531 
L 1825 4091 
L 703 3866 
L 703 4441 
L 1819 4666 
L 2450 4666 
L 2450 531 
L 3481 531 
L 3481 0 
L 794 0 
L 794 531 
z
" transform="scale(0.015625)"/>
       </defs>
       <use xlink:href="#DejaVuSans-31"/>
      </g>
     </g>
    </g>
    <g id="xtick_3">
     <g id="line2d_5">
      <path d="M 385.077716 401.9947 
L 385.077716 60.5157 
" clip-path="url(#p7a1585576a)" style="fill: none; stroke: #d7dde5; stroke-opacity: 0.7; stroke-width: 0.8; stroke-linecap: square"/>
     </g>
     <g id="line2d_6">
      <g>
       <use xlink:href="#ma7766aed6a" x="385.077716" y="401.9947" style="stroke: #000000; stroke-width: 0.8"/>
      </g>
     </g>
     <g id="text_3">
      <!-- 2 -->
      <g transform="translate(382.055529 416.213216) scale(0.095 -0.095)">
       <defs>
        <path id="DejaVuSans-32" d="M 1228 531 
L 3431 531 
L 3431 0 
L 469 0 
L 469 531 
Q 828 903 1448 1529 
Q 2069 2156 2228 2338 
Q 2531 2678 2651 2914 
Q 2772 3150 2772 3378 
Q 2772 3750 2511 3984 
Q 2250 4219 1831 4219 
Q 1534 4219 1204 4116 
Q 875 4013 500 3803 
L 500 4441 
Q 881 4594 1212 4672 
Q 1544 4750 1819 4750 
Q 2544 4750 2975 4387 
Q 3406 4025 3406 3419 
Q 3406 3131 3298 2873 
Q 3191 2616 2906 2266 
Q 2828 2175 2409 1742 
Q 1991 1309 1228 531 
z
" transform="scale(0.015625)"/>
       </defs>
       <use xlink:href="#DejaVuSans-32"/>
      </g>
     </g>
    </g>
    <g id="xtick_4">
     <g id="line2d_7">
      <path d="M 499.350952 401.9947 
L 499.350952 60.5157 
" clip-path="url(#p7a1585576a)" style="fill: none; stroke: #d7dde5; stroke-opacity: 0.7; stroke-width: 0.8; stroke-linecap: square"/>
     </g>
     <g id="line2d_8">
      <g>
       <use xlink:href="#ma7766aed6a" x="499.350952" y="401.9947" style="stroke: #000000; stroke-width: 0.8"/>
      </g>
     </g>
     <g id="text_4">
      <!-- 3 -->
      <g transform="translate(496.328764 416.213216) scale(0.095 -0.095)">
       <defs>
        <path id="DejaVuSans-33" d="M 2597 2516 
Q 3050 2419 3304 2112 
Q 3559 1806 3559 1356 
Q 3559 666 3084 287 
Q 2609 -91 1734 -91 
Q 1441 -91 1130 -33 
Q 819 25 488 141 
L 488 750 
Q 750 597 1062 519 
Q 1375 441 1716 441 
Q 2309 441 2620 675 
Q 2931 909 2931 1356 
Q 2931 1769 2642 2001 
Q 2353 2234 1838 2234 
L 1294 2234 
L 1294 2753 
L 1863 2753 
Q 2328 2753 2575 2939 
Q 2822 3125 2822 3475 
Q 2822 3834 2567 4026 
Q 2313 4219 1838 4219 
Q 1578 4219 1281 4162 
Q 984 4106 628 3988 
L 628 4550 
Q 988 4650 1302 4700 
Q 1616 4750 1894 4750 
Q 2613 4750 3031 4423 
Q 3450 4097 3450 3541 
Q 3450 3153 3228 2886 
Q 3006 2619 2597 2516 
z
" transform="scale(0.015625)"/>
       </defs>
       <use xlink:href="#DejaVuSans-33"/>
      </g>
     </g>
    </g>
    <g id="xtick_5">
     <g id="line2d_9">
      <path d="M 613.624187 401.9947 
L 613.624187 60.5157 
" clip-path="url(#p7a1585576a)" style="fill: none; stroke: #d7dde5; stroke-opacity: 0.7; stroke-width: 0.8; stroke-linecap: square"/>
     </g>
     <g id="line2d_10">
      <g>
       <use xlink:href="#ma7766aed6a" x="613.624187" y="401.9947" style="stroke: #000000; stroke-width: 0.8"/>
      </g>
     </g>
     <g id="text_5">
      <!-- 4 -->
      <g transform="translate(610.602 416.213216) scale(0.095 -0.095)">
       <defs>
        <path id="DejaVuSans-34" d="M 2419 4116 
L 825 1625 
L 2419 1625 
L 2419 4116 
z
M 2253 4666 
L 3047 4666 
L 3047 1625 
L 3713 1625 
L 3713 1100 
L 3047 1100 
L 3047 0 
L 2419 0 
L 2419 1100 
L 313 1100 
L 313 1709 
L 2253 4666 
z
" transform="scale(0.015625)"/>
       </defs>
       <use xlink:href="#DejaVuSans-34"/>
      </g>
     </g>
    </g>
    <g id="xtick_6">
     <g id="line2d_11">
      <path d="M 727.897422 401.9947 
L 727.897422 60.5157 
" clip-path="url(#p7a1585576a)" style="fill: none; stroke: #d7dde5; stroke-opacity: 0.7; stroke-width: 0.8; stroke-linecap: square"/>
     </g>
     <g id="line2d_12">
      <g>
       <use xlink:href="#ma7766aed6a" x="727.897422" y="401.9947" style="stroke: #000000; stroke-width: 0.8"/>
      </g>
     </g>
     <g id="text_6">
      <!-- 5 -->
      <g transform="translate(724.875235 416.213216) scale(0.095 -0.095)">
       <defs>
        <path id="DejaVuSans-35" d="M 691 4666 
L 3169 4666 
L 3169 4134 
L 1269 4134 
L 1269 2991 
Q 1406 3038 1543 3061 
Q 1681 3084 1819 3084 
Q 2600 3084 3056 2656 
Q 3513 2228 3513 1497 
Q 3513 744 3044 326 
Q 2575 -91 1722 -91 
Q 1428 -91 1123 -41 
Q 819 9 494 109 
L 494 744 
Q 775 591 1075 516 
Q 1375 441 1709 441 
Q 2250 441 2565 725 
Q 2881 1009 2881 1497 
Q 2881 1984 2565 2268 
Q 2250 2553 1709 2553 
Q 1456 2553 1204 2497 
Q 953 2441 691 2322 
L 691 4666 
z
" transform="scale(0.015625)"/>
       </defs>
       <use xlink:href="#DejaVuSans-35"/>
      </g>
     </g>
    </g>
    <g id="xtick_7">
     <g id="line2d_13">
      <path d="M 842.170658 401.9947 
L 842.170658 60.5157 
" clip-path="url(#p7a1585576a)" style="fill: none; stroke: #d7dde5; stroke-opacity: 0.7; stroke-width: 0.8; stroke-linecap: square"/>
     </g>
     <g id="line2d_14">
      <g>
       <use xlink:href="#ma7766aed6a" x="842.170658" y="401.9947" style="stroke: #000000; stroke-width: 0.8"/>
      </g>
     </g>
     <g id="text_7">
      <!-- 6 -->
      <g transform="translate(839.14847 416.213216) scale(0.095 -0.095)">
       <defs>
        <path id="DejaVuSans-36" d="M 2113 2584 
Q 1688 2584 1439 2293 
Q 1191 2003 1191 1497 
Q 1191 994 1439 701 
Q 1688 409 2113 409 
Q 2538 409 2786 701 
Q 3034 994 3034 1497 
Q 3034 2003 2786 2293 
Q 2538 2584 2113 2584 
z
M 3366 4563 
L 3366 3988 
Q 3128 4100 2886 4159 
Q 2644 4219 2406 4219 
Q 1781 4219 1451 3797 
Q 1122 3375 1075 2522 
Q 1259 2794 1537 2939 
Q 1816 3084 2150 3084 
Q 2853 3084 3261 2657 
Q 3669 2231 3669 1497 
Q 3669 778 3244 343 
Q 2819 -91 2113 -91 
Q 1303 -91 875 529 
Q 447 1150 447 2328 
Q 447 3434 972 4092 
Q 1497 4750 2381 4750 
Q 2619 4750 2861 4703 
Q 3103 4656 3366 4563 
z
" transform="scale(0.015625)"/>
       </defs>
       <use xlink:href="#DejaVuSans-36"/>
      </g>
     </g>
    </g>
    <g id="text_8">
     <!-- Абсолютная интенсивность смещения бровки, м/год -->
     <g transform="translate(353.008045 430.734544) scale(0.11 -0.11)">
      <defs>
       <path id="DejaVuSans-410" d="M 2188 4044 
L 1331 1722 
L 3047 1722 
L 2188 4044 
z
M 1831 4666 
L 2547 4666 
L 4325 0 
L 3669 0 
L 3244 1197 
L 1141 1197 
L 716 0 
L 50 0 
L 1831 4666 
z
" transform="scale(0.015625)"/>
       <path id="DejaVuSans-431" d="M 1991 3584 
Q 2741 3584 3169 3096 
Q 3597 2609 3597 1747 
Q 3597 888 3169 398 
Q 2741 -91 1991 -91 
Q 1238 -91 822 384 
Q 406 859 384 1747 
L 366 2463 
Q 350 2834 350 2963 
Q 350 3463 531 3831 
Q 816 4409 1308 4659 
Q 1800 4909 2625 4916 
Q 3006 4919 3175 4972 
L 3334 4516 
Q 3181 4453 3041 4450 
L 2259 4397 
Q 1866 4369 1628 4231 
Q 1006 3866 947 3388 
L 925 3213 
Q 1331 3584 1991 3584 
z
M 1991 3097 
Q 1528 3097 1259 2736 
Q 991 2375 991 1747 
Q 991 1119 1258 758 
Q 1525 397 1991 397 
Q 2450 397 2719 759 
Q 2988 1122 2988 1747 
Q 2988 2369 2719 2733 
Q 2450 3097 1991 3097 
z
" transform="scale(0.015625)"/>
       <path id="DejaVuSans-441" d="M 3122 3366 
L 3122 2828 
Q 2878 2963 2633 3030 
Q 2388 3097 2138 3097 
Q 1578 3097 1268 2742 
Q 959 2388 959 1747 
Q 959 1106 1268 751 
Q 1578 397 2138 397 
Q 2388 397 2633 464 
Q 2878 531 3122 666 
L 3122 134 
Q 2881 22 2623 -34 
Q 2366 -91 2075 -91 
Q 1284 -91 818 406 
Q 353 903 353 1747 
Q 353 2603 823 3093 
Q 1294 3584 2113 3584 
Q 2378 3584 2631 3529 
Q 2884 3475 3122 3366 
z
" transform="scale(0.015625)"/>
       <path id="DejaVuSans-43e" d="M 1959 3097 
Q 1497 3097 1228 2736 
Q 959 2375 959 1747 
Q 959 1119 1226 758 
Q 1494 397 1959 397 
Q 2419 397 2687 759 
Q 2956 1122 2956 1747 
Q 2956 2369 2687 2733 
Q 2419 3097 1959 3097 
z
M 1959 3584 
Q 2709 3584 3137 3096 
Q 3566 2609 3566 1747 
Q 3566 888 3137 398 
Q 2709 -91 1959 -91 
Q 1206 -91 779 398 
Q 353 888 353 1747 
Q 353 2609 779 3096 
Q 1206 3584 1959 3584 
z
" transform="scale(0.015625)"/>
       <path id="DejaVuSans-43b" d="M 238 0 
L 238 478 
Q 806 566 981 959 
Q 1194 1513 1194 2928 
L 1194 3500 
L 3559 3500 
L 3559 0 
L 2984 0 
L 2984 3041 
L 1769 3041 
L 1769 2694 
Q 1769 1344 1494 738 
Q 1200 91 238 0 
z
" transform="scale(0.015625)"/>
       <path id="DejaVuSans-44e" d="M 3431 3097 
Q 2969 3097 2700 2736 
Q 2431 2375 2431 1747 
Q 2431 1119 2698 758 
Q 2966 397 3431 397 
Q 3891 397 4159 759 
Q 4428 1122 4428 1747 
Q 4428 2369 4159 2733 
Q 3891 3097 3431 3097 
z
M 1844 2103 
Q 1903 2697 2292 3140 
Q 2681 3584 3431 3584 
Q 4181 3584 4609 3096 
Q 5038 2609 5038 1747 
Q 5038 888 4609 398 
Q 4181 -91 3431 -91 
Q 2678 -91 2267 381 
Q 1856 853 1828 1628 
L 1178 1628 
L 1178 0 
L 603 0 
L 603 3500 
L 1178 3500 
L 1178 2103 
L 1844 2103 
z
" transform="scale(0.015625)"/>
       <path id="DejaVuSans-442" d="M 188 3500 
L 3541 3500 
L 3541 3041 
L 2147 3041 
L 2147 0 
L 1581 0 
L 1581 3041 
L 188 3041 
L 188 3500 
z
" transform="scale(0.015625)"/>
       <path id="DejaVuSans-43d" d="M 581 3500 
L 1159 3500 
L 1159 2072 
L 3025 2072 
L 3025 3500 
L 3603 3500 
L 3603 0 
L 3025 0 
L 3025 1613 
L 1159 1613 
L 1159 0 
L 581 0 
L 581 3500 
z
" transform="scale(0.015625)"/>
       <path id="DejaVuSans-430" d="M 2194 1759 
Q 1497 1759 1228 1600 
Q 959 1441 959 1056 
Q 959 750 1161 570 
Q 1363 391 1709 391 
Q 2188 391 2477 730 
Q 2766 1069 2766 1631 
L 2766 1759 
L 2194 1759 
z
M 3341 1997 
L 3341 0 
L 2766 0 
L 2766 531 
Q 2569 213 2275 61 
Q 1981 -91 1556 -91 
Q 1019 -91 701 211 
Q 384 513 384 1019 
Q 384 1609 779 1909 
Q 1175 2209 1959 2209 
L 2766 2209 
L 2766 2266 
Q 2766 2663 2505 2880 
Q 2244 3097 1772 3097 
Q 1472 3097 1187 3025 
Q 903 2953 641 2809 
L 641 3341 
Q 956 3463 1253 3523 
Q 1550 3584 1831 3584 
Q 2591 3584 2966 3190 
Q 3341 2797 3341 1997 
z
" transform="scale(0.015625)"/>
       <path id="DejaVuSans-44f" d="M 1181 2491 
Q 1181 2231 1381 2084 
Q 1581 1938 1953 1938 
L 2728 1938 
L 2728 3041 
L 1953 3041 
Q 1581 3041 1381 2897 
Q 1181 2753 1181 2491 
z
M 363 0 
L 1431 1534 
Q 1069 1616 828 1830 
Q 588 2044 588 2491 
Q 588 2997 923 3248 
Q 1259 3500 1938 3500 
L 3306 3500 
L 3306 0 
L 2728 0 
L 2728 1478 
L 2013 1478 
L 981 0 
L 363 0 
z
" transform="scale(0.015625)"/>
       <path id="DejaVuSans-20" transform="scale(0.015625)"/>
       <path id="DejaVuSans-438" d="M 3578 3500 
L 3578 0 
L 3006 0 
L 3006 2809 
L 1319 0 
L 581 0 
L 581 3500 
L 1153 3500 
L 1153 697 
L 2838 3500 
L 3578 3500 
z
" transform="scale(0.015625)"/>
       <path id="DejaVuSans-435" d="M 3597 1894 
L 3597 1613 
L 953 1613 
Q 991 1019 1311 708 
Q 1631 397 2203 397 
Q 2534 397 2845 478 
Q 3156 559 3463 722 
L 3463 178 
Q 3153 47 2828 -22 
Q 2503 -91 2169 -91 
Q 1331 -91 842 396 
Q 353 884 353 1716 
Q 353 2575 817 3079 
Q 1281 3584 2069 3584 
Q 2775 3584 3186 3129 
Q 3597 2675 3597 1894 
z
M 3022 2063 
Q 3016 2534 2758 2815 
Q 2500 3097 2075 3097 
Q 1594 3097 1305 2825 
Q 1016 2553 972 2059 
L 3022 2063 
z
" transform="scale(0.015625)"/>
       <path id="DejaVuSans-432" d="M 1156 1613 
L 1156 459 
L 1975 459 
Q 2369 459 2575 607 
Q 2781 756 2781 1038 
Q 2781 1319 2575 1466 
Q 2369 1613 1975 1613 
L 1156 1613 
z
M 1156 3041 
L 1156 2072 
L 1913 2072 
Q 2238 2072 2444 2201 
Q 2650 2331 2650 2563 
Q 2650 2794 2444 2917 
Q 2238 3041 1913 3041 
L 1156 3041 
z
M 581 3500 
L 1950 3500 
Q 2566 3500 2897 3275 
Q 3228 3050 3228 2634 
Q 3228 2313 3059 2123 
Q 2891 1934 2559 1888 
Q 2956 1813 3175 1575 
Q 3394 1338 3394 981 
Q 3394 513 3033 256 
Q 2672 0 2003 0 
L 581 0 
L 581 3500 
z
" transform="scale(0.015625)"/>
       <path id="DejaVuSans-44c" d="M 2781 1038 
Q 2781 1319 2576 1466 
Q 2372 1613 1978 1613 
L 1159 1613 
L 1159 459 
L 1978 459 
Q 2372 459 2576 607 
Q 2781 756 2781 1038 
z
M 581 3500 
L 1159 3500 
L 1159 2072 
L 2003 2072 
Q 2672 2072 3033 1817 
Q 3394 1563 3394 1038 
Q 3394 513 3033 256 
Q 2672 0 2003 0 
L 581 0 
L 581 3500 
z
" transform="scale(0.015625)"/>
       <path id="DejaVuSans-43c" d="M 581 3500 
L 1422 3500 
L 2416 1156 
L 3413 3500 
L 4247 3500 
L 4247 0 
L 3669 0 
L 3669 2950 
L 2703 672 
L 2128 672 
L 1159 2950 
L 1159 0 
L 581 0 
L 581 3500 
z
" transform="scale(0.015625)"/>
       <path id="DejaVuSans-449" d="M 5275 0 
L 581 0 
L 581 3500 
L 1159 3500 
L 1159 459 
L 2638 459 
L 2638 3500 
L 3216 3500 
L 3216 459 
L 4697 459 
L 4697 3500 
L 5275 3500 
L 5275 459 
L 5734 459 
L 5734 -884 
L 5275 -884 
L 5275 0 
z
" transform="scale(0.015625)"/>
       <path id="DejaVuSans-440" d="M 1159 525 
L 1159 -1331 
L 581 -1331 
L 581 3500 
L 1159 3500 
L 1159 2969 
Q 1341 3281 1617 3432 
Q 1894 3584 2278 3584 
Q 2916 3584 3314 3078 
Q 3713 2572 3713 1747 
Q 3713 922 3314 415 
Q 2916 -91 2278 -91 
Q 1894 -91 1617 61 
Q 1341 213 1159 525 
z
M 3116 1747 
Q 3116 2381 2855 2742 
Q 2594 3103 2138 3103 
Q 1681 3103 1420 2742 
Q 1159 2381 1159 1747 
Q 1159 1113 1420 752 
Q 1681 391 2138 391 
Q 2594 391 2855 752 
Q 3116 1113 3116 1747 
z
" transform="scale(0.015625)"/>
       <path id="DejaVuSans-43a" d="M 581 3500 
L 1153 3500 
L 1153 1856 
L 2775 3500 
L 3481 3500 
L 2144 2147 
L 3653 0 
L 3009 0 
L 1769 1766 
L 1153 1141 
L 1153 0 
L 581 0 
L 581 3500 
z
" transform="scale(0.015625)"/>
       <path id="DejaVuSans-2c" d="M 750 794 
L 1409 794 
L 1409 256 
L 897 -744 
L 494 -744 
L 750 256 
L 750 794 
z
" transform="scale(0.015625)"/>
       <path id="DejaVuSans-2f" d="M 1625 4666 
L 2156 4666 
L 531 -594 
L 0 -594 
L 1625 4666 
z
" transform="scale(0.015625)"/>
       <path id="DejaVuSans-433" d="M 581 0 
L 581 3500 
L 3050 3500 
L 3050 3041 
L 1159 3041 
L 1159 0 
L 581 0 
z
" transform="scale(0.015625)"/>
       <path id="DejaVuSans-434" d="M 1384 459 
L 3053 459 
L 3053 3041 
L 1844 3041 
L 1844 2603 
Q 1844 1316 1475 628 
L 1384 459 
z
M 550 459 
Q 834 584 959 850 
Q 1266 1509 1266 2838 
L 1266 3500 
L 3631 3500 
L 3631 459 
L 4091 459 
L 4091 -884 
L 3631 -884 
L 3631 0 
L 794 0 
L 794 -884 
L 334 -884 
L 334 459 
L 550 459 
z
" transform="scale(0.015625)"/>
      </defs>
      <use xlink:href="#DejaVuSans-410"/>
      <use xlink:href="#DejaVuSans-431" transform="translate(68.408203 0)"/>
      <use xlink:href="#DejaVuSans-441" transform="translate(130.078125 0)"/>
      <use xlink:href="#DejaVuSans-43e" transform="translate(185.058594 0)"/>
      <use xlink:href="#DejaVuSans-43b" transform="translate(246.240234 0)"/>
      <use xlink:href="#DejaVuSans-44e" transform="translate(310.15625 0)"/>
      <use xlink:href="#DejaVuSans-442" transform="translate(394.335938 0)"/>
      <use xlink:href="#DejaVuSans-43d" transform="translate(452.587891 0)"/>
      <use xlink:href="#DejaVuSans-430" transform="translate(517.96875 0)"/>
      <use xlink:href="#DejaVuSans-44f" transform="translate(579.248047 0)"/>
      <use xlink:href="#DejaVuSans-20" transform="translate(639.404297 0)"/>
      <use xlink:href="#DejaVuSans-438" transform="translate(671.191406 0)"/>
      <use xlink:href="#DejaVuSans-43d" transform="translate(736.181641 0)"/>
      <use xlink:href="#DejaVuSans-442" transform="translate(801.5625 0)"/>
      <use xlink:href="#DejaVuSans-435" transform="translate(859.814453 0)"/>
      <use xlink:href="#DejaVuSans-43d" transform="translate(921.337891 0)"/>
      <use xlink:href="#DejaVuSans-441" transform="translate(986.71875 0)"/>
      <use xlink:href="#DejaVuSans-438" transform="translate(1041.699219 0)"/>
      <use xlink:href="#DejaVuSans-432" transform="translate(1106.689453 0)"/>
      <use xlink:href="#DejaVuSans-43d" transform="translate(1165.625 0)"/>
      <use xlink:href="#DejaVuSans-43e" transform="translate(1231.005859 0)"/>
      <use xlink:href="#DejaVuSans-441" transform="translate(1292.1875 0)"/>
      <use xlink:href="#DejaVuSans-442" transform="translate(1347.167969 0)"/>
      <use xlink:href="#DejaVuSans-44c" transform="translate(1405.419922 0)"/>
      <use xlink:href="#DejaVuSans-20" transform="translate(1464.355469 0)"/>
      <use xlink:href="#DejaVuSans-441" transform="translate(1496.142578 0)"/>
      <use xlink:href="#DejaVuSans-43c" transform="translate(1551.123047 0)"/>
      <use xlink:href="#DejaVuSans-435" transform="translate(1626.5625 0)"/>
      <use xlink:href="#DejaVuSans-449" transform="translate(1688.085938 0)"/>
      <use xlink:href="#DejaVuSans-435" transform="translate(1782.275391 0)"/>
      <use xlink:href="#DejaVuSans-43d" transform="translate(1843.798828 0)"/>
      <use xlink:href="#DejaVuSans-438" transform="translate(1909.179688 0)"/>
      <use xlink:href="#DejaVuSans-44f" transform="translate(1974.169922 0)"/>
      <use xlink:href="#DejaVuSans-20" transform="translate(2034.326172 0)"/>
      <use xlink:href="#DejaVuSans-431" transform="translate(2066.113281 0)"/>
      <use xlink:href="#DejaVuSans-440" transform="translate(2127.783203 0)"/>
      <use xlink:href="#DejaVuSans-43e" transform="translate(2191.259766 0)"/>
      <use xlink:href="#DejaVuSans-432" transform="translate(2252.441406 0)"/>
      <use xlink:href="#DejaVuSans-43a" transform="translate(2311.376953 0)"/>
      <use xlink:href="#DejaVuSans-438" transform="translate(2371.777344 0)"/>
      <use xlink:href="#DejaVuSans-2c" transform="translate(2436.767578 0)"/>
      <use xlink:href="#DejaVuSans-20" transform="translate(2468.554688 0)"/>
      <use xlink:href="#DejaVuSans-43c" transform="translate(2500.341797 0)"/>
      <use xlink:href="#DejaVuSans-2f" transform="translate(2575.78125 0)"/>
      <use xlink:href="#DejaVuSans-433" transform="translate(2609.472656 0)"/>
      <use xlink:href="#DejaVuSans-43e" transform="translate(2662.011719 0)"/>
      <use xlink:href="#DejaVuSans-434" transform="translate(2723.193359 0)"/>
     </g>
    </g>
   </g>
   <g id="matplotlib.axis_2">
    <g id="ytick_1">
     <g id="line2d_15"/>
     <g id="text_9">
      <!-- Новоникольское -->
      <g transform="translate(38.583438 79.646731) scale(0.095 -0.095)">
       <defs>
        <path id="DejaVuSans-41d" d="M 628 4666 
L 1259 4666 
L 1259 2753 
L 3553 2753 
L 3553 4666 
L 4184 4666 
L 4184 0 
L 3553 0 
L 3553 2222 
L 1259 2222 
L 1259 0 
L 628 0 
L 628 4666 
z
" transform="scale(0.015625)"/>
       </defs>
       <use xlink:href="#DejaVuSans-41d"/>
       <use xlink:href="#DejaVuSans-43e" transform="translate(75.195312 0)"/>
       <use xlink:href="#DejaVuSans-432" transform="translate(136.376953 0)"/>
       <use xlink:href="#DejaVuSans-43e" transform="translate(195.3125 0)"/>
       <use xlink:href="#DejaVuSans-43d" transform="translate(256.494141 0)"/>
       <use xlink:href="#DejaVuSans-438" transform="translate(321.875 0)"/>
       <use xlink:href="#DejaVuSans-43a" transform="translate(386.865234 0)"/>
       <use xlink:href="#DejaVuSans-43e" transform="translate(447.265625 0)"/>
       <use xlink:href="#DejaVuSans-43b" transform="translate(508.447266 0)"/>
       <use xlink:href="#DejaVuSans-44c" transform="translate(572.363281 0)"/>
       <use xlink:href="#DejaVuSans-441" transform="translate(631.298828 0)"/>
       <use xlink:href="#DejaVuSans-43a" transform="translate(686.279297 0)"/>
       <use xlink:href="#DejaVuSans-43e" transform="translate(746.679688 0)"/>
       <use xlink:href="#DejaVuSans-435" transform="translate(807.861328 0)"/>
      </g>
     </g>
    </g>
    <g id="ytick_2">
     <g id="line2d_16"/>
     <g id="text_10">
      <!-- Нижний Балыклей -->
      <g transform="translate(27.983516 118.451162) scale(0.095 -0.095)">
       <defs>
        <path id="DejaVuSans-436" d="M 2597 3500 
L 3169 3500 
L 3169 1856 
L 4697 3500 
L 5366 3500 
L 4109 2153 
L 5547 0 
L 4931 0 
L 3753 1769 
L 3169 1141 
L 3169 0 
L 2597 0 
L 2597 1141 
L 2013 1769 
L 834 0 
L 219 0 
L 1656 2153 
L 400 3500 
L 1069 3500 
L 2597 1856 
L 2597 3500 
z
" transform="scale(0.015625)"/>
        <path id="DejaVuSans-439" d="M 3578 3500 
L 3578 0 
L 3006 0 
L 3006 2809 
L 1319 0 
L 581 0 
L 581 3500 
L 1153 3500 
L 1153 697 
L 2838 3500 
L 3578 3500 
z
M 1102 4833 
L 1471 4833 
Q 1505 4599 1656 4481 
Q 1808 4364 2080 4364 
Q 2349 4364 2499 4480 
Q 2649 4596 2689 4833 
L 3058 4833 
Q 3027 4386 2780 4161 
Q 2533 3936 2080 3936 
Q 1627 3936 1380 4161 
Q 1133 4386 1102 4833 
z
" transform="scale(0.015625)"/>
        <path id="DejaVuSans-411" d="M 3272 1372 
Q 3272 1806 3026 2017 
Q 2781 2228 2272 2228 
L 1259 2228 
L 1259 519 
L 2272 519 
Q 2781 519 3026 730 
Q 3272 941 3272 1372 
z
M 3609 4666 
L 3609 4147 
L 1259 4147 
L 1259 2747 
L 2303 2747 
Q 3088 2747 3513 2406 
Q 3938 2066 3938 1372 
Q 3938 681 3527 340 
Q 3116 0 2303 0 
L 628 0 
L 628 4666 
L 3609 4666 
z
" transform="scale(0.015625)"/>
        <path id="DejaVuSans-44b" d="M 3907 3500 
L 4482 3500 
L 4482 0 
L 3907 0 
L 3907 3500 
z
M 4195 3584 
L 4195 3584 
z
M 2781 1038 
Q 2781 1319 2576 1466 
Q 2372 1613 1978 1613 
L 1159 1613 
L 1159 459 
L 1978 459 
Q 2372 459 2576 607 
Q 2781 756 2781 1038 
z
M 581 3500 
L 1159 3500 
L 1159 2072 
L 2003 2072 
Q 2672 2072 3033 1817 
Q 3394 1563 3394 1038 
Q 3394 513 3033 256 
Q 2672 0 2003 0 
L 581 0 
L 581 3500 
z
" transform="scale(0.015625)"/>
       </defs>
       <use xlink:href="#DejaVuSans-41d"/>
       <use xlink:href="#DejaVuSans-438" transform="translate(75.195312 0)"/>
       <use xlink:href="#DejaVuSans-436" transform="translate(140.185547 0)"/>
       <use xlink:href="#DejaVuSans-43d" transform="translate(230.273438 0)"/>
       <use xlink:href="#DejaVuSans-438" transform="translate(295.654297 0)"/>
       <use xlink:href="#DejaVuSans-439" transform="translate(360.644531 0)"/>
       <use xlink:href="#DejaVuSans-20" transform="translate(425.634766 0)"/>
       <use xlink:href="#DejaVuSans-411" transform="translate(457.421875 0)"/>
       <use xlink:href="#DejaVuSans-430" transform="translate(526.025391 0)"/>
       <use xlink:href="#DejaVuSans-43b" transform="translate(587.304688 0)"/>
       <use xlink:href="#DejaVuSans-44b" transform="translate(651.220703 0)"/>
       <use xlink:href="#DejaVuSans-43a" transform="translate(730.175781 0)"/>
       <use xlink:href="#DejaVuSans-43b" transform="translate(790.576172 0)"/>
       <use xlink:href="#DejaVuSans-435" transform="translate(854.492188 0)"/>
       <use xlink:href="#DejaVuSans-439" transform="translate(916.015625 0)"/>
      </g>
     </g>
    </g>
    <g id="ytick_3">
     <g id="line2d_17"/>
     <g id="text_11">
      <!-- Бережновка -->
      <g transform="translate(59.198438 157.255594) scale(0.095 -0.095)">
       <use xlink:href="#DejaVuSans-411"/>
       <use xlink:href="#DejaVuSans-435" transform="translate(68.603516 0)"/>
       <use xlink:href="#DejaVuSans-440" transform="translate(130.126953 0)"/>
       <use xlink:href="#DejaVuSans-435" transform="translate(193.603516 0)"/>
       <use xlink:href="#DejaVuSans-436" transform="translate(255.126953 0)"/>
       <use xlink:href="#DejaVuSans-43d" transform="translate(345.214844 0)"/>
       <use xlink:href="#DejaVuSans-43e" transform="translate(410.595703 0)"/>
       <use xlink:href="#DejaVuSans-432" transform="translate(471.777344 0)"/>
       <use xlink:href="#DejaVuSans-43a" transform="translate(530.712891 0)"/>
       <use xlink:href="#DejaVuSans-430" transform="translate(591.113281 0)"/>
      </g>
     </g>
    </g>
    <g id="ytick_4">
     <g id="line2d_18"/>
     <g id="text_12">
      <!-- Молчановка -->
      <g transform="translate(60.480938 196.060026) scale(0.095 -0.095)">
       <defs>
        <path id="DejaVuSans-41c" d="M 628 4666 
L 1569 4666 
L 2759 1491 
L 3956 4666 
L 4897 4666 
L 4897 0 
L 4281 0 
L 4281 4097 
L 3078 897 
L 2444 897 
L 1241 4097 
L 1241 0 
L 628 0 
L 628 4666 
z
" transform="scale(0.015625)"/>
        <path id="DejaVuSans-447" d="M 2625 0 
L 2625 1472 
L 1553 1472 
Q 1075 1472 756 1769 
Q 469 2038 469 2613 
L 469 3500 
L 1044 3500 
L 1044 2666 
Q 1044 2300 1206 2116 
Q 1372 1931 1697 1931 
L 2625 1931 
L 2625 3500 
L 3200 3500 
L 3200 0 
L 2625 0 
z
" transform="scale(0.015625)"/>
       </defs>
       <use xlink:href="#DejaVuSans-41c"/>
       <use xlink:href="#DejaVuSans-43e" transform="translate(86.279297 0)"/>
       <use xlink:href="#DejaVuSans-43b" transform="translate(147.460938 0)"/>
       <use xlink:href="#DejaVuSans-447" transform="translate(211.376953 0)"/>
       <use xlink:href="#DejaVuSans-430" transform="translate(270.458984 0)"/>
       <use xlink:href="#DejaVuSans-43d" transform="translate(331.738281 0)"/>
       <use xlink:href="#DejaVuSans-43e" transform="translate(397.119141 0)"/>
       <use xlink:href="#DejaVuSans-432" transform="translate(458.300781 0)"/>
       <use xlink:href="#DejaVuSans-43a" transform="translate(517.236328 0)"/>
       <use xlink:href="#DejaVuSans-430" transform="translate(577.636719 0)"/>
      </g>
     </g>
    </g>
    <g id="ytick_5">
     <g id="line2d_19"/>
     <g id="text_13">
      <!-- Бурты -->
      <g transform="translate(89.973984 234.864458) scale(0.095 -0.095)">
       <defs>
        <path id="DejaVuSans-443" d="M 2059 -325 
Q 1816 -950 1584 -1140 
Q 1353 -1331 966 -1331 
L 506 -1331 
L 506 -850 
L 844 -850 
Q 1081 -850 1212 -737 
Q 1344 -625 1503 -206 
L 1606 56 
L 191 3500 
L 800 3500 
L 1894 763 
L 2988 3500 
L 3597 3500 
L 2059 -325 
z
" transform="scale(0.015625)"/>
       </defs>
       <use xlink:href="#DejaVuSans-411"/>
       <use xlink:href="#DejaVuSans-443" transform="translate(68.603516 0)"/>
       <use xlink:href="#DejaVuSans-440" transform="translate(127.783203 0)"/>
       <use xlink:href="#DejaVuSans-442" transform="translate(191.259766 0)"/>
       <use xlink:href="#DejaVuSans-44b" transform="translate(249.511719 0)"/>
      </g>
     </g>
    </g>
    <g id="ytick_6">
     <g id="line2d_20"/>
     <g id="text_14">
      <!-- Нижний Ураков -->
      <g transform="translate(42.934141 273.66889) scale(0.095 -0.095)">
       <defs>
        <path id="DejaVuSans-423" d="M 2047 566 
Q 1981 409 1881 291 
Q 1634 0 850 0 
L 609 0 
L 609 531 
L 806 531 
Q 1178 531 1322 616 
Q 1409 669 1466 800 
L 1606 1131 
L 109 4666 
L 788 4666 
L 1947 1928 
L 3113 4666 
L 3791 4666 
L 2047 566 
z
" transform="scale(0.015625)"/>
       </defs>
       <use xlink:href="#DejaVuSans-41d"/>
       <use xlink:href="#DejaVuSans-438" transform="translate(75.195312 0)"/>
       <use xlink:href="#DejaVuSans-436" transform="translate(140.185547 0)"/>
       <use xlink:href="#DejaVuSans-43d" transform="translate(230.273438 0)"/>
       <use xlink:href="#DejaVuSans-438" transform="translate(295.654297 0)"/>
       <use xlink:href="#DejaVuSans-439" transform="translate(360.644531 0)"/>
       <use xlink:href="#DejaVuSans-20" transform="translate(425.634766 0)"/>
       <use xlink:href="#DejaVuSans-423" transform="translate(457.421875 0)"/>
       <use xlink:href="#DejaVuSans-440" transform="translate(518.359375 0)"/>
       <use xlink:href="#DejaVuSans-430" transform="translate(581.835938 0)"/>
       <use xlink:href="#DejaVuSans-43a" transform="translate(643.115234 0)"/>
       <use xlink:href="#DejaVuSans-43e" transform="translate(703.515625 0)"/>
       <use xlink:href="#DejaVuSans-432" transform="translate(764.697266 0)"/>
      </g>
     </g>
    </g>
    <g id="ytick_7">
     <g id="line2d_21"/>
     <g id="text_15">
      <!-- Пичуга-Южный -->
      <g transform="translate(43.686719 312.473321) scale(0.095 -0.095)">
       <defs>
        <path id="DejaVuSans-41f" d="M 4184 4666 
L 4184 0 
L 3553 0 
L 3553 4134 
L 1259 4134 
L 1259 0 
L 628 0 
L 628 4666 
L 4184 4666 
z
" transform="scale(0.015625)"/>
        <path id="DejaVuSans-2d" d="M 313 2009 
L 1997 2009 
L 1997 1497 
L 313 1497 
L 313 2009 
z
" transform="scale(0.015625)"/>
        <path id="DejaVuSans-42e" d="M 4394 4238 
Q 3706 4238 3300 3725 
Q 2897 3213 2897 2328 
Q 2897 1447 3300 934 
Q 3706 422 4394 422 
Q 5081 422 5481 934 
Q 5884 1447 5884 2328 
Q 5884 3213 5481 3725 
Q 5081 4238 4394 4238 
z
M 2241 2597 
Q 2284 3472 2847 4113 
Q 3409 4750 4394 4750 
Q 5375 4750 5963 4094 
Q 6550 3434 6550 2328 
Q 6550 1225 5963 569 
Q 5375 -91 4394 -91 
Q 3409 -91 2847 550 
Q 2284 1191 2241 2066 
L 1291 2066 
L 1291 0 
L 659 0 
L 659 4666 
L 1291 4666 
L 1291 2597 
L 2241 2597 
z
" transform="scale(0.015625)"/>
       </defs>
       <use xlink:href="#DejaVuSans-41f"/>
       <use xlink:href="#DejaVuSans-438" transform="translate(75.195312 0)"/>
       <use xlink:href="#DejaVuSans-447" transform="translate(140.185547 0)"/>
       <use xlink:href="#DejaVuSans-443" transform="translate(199.267578 0)"/>
       <use xlink:href="#DejaVuSans-433" transform="translate(258.447266 0)"/>
       <use xlink:href="#DejaVuSans-430" transform="translate(310.986328 0)"/>
       <use xlink:href="#DejaVuSans-2d" transform="translate(372.265625 0)"/>
       <use xlink:href="#DejaVuSans-42e" transform="translate(408.349609 0)"/>
       <use xlink:href="#DejaVuSans-436" transform="translate(516.308594 0)"/>
       <use xlink:href="#DejaVuSans-43d" transform="translate(606.396484 0)"/>
       <use xlink:href="#DejaVuSans-44b" transform="translate(671.777344 0)"/>
       <use xlink:href="#DejaVuSans-439" transform="translate(750.732422 0)"/>
      </g>
     </g>
    </g>
    <g id="ytick_8">
     <g id="line2d_22"/>
     <g id="text_16">
      <!-- Пролейский -->
      <g transform="translate(60.791172 351.277753) scale(0.095 -0.095)">
       <use xlink:href="#DejaVuSans-41f"/>
       <use xlink:href="#DejaVuSans-440" transform="translate(75.195312 0)"/>
       <use xlink:href="#DejaVuSans-43e" transform="translate(138.671875 0)"/>
       <use xlink:href="#DejaVuSans-43b" transform="translate(199.853516 0)"/>
       <use xlink:href="#DejaVuSans-435" transform="translate(263.769531 0)"/>
       <use xlink:href="#DejaVuSans-439" transform="translate(325.292969 0)"/>
       <use xlink:href="#DejaVuSans-441" transform="translate(390.283203 0)"/>
       <use xlink:href="#DejaVuSans-43a" transform="translate(445.263672 0)"/>
       <use xlink:href="#DejaVuSans-438" transform="translate(505.664062 0)"/>
       <use xlink:href="#DejaVuSans-439" transform="translate(570.654297 0)"/>
      </g>
     </g>
    </g>
    <g id="ytick_9">
     <g id="line2d_23"/>
     <g id="text_17">
      <!-- Ураков Бугор -->
      <g transform="translate(54.392031 390.082185) scale(0.095 -0.095)">
       <use xlink:href="#DejaVuSans-423"/>
       <use xlink:href="#DejaVuSans-440" transform="translate(60.9375 0)"/>
       <use xlink:href="#DejaVuSans-430" transform="translate(124.414062 0)"/>
       <use xlink:href="#DejaVuSans-43a" transform="translate(185.693359 0)"/>
       <use xlink:href="#DejaVuSans-43e" transform="translate(246.09375 0)"/>
       <use xlink:href="#DejaVuSans-432" transform="translate(307.275391 0)"/>
       <use xlink:href="#DejaVuSans-20" transform="translate(366.210938 0)"/>
       <use xlink:href="#DejaVuSans-411" transform="translate(397.998047 0)"/>
       <use xlink:href="#DejaVuSans-443" transform="translate(466.601562 0)"/>
       <use xlink:href="#DejaVuSans-433" transform="translate(525.78125 0)"/>
       <use xlink:href="#DejaVuSans-43e" transform="translate(578.320312 0)"/>
       <use xlink:href="#DejaVuSans-440" transform="translate(639.501953 0)"/>
      </g>
     </g>
    </g>
    <g id="text_18">
     <!-- Участок -->
     <g transform="translate(21.695859 254.142075) rotate(-90) scale(0.11 -0.11)">
      <use xlink:href="#DejaVuSans-423"/>
      <use xlink:href="#DejaVuSans-447" transform="translate(60.9375 0)"/>
      <use xlink:href="#DejaVuSans-430" transform="translate(120.019531 0)"/>
      <use xlink:href="#DejaVuSans-441" transform="translate(181.298828 0)"/>
      <use xlink:href="#DejaVuSans-442" transform="translate(236.279297 0)"/>
      <use xlink:href="#DejaVuSans-43e" transform="translate(294.53125 0)"/>
      <use xlink:href="#DejaVuSans-43a" transform="translate(355.712891 0)"/>
     </g>
    </g>
   </g>
   <g id="LineCollection_1">
    <path d="M 577.827426 76.037473 
L 760.714098 76.037473 
" clip-path="url(#p7a1585576a)" style="fill: none; stroke: #8fa7c4; stroke-opacity: 0.95; stroke-width: 5"/>
    <path d="M 464.076608 114.841905 
L 696.691862 114.841905 
" clip-path="url(#p7a1585576a)" style="fill: none; stroke: #8fa7c4; stroke-opacity: 0.95; stroke-width: 5"/>
    <path d="M 339.774745 153.646336 
L 853.775089 153.646336 
" clip-path="url(#p7a1585576a)" style="fill: none; stroke: #8fa7c4; stroke-opacity: 0.95; stroke-width: 5"/>
    <path d="M 223.614318 192.450768 
L 363.041998 192.450768 
" clip-path="url(#p7a1585576a)" style="fill: none; stroke: #8fa7c4; stroke-opacity: 0.95; stroke-width: 5"/>
    <path d="M 189.361851 231.2552 
L 331.471171 231.2552 
" clip-path="url(#p7a1585576a)" style="fill: none; stroke: #8fa7c4; stroke-opacity: 0.95; stroke-width: 5"/>
    <path d="M 174.264587 270.059632 
L 285.946566 270.059632 
" clip-path="url(#p7a1585576a)" style="fill: none; stroke: #8fa7c4; stroke-opacity: 0.95; stroke-width: 5"/>
    <path d="M 165.493549 308.864064 
L 208.371572 308.864064 
" clip-path="url(#p7a1585576a)" style="fill: none; stroke: #8fa7c4; stroke-opacity: 0.95; stroke-width: 5"/>
    <path d="M 164.427681 347.668495 
L 347.980425 347.668495 
" clip-path="url(#p7a1585576a)" style="fill: none; stroke: #8fa7c4; stroke-opacity: 0.95; stroke-width: 5"/>
    <path d="M 159.398814 386.472927 
L 171.040413 386.472927 
" clip-path="url(#p7a1585576a)" style="fill: none; stroke: #8fa7c4; stroke-opacity: 0.95; stroke-width: 5"/>
   </g>
   <g id="patch_3">
    <path d="M 124.68 401.9947 
L 888.493903 401.9947 
" style="fill: none; stroke: #6f7680; stroke-width: 0.8; stroke-linejoin: miter; stroke-linecap: square"/>
   </g>
   <g id="PathCollection_1">
    <defs>
     <path id="m20378211e3" d="M 0 4.123106 
C 1.09346 4.123106 2.142283 3.688669 2.915476 2.915476 
C 3.688669 2.142283 4.123106 1.09346 4.123106 0 
C 4.123106 -1.09346 3.688669 -2.142283 2.915476 -2.915476 
C 2.142283 -3.688669 1.09346 -4.123106 0 -4.123106 
C -1.09346 -4.123106 -2.142283 -3.688669 -2.915476 -2.915476 
C -3.688669 -2.142283 -4.123106 -1.09346 -4.123106 0 
C -4.123106 1.09346 -3.688669 2.142283 -2.915476 2.915476 
C -2.142283 3.688669 -1.09346 4.123106 0 4.123106 
z
" style="stroke: #456d9c"/>
    </defs>
    <g clip-path="url(#p7a1585576a)">
     <use xlink:href="#m20378211e3" x="664.734683" y="76.037473" style="fill: #456d9c; stroke: #456d9c"/>
     <use xlink:href="#m20378211e3" x="585.194859" y="114.841905" style="fill: #456d9c; stroke: #456d9c"/>
     <use xlink:href="#m20378211e3" x="577.421885" y="153.646336" style="fill: #456d9c; stroke: #456d9c"/>
     <use xlink:href="#m20378211e3" x="289.494309" y="192.450768" style="fill: #456d9c; stroke: #456d9c"/>
     <use xlink:href="#m20378211e3" x="254.065615" y="231.2552" style="fill: #456d9c; stroke: #456d9c"/>
     <use xlink:href="#m20378211e3" x="217.394907" y="270.059632" style="fill: #456d9c; stroke: #456d9c"/>
     <use xlink:href="#m20378211e3" x="183.794276" y="308.864064" style="fill: #456d9c; stroke: #456d9c"/>
     <use xlink:href="#m20378211e3" x="183.243757" y="347.668495" style="fill: #456d9c; stroke: #456d9c"/>
     <use xlink:href="#m20378211e3" x="164.390939" y="386.472927" style="fill: #456d9c; stroke: #456d9c"/>
    </g>
   </g>
   <g id="text_19">
    <!-- n=56 -->
    <g style="fill: #5a6470" transform="translate(771.172755 78.465723) scale(0.088 -0.088)">
     <defs>
      <path id="DejaVuSans-6e" d="M 3513 2113 
L 3513 0 
L 2938 0 
L 2938 2094 
Q 2938 2591 2744 2837 
Q 2550 3084 2163 3084 
Q 1697 3084 1428 2787 
Q 1159 2491 1159 1978 
L 1159 0 
L 581 0 
L 581 3500 
L 1159 3500 
L 1159 2956 
Q 1366 3272 1645 3428 
Q 1925 3584 2291 3584 
Q 2894 3584 3203 3211 
Q 3513 2838 3513 2113 
z
" transform="scale(0.015625)"/>
      <path id="DejaVuSans-3d" d="M 678 2906 
L 4684 2906 
L 4684 2381 
L 678 2381 
L 678 2906 
z
M 678 1631 
L 4684 1631 
L 4684 1100 
L 678 1100 
L 678 1631 
z
" transform="scale(0.015625)"/>
     </defs>
     <use xlink:href="#DejaVuSans-6e"/>
     <use xlink:href="#DejaVuSans-3d" transform="translate(63.378906 0)"/>
     <use xlink:href="#DejaVuSans-35" transform="translate(147.167969 0)"/>
     <use xlink:href="#DejaVuSans-36" transform="translate(210.791016 0)"/>
    </g>
   </g>
   <g id="text_20">
    <!-- n=65 -->
    <g style="fill: #5a6470" transform="translate(707.15052 117.270155) scale(0.088 -0.088)">
     <use xlink:href="#DejaVuSans-6e"/>
     <use xlink:href="#DejaVuSans-3d" transform="translate(63.378906 0)"/>
     <use xlink:href="#DejaVuSans-36" transform="translate(147.167969 0)"/>
     <use xlink:href="#DejaVuSans-35" transform="translate(210.791016 0)"/>
    </g>
   </g>
   <g id="text_21">
    <!-- n=68 -->
    <g style="fill: #5a6470" transform="translate(864.233747 156.074586) scale(0.088 -0.088)">
     <defs>
      <path id="DejaVuSans-38" d="M 2034 2216 
Q 1584 2216 1326 1975 
Q 1069 1734 1069 1313 
Q 1069 891 1326 650 
Q 1584 409 2034 409 
Q 2484 409 2743 651 
Q 3003 894 3003 1313 
Q 3003 1734 2745 1975 
Q 2488 2216 2034 2216 
z
M 1403 2484 
Q 997 2584 770 2862 
Q 544 3141 544 3541 
Q 544 4100 942 4425 
Q 1341 4750 2034 4750 
Q 2731 4750 3128 4425 
Q 3525 4100 3525 3541 
Q 3525 3141 3298 2862 
Q 3072 2584 2669 2484 
Q 3125 2378 3379 2068 
Q 3634 1759 3634 1313 
Q 3634 634 3220 271 
Q 2806 -91 2034 -91 
Q 1263 -91 848 271 
Q 434 634 434 1313 
Q 434 1759 690 2068 
Q 947 2378 1403 2484 
z
M 1172 3481 
Q 1172 3119 1398 2916 
Q 1625 2713 2034 2713 
Q 2441 2713 2670 2916 
Q 2900 3119 2900 3481 
Q 2900 3844 2670 4047 
Q 2441 4250 2034 4250 
Q 1625 4250 1398 4047 
Q 1172 3844 1172 3481 
z
" transform="scale(0.015625)"/>
     </defs>
     <use xlink:href="#DejaVuSans-6e"/>
     <use xlink:href="#DejaVuSans-3d" transform="translate(63.378906 0)"/>
     <use xlink:href="#DejaVuSans-36" transform="translate(147.167969 0)"/>
     <use xlink:href="#DejaVuSans-38" transform="translate(210.791016 0)"/>
    </g>
   </g>
   <g id="text_22">
    <!-- n=68 -->
    <g style="fill: #5a6470" transform="translate(373.500655 194.879018) scale(0.088 -0.088)">
     <use xlink:href="#DejaVuSans-6e"/>
     <use xlink:href="#DejaVuSans-3d" transform="translate(63.378906 0)"/>
     <use xlink:href="#DejaVuSans-36" transform="translate(147.167969 0)"/>
     <use xlink:href="#DejaVuSans-38" transform="translate(210.791016 0)"/>
    </g>
   </g>
   <g id="text_23">
    <!-- n=71 -->
    <g style="fill: #5a6470" transform="translate(341.929828 233.68345) scale(0.088 -0.088)">
     <defs>
      <path id="DejaVuSans-37" d="M 525 4666 
L 3525 4666 
L 3525 4397 
L 1831 0 
L 1172 0 
L 2766 4134 
L 525 4134 
L 525 4666 
z
" transform="scale(0.015625)"/>
     </defs>
     <use xlink:href="#DejaVuSans-6e"/>
     <use xlink:href="#DejaVuSans-3d" transform="translate(63.378906 0)"/>
     <use xlink:href="#DejaVuSans-37" transform="translate(147.167969 0)"/>
     <use xlink:href="#DejaVuSans-31" transform="translate(210.791016 0)"/>
    </g>
   </g>
   <g id="text_24">
    <!-- n=82 -->
    <g style="fill: #5a6470" transform="translate(296.405224 272.487882) scale(0.088 -0.088)">
     <use xlink:href="#DejaVuSans-6e"/>
     <use xlink:href="#DejaVuSans-3d" transform="translate(63.378906 0)"/>
     <use xlink:href="#DejaVuSans-38" transform="translate(147.167969 0)"/>
     <use xlink:href="#DejaVuSans-32" transform="translate(210.791016 0)"/>
    </g>
   </g>
   <g id="text_25">
    <!-- n=40 -->
    <g style="fill: #5a6470" transform="translate(218.830229 311.292314) scale(0.088 -0.088)">
     <use xlink:href="#DejaVuSans-6e"/>
     <use xlink:href="#DejaVuSans-3d" transform="translate(63.378906 0)"/>
     <use xlink:href="#DejaVuSans-34" transform="translate(147.167969 0)"/>
     <use xlink:href="#DejaVuSans-30" transform="translate(210.791016 0)"/>
    </g>
   </g>
   <g id="text_26">
    <!-- n=65 -->
    <g style="fill: #5a6470" transform="translate(358.439082 350.096745) scale(0.088 -0.088)">
     <use xlink:href="#DejaVuSans-6e"/>
     <use xlink:href="#DejaVuSans-3d" transform="translate(63.378906 0)"/>
     <use xlink:href="#DejaVuSans-36" transform="translate(147.167969 0)"/>
     <use xlink:href="#DejaVuSans-35" transform="translate(210.791016 0)"/>
    </g>
   </g>
   <g id="text_27">
    <!-- n=60 -->
    <g style="fill: #5a6470" transform="translate(181.499071 388.901177) scale(0.088 -0.088)">
     <use xlink:href="#DejaVuSans-6e"/>
     <use xlink:href="#DejaVuSans-3d" transform="translate(63.378906 0)"/>
     <use xlink:href="#DejaVuSans-36" transform="translate(147.167969 0)"/>
     <use xlink:href="#DejaVuSans-30" transform="translate(210.791016 0)"/>
    </g>
   </g>
   <g id="text_28">
    <!-- Сравнение участков по беззнаковой интенсивности переформирования -->
    <g transform="translate(235.35617 54.5157) scale(0.13 -0.13)">
     <defs>
      <path id="DejaVuSans-Bold-421" d="M 4288 256 
Q 3956 84 3597 -3 
Q 3238 -91 2847 -91 
Q 1681 -91 1000 561 
Q 319 1213 319 2328 
Q 319 3447 1000 4098 
Q 1681 4750 2847 4750 
Q 3238 4750 3597 4662 
Q 3956 4575 4288 4403 
L 4288 3438 
Q 3953 3666 3628 3772 
Q 3303 3878 2944 3878 
Q 2300 3878 1931 3465 
Q 1563 3053 1563 2328 
Q 1563 1606 1931 1193 
Q 2300 781 2944 781 
Q 3303 781 3628 887 
Q 3953 994 4288 1222 
L 4288 256 
z
" transform="scale(0.015625)"/>
      <path id="DejaVuSans-Bold-440" d="M 1656 506 
L 1656 -1331 
L 538 -1331 
L 538 3500 
L 1656 3500 
L 1656 2988 
Q 1888 3294 2169 3439 
Q 2450 3584 2816 3584 
Q 3463 3584 3878 3070 
Q 4294 2556 4294 1747 
Q 4294 938 3878 423 
Q 3463 -91 2816 -91 
Q 2450 -91 2169 54 
Q 1888 200 1656 506 
z
M 2400 2772 
Q 2041 2772 1848 2508 
Q 1656 2244 1656 1747 
Q 1656 1250 1848 986 
Q 2041 722 2400 722 
Q 2759 722 2948 984 
Q 3138 1247 3138 1747 
Q 3138 2247 2948 2509 
Q 2759 2772 2400 2772 
z
" transform="scale(0.015625)"/>
      <path id="DejaVuSans-Bold-430" d="M 2106 1575 
Q 1756 1575 1579 1456 
Q 1403 1338 1403 1106 
Q 1403 894 1545 773 
Q 1688 653 1941 653 
Q 2256 653 2472 879 
Q 2688 1106 2688 1447 
L 2688 1575 
L 2106 1575 
z
M 3816 1997 
L 3816 0 
L 2688 0 
L 2688 519 
Q 2463 200 2181 54 
Q 1900 -91 1497 -91 
Q 953 -91 614 226 
Q 275 544 275 1050 
Q 275 1666 698 1953 
Q 1122 2241 2028 2241 
L 2688 2241 
L 2688 2328 
Q 2688 2594 2478 2717 
Q 2269 2841 1825 2841 
Q 1466 2841 1156 2769 
Q 847 2697 581 2553 
L 581 3406 
Q 941 3494 1303 3539 
Q 1666 3584 2028 3584 
Q 2975 3584 3395 3211 
Q 3816 2838 3816 1997 
z
" transform="scale(0.015625)"/>
      <path id="DejaVuSans-Bold-432" d="M 2184 2181 
Q 2378 2181 2478 2261 
Q 2578 2341 2578 2497 
Q 2578 2653 2478 2731 
Q 2378 2809 2184 2809 
L 1656 2809 
L 1656 2181 
L 2184 2181 
z
M 2222 700 
Q 2469 700 2594 798 
Q 2719 897 2719 1094 
Q 2719 1288 2594 1384 
Q 2469 1481 2222 1481 
L 1656 1481 
L 1656 700 
L 2222 700 
z
M 538 3500 
L 2141 3500 
Q 2919 3500 3267 3279 
Q 3616 3059 3616 2575 
Q 3616 2319 3487 2139 
Q 3359 1959 3119 1872 
Q 3428 1788 3598 1561 
Q 3769 1334 3769 1003 
Q 3769 497 3403 248 
Q 3038 0 2294 0 
L 538 0 
L 538 3500 
z
" transform="scale(0.015625)"/>
      <path id="DejaVuSans-Bold-43d" d="M 538 3500 
L 1656 3500 
L 1656 2169 
L 2766 2169 
L 2766 3500 
L 3884 3500 
L 3884 0 
L 2766 0 
L 2766 1478 
L 1656 1478 
L 1656 0 
L 538 0 
L 538 3500 
z
" transform="scale(0.015625)"/>
      <path id="DejaVuSans-Bold-435" d="M 4031 1759 
L 4031 1441 
L 1416 1441 
Q 1456 1047 1700 850 
Q 1944 653 2381 653 
Q 2734 653 3104 758 
Q 3475 863 3866 1075 
L 3866 213 
Q 3469 63 3072 -14 
Q 2675 -91 2278 -91 
Q 1328 -91 801 392 
Q 275 875 275 1747 
Q 275 2603 792 3093 
Q 1309 3584 2216 3584 
Q 3041 3584 3536 3087 
Q 4031 2591 4031 1759 
z
M 2881 2131 
Q 2881 2450 2695 2645 
Q 2509 2841 2209 2841 
Q 1884 2841 1681 2658 
Q 1478 2475 1428 2131 
L 2881 2131 
z
" transform="scale(0.015625)"/>
      <path id="DejaVuSans-Bold-438" d="M 3947 3500 
L 3947 0 
L 2828 0 
L 2828 1863 
L 1700 0 
L 538 0 
L 538 3500 
L 1656 3500 
L 1656 1638 
L 2784 3500 
L 3947 3500 
z
" transform="scale(0.015625)"/>
      <path id="DejaVuSans-Bold-20" transform="scale(0.015625)"/>
      <path id="DejaVuSans-Bold-443" d="M 78 3500 
L 1197 3500 
L 2138 1125 
L 2938 3500 
L 4056 3500 
L 2584 -331 
Q 2363 -916 2067 -1148 
Q 1772 -1381 1288 -1381 
L 641 -1381 
L 641 -647 
L 991 -647 
Q 1275 -647 1404 -556 
Q 1534 -466 1606 -231 
L 1638 -134 
L 78 3500 
z
" transform="scale(0.015625)"/>
      <path id="DejaVuSans-Bold-447" d="M 2550 0 
L 2550 1353 
L 1400 1353 
Q 931 1353 672 1629 
Q 413 1906 413 2450 
L 413 3500 
L 1531 3500 
L 1531 2878 
Q 1531 2322 1622 2183 
Q 1713 2044 1950 2044 
L 2550 2044 
L 2550 3500 
L 3669 3500 
L 3669 0 
L 2550 0 
z
" transform="scale(0.015625)"/>
      <path id="DejaVuSans-Bold-441" d="M 3366 3391 
L 3366 2478 
Q 3138 2634 2908 2709 
Q 2678 2784 2431 2784 
Q 1963 2784 1702 2511 
Q 1441 2238 1441 1747 
Q 1441 1256 1702 982 
Q 1963 709 2431 709 
Q 2694 709 2930 787 
Q 3166 866 3366 1019 
L 3366 103 
Q 3103 6 2833 -42 
Q 2563 -91 2291 -91 
Q 1344 -91 809 395 
Q 275 881 275 1747 
Q 275 2613 809 3098 
Q 1344 3584 2291 3584 
Q 2566 3584 2833 3536 
Q 3100 3488 3366 3391 
z
" transform="scale(0.015625)"/>
      <path id="DejaVuSans-Bold-442" d="M 25 3500 
L 3681 3500 
L 3681 2809 
L 2413 2809 
L 2413 0 
L 1297 0 
L 1297 2809 
L 25 2809 
L 25 3500 
z
" transform="scale(0.015625)"/>
      <path id="DejaVuSans-Bold-43a" d="M 538 3500 
L 1656 3500 
L 1656 2316 
L 2903 3500 
L 4128 3500 
L 2634 2078 
L 4250 0 
L 3094 0 
L 1972 1447 
L 1656 1147 
L 1656 0 
L 538 0 
L 538 3500 
z
" transform="scale(0.015625)"/>
      <path id="DejaVuSans-Bold-43e" d="M 2203 2784 
Q 1831 2784 1636 2517 
Q 1441 2250 1441 1747 
Q 1441 1244 1636 976 
Q 1831 709 2203 709 
Q 2569 709 2762 976 
Q 2956 1244 2956 1747 
Q 2956 2250 2762 2517 
Q 2569 2784 2203 2784 
z
M 2203 3584 
Q 3106 3584 3614 3096 
Q 4122 2609 4122 1747 
Q 4122 884 3614 396 
Q 3106 -91 2203 -91 
Q 1297 -91 786 396 
Q 275 884 275 1747 
Q 275 2609 786 3096 
Q 1297 3584 2203 3584 
z
" transform="scale(0.015625)"/>
      <path id="DejaVuSans-Bold-43f" d="M 3884 3500 
L 3884 0 
L 2766 0 
L 2766 2700 
L 1656 2700 
L 1656 0 
L 538 0 
L 538 3500 
L 3884 3500 
z
" transform="scale(0.015625)"/>
      <path id="DejaVuSans-Bold-431" d="M 344 1941 
L 322 2463 
Q 275 2672 275 2881 
Q 275 3494 456 3894 
Q 791 4631 1238 4781 
Q 1606 4909 3141 5031 
Q 3297 5044 3475 5072 
L 3725 4378 
Q 3488 4316 2269 4209 
Q 1734 4163 1516 4013 
Q 1153 3766 1125 3300 
Q 1584 3584 2275 3584 
Q 3178 3584 3686 3096 
Q 4194 2609 4194 1747 
Q 4194 884 3687 396 
Q 3181 -91 2275 -91 
Q 1369 -91 858 396 
Q 347 884 347 1747 
Q 347 1866 344 1941 
z
M 2272 2784 
Q 1903 2784 1708 2517 
Q 1513 2250 1513 1747 
Q 1513 1244 1708 976 
Q 1903 709 2272 709 
Q 2641 709 2834 976 
Q 3028 1244 3028 1747 
Q 3028 2250 2834 2517 
Q 2641 2784 2272 2784 
z
" transform="scale(0.015625)"/>
      <path id="DejaVuSans-Bold-437" d="M 900 2181 
L 1413 2181 
Q 1872 2181 2039 2281 
Q 2206 2381 2206 2519 
Q 2206 2841 1469 2841 
Q 853 2841 472 2625 
L 472 3434 
Q 1041 3584 1713 3584 
Q 2500 3584 2862 3361 
Q 3225 3138 3225 2666 
Q 3225 2047 2541 1888 
Q 3313 1697 3313 994 
Q 3313 453 2888 181 
Q 2463 -91 1553 -91 
Q 875 -91 313 84 
L 313 947 
Q 1013 653 1428 653 
Q 1884 653 2089 776 
Q 2294 900 2294 1056 
Q 2294 1491 1394 1491 
L 900 1491 
L 900 2181 
z
" transform="scale(0.015625)"/>
      <path id="DejaVuSans-Bold-439" d="M 3947 3500 
L 3947 0 
L 2828 0 
L 2828 1863 
L 1700 0 
L 538 0 
L 538 3500 
L 1656 3500 
L 1656 1638 
L 2784 3500 
L 3947 3500 
z
M 1190 4891 
L 1637 4891 
Q 1671 4672 1826 4556 
Q 1981 4441 2240 4441 
Q 2499 4441 2654 4556 
Q 2809 4672 2843 4891 
L 3290 4891 
Q 3271 4441 2999 4202 
Q 2728 3963 2240 3963 
Q 1753 3963 1481 4202 
Q 1209 4441 1190 4891 
z
" transform="scale(0.015625)"/>
      <path id="DejaVuSans-Bold-444" d="M 2091 2772 
Q 1888 2772 1698 2509 
Q 1509 2247 1509 1747 
Q 1509 1247 1698 984 
Q 1888 722 2091 722 
Q 2425 722 2616 953 
L 2616 2541 
Q 2425 2772 2091 2772 
z
M 2616 4863 
L 3734 4863 
L 3734 3356 
Q 4066 3584 4519 3584 
Q 5166 3584 5581 3070 
Q 5997 2556 5997 1747 
Q 5997 938 5581 423 
Q 5166 -91 4519 -91 
Q 4066 -91 3734 138 
L 3734 -1331 
L 2616 -1331 
L 2616 138 
Q 2284 -91 1831 -91 
Q 1184 -91 768 423 
Q 353 938 353 1747 
Q 353 2556 768 3070 
Q 1184 3584 1831 3584 
Q 2284 3584 2616 3356 
L 2616 4863 
z
M 4259 2772 
Q 3925 2772 3734 2541 
L 3734 953 
Q 3925 722 4259 722 
Q 4463 722 4652 984 
Q 4841 1247 4841 1747 
Q 4841 2247 4652 2509 
Q 4463 2772 4259 2772 
z
" transform="scale(0.015625)"/>
      <path id="DejaVuSans-Bold-43c" d="M 538 3500 
L 1825 3500 
L 2613 1750 
L 3400 3500 
L 4691 3500 
L 4691 0 
L 3575 0 
L 3575 1984 
L 2984 672 
L 2250 672 
L 1656 1984 
L 1656 0 
L 538 0 
L 538 3500 
z
" transform="scale(0.015625)"/>
      <path id="DejaVuSans-Bold-44f" d="M 1528 2394 
Q 1528 2169 1651 2069 
Q 1775 1969 2059 1969 
L 2463 1969 
L 2463 2816 
L 2059 2816 
Q 1775 2816 1651 2719 
Q 1528 2622 1528 2394 
z
M 197 0 
L 1113 1497 
Q 847 1650 650 1917 
Q 453 2184 453 2516 
Q 453 3013 789 3256 
Q 1125 3500 1878 3500 
L 3581 3500 
L 3581 0 
L 2463 0 
L 2463 1278 
L 2069 1278 
L 1288 0 
L 197 0 
z
" transform="scale(0.015625)"/>
     </defs>
     <use xlink:href="#DejaVuSans-Bold-421"/>
     <use xlink:href="#DejaVuSans-Bold-440" transform="translate(73.388672 0)"/>
     <use xlink:href="#DejaVuSans-Bold-430" transform="translate(144.970703 0)"/>
     <use xlink:href="#DejaVuSans-Bold-432" transform="translate(212.451172 0)"/>
     <use xlink:href="#DejaVuSans-Bold-43d" transform="translate(275.732422 0)"/>
     <use xlink:href="#DejaVuSans-Bold-435" transform="translate(344.824219 0)"/>
     <use xlink:href="#DejaVuSans-Bold-43d" transform="translate(412.646484 0)"/>
     <use xlink:href="#DejaVuSans-Bold-438" transform="translate(481.738281 0)"/>
     <use xlink:href="#DejaVuSans-Bold-435" transform="translate(551.806641 0)"/>
     <use xlink:href="#DejaVuSans-Bold-20" transform="translate(619.628906 0)"/>
     <use xlink:href="#DejaVuSans-Bold-443" transform="translate(654.443359 0)"/>
     <use xlink:href="#DejaVuSans-Bold-447" transform="translate(719.628906 0)"/>
     <use xlink:href="#DejaVuSans-Bold-430" transform="translate(788.28125 0)"/>
     <use xlink:href="#DejaVuSans-Bold-441" transform="translate(855.761719 0)"/>
     <use xlink:href="#DejaVuSans-Bold-442" transform="translate(915.039062 0)"/>
     <use xlink:href="#DejaVuSans-Bold-43a" transform="translate(972.998047 0)"/>
     <use xlink:href="#DejaVuSans-Bold-43e" transform="translate(1040.869141 0)"/>
     <use xlink:href="#DejaVuSans-Bold-432" transform="translate(1109.570312 0)"/>
     <use xlink:href="#DejaVuSans-Bold-20" transform="translate(1172.851562 0)"/>
     <use xlink:href="#DejaVuSans-Bold-43f" transform="translate(1207.666016 0)"/>
     <use xlink:href="#DejaVuSans-Bold-43e" transform="translate(1276.757812 0)"/>
     <use xlink:href="#DejaVuSans-Bold-20" transform="translate(1345.458984 0)"/>
     <use xlink:href="#DejaVuSans-Bold-431" transform="translate(1380.273438 0)"/>
     <use xlink:href="#DejaVuSans-Bold-435" transform="translate(1450.097656 0)"/>
     <use xlink:href="#DejaVuSans-Bold-437" transform="translate(1517.919922 0)"/>
     <use xlink:href="#DejaVuSans-Bold-437" transform="translate(1576.025391 0)"/>
     <use xlink:href="#DejaVuSans-Bold-43d" transform="translate(1634.130859 0)"/>
     <use xlink:href="#DejaVuSans-Bold-430" transform="translate(1703.222656 0)"/>
     <use xlink:href="#DejaVuSans-Bold-43a" transform="translate(1770.703125 0)"/>
     <use xlink:href="#DejaVuSans-Bold-43e" transform="translate(1838.574219 0)"/>
     <use xlink:href="#DejaVuSans-Bold-432" transform="translate(1907.275391 0)"/>
     <use xlink:href="#DejaVuSans-Bold-43e" transform="translate(1970.556641 0)"/>
     <use xlink:href="#DejaVuSans-Bold-439" transform="translate(2039.257812 0)"/>
     <use xlink:href="#DejaVuSans-Bold-20" transform="translate(2109.326172 0)"/>
     <use xlink:href="#DejaVuSans-Bold-438" transform="translate(2144.140625 0)"/>
     <use xlink:href="#DejaVuSans-Bold-43d" transform="translate(2214.208984 0)"/>
     <use xlink:href="#DejaVuSans-Bold-442" transform="translate(2283.300781 0)"/>
     <use xlink:href="#DejaVuSans-Bold-435" transform="translate(2341.259766 0)"/>
     <use xlink:href="#DejaVuSans-Bold-43d" transform="translate(2409.082031 0)"/>
     <use xlink:href="#DejaVuSans-Bold-441" transform="translate(2478.173828 0)"/>
     <use xlink:href="#DejaVuSans-Bold-438" transform="translate(2537.451172 0)"/>
     <use xlink:href="#DejaVuSans-Bold-432" transform="translate(2607.519531 0)"/>
     <use xlink:href="#DejaVuSans-Bold-43d" transform="translate(2670.800781 0)"/>
     <use xlink:href="#DejaVuSans-Bold-43e" transform="translate(2739.892578 0)"/>
     <use xlink:href="#DejaVuSans-Bold-441" transform="translate(2808.59375 0)"/>
     <use xlink:href="#DejaVuSans-Bold-442" transform="translate(2867.871094 0)"/>
     <use xlink:href="#DejaVuSans-Bold-438" transform="translate(2925.830078 0)"/>
     <use xlink:href="#DejaVuSans-Bold-20" transform="translate(2995.898438 0)"/>
     <use xlink:href="#DejaVuSans-Bold-43f" transform="translate(3030.712891 0)"/>
     <use xlink:href="#DejaVuSans-Bold-435" transform="translate(3099.804688 0)"/>
     <use xlink:href="#DejaVuSans-Bold-440" transform="translate(3167.626953 0)"/>
     <use xlink:href="#DejaVuSans-Bold-435" transform="translate(3239.208984 0)"/>
     <use xlink:href="#DejaVuSans-Bold-444" transform="translate(3307.03125 0)"/>
     <use xlink:href="#DejaVuSans-Bold-43e" transform="translate(3406.25 0)"/>
     <use xlink:href="#DejaVuSans-Bold-440" transform="translate(3474.951172 0)"/>
     <use xlink:href="#DejaVuSans-Bold-43c" transform="translate(3546.533203 0)"/>
     <use xlink:href="#DejaVuSans-Bold-438" transform="translate(3628.271484 0)"/>
     <use xlink:href="#DejaVuSans-Bold-440" transform="translate(3698.339844 0)"/>
     <use xlink:href="#DejaVuSans-Bold-43e" transform="translate(3769.921875 0)"/>
     <use xlink:href="#DejaVuSans-Bold-432" transform="translate(3838.623047 0)"/>
     <use xlink:href="#DejaVuSans-Bold-430" transform="translate(3901.904297 0)"/>
     <use xlink:href="#DejaVuSans-Bold-43d" transform="translate(3969.384766 0)"/>
     <use xlink:href="#DejaVuSans-Bold-438" transform="translate(4038.476562 0)"/>
     <use xlink:href="#DejaVuSans-Bold-44f" transform="translate(4108.544922 0)"/>
    </g>
   </g>
  </g>
  <g id="text_29">
   <!-- Точка = медиана по участку; толстая линия = межквартильный диапазон; n = число интервалов наблюдений. -->
   <g style="fill: #46505b" transform="translate(12.96 20.223781) scale(0.0935 -0.0935)">
    <defs>
     <path id="DejaVuSans-422" d="M -19 4666 
L 3928 4666 
L 3928 4134 
L 2272 4134 
L 2272 0 
L 1638 0 
L 1638 4134 
L -19 4134 
L -19 4666 
z
" transform="scale(0.015625)"/>
     <path id="DejaVuSans-43f" d="M 3603 3500 
L 3603 0 
L 3025 0 
L 3025 3041 
L 1159 3041 
L 1159 0 
L 581 0 
L 581 3500 
L 3603 3500 
z
" transform="scale(0.015625)"/>
     <path id="DejaVuSans-3b" d="M 750 3309 
L 1409 3309 
L 1409 2516 
L 750 2516 
L 750 3309 
z
M 750 794 
L 1409 794 
L 1409 256 
L 897 -744 
L 494 -744 
L 750 256 
L 750 794 
z
" transform="scale(0.015625)"/>
     <path id="DejaVuSans-437" d="M 2206 1888 
Q 2594 1813 2809 1584 
Q 3025 1356 3025 1019 
Q 3025 478 2622 193 
Q 2219 -91 1475 -91 
Q 1225 -91 961 -47 
Q 697 -3 416 84 
L 416 619 
Q 638 503 903 445 
Q 1169 388 1459 388 
Q 1931 388 2195 563 
Q 2459 738 2459 1019 
Q 2459 1294 2225 1461 
Q 1991 1628 1563 1628 
L 1100 1628 
L 1100 2103 
L 1584 2103 
Q 1947 2103 2158 2242 
Q 2369 2381 2369 2600 
Q 2369 2800 2151 2944 
Q 1934 3088 1563 3088 
Q 1341 3088 1089 3047 
Q 838 3006 534 2916 
L 534 3438 
Q 841 3513 1106 3550 
Q 1372 3588 1609 3588 
Q 2222 3588 2576 3342 
Q 2931 3097 2931 2656 
Q 2931 2366 2743 2164 
Q 2556 1963 2206 1888 
z
" transform="scale(0.015625)"/>
     <path id="DejaVuSans-2e" d="M 684 794 
L 1344 794 
L 1344 0 
L 684 0 
L 684 794 
z
" transform="scale(0.015625)"/>
    </defs>
    <use xlink:href="#DejaVuSans-422"/>
    <use xlink:href="#DejaVuSans-43e" transform="translate(61.083984 0)"/>
    <use xlink:href="#DejaVuSans-447" transform="translate(122.265625 0)"/>
    <use xlink:href="#DejaVuSans-43a" transform="translate(181.347656 0)"/>
    <use xlink:href="#DejaVuSans-430" transform="translate(241.748047 0)"/>
    <use xlink:href="#DejaVuSans-20" transform="translate(303.027344 0)"/>
    <use xlink:href="#DejaVuSans-3d" transform="translate(334.814453 0)"/>
    <use xlink:href="#DejaVuSans-20" transform="translate(418.603516 0)"/>
    <use xlink:href="#DejaVuSans-43c" transform="translate(450.390625 0)"/>
    <use xlink:href="#DejaVuSans-435" transform="translate(525.830078 0)"/>
    <use xlink:href="#DejaVuSans-434" transform="translate(587.353516 0)"/>
    <use xlink:href="#DejaVuSans-438" transform="translate(656.494141 0)"/>
    <use xlink:href="#DejaVuSans-430" transform="translate(721.484375 0)"/>
    <use xlink:href="#DejaVuSans-43d" transform="translate(782.763672 0)"/>
    <use xlink:href="#DejaVuSans-430" transform="translate(848.144531 0)"/>
    <use xlink:href="#DejaVuSans-20" transform="translate(909.423828 0)"/>
    <use xlink:href="#DejaVuSans-43f" transform="translate(941.210938 0)"/>
    <use xlink:href="#DejaVuSans-43e" transform="translate(1006.591797 0)"/>
    <use xlink:href="#DejaVuSans-20" transform="translate(1067.773438 0)"/>
    <use xlink:href="#DejaVuSans-443" transform="translate(1099.560547 0)"/>
    <use xlink:href="#DejaVuSans-447" transform="translate(1158.740234 0)"/>
    <use xlink:href="#DejaVuSans-430" transform="translate(1217.822266 0)"/>
    <use xlink:href="#DejaVuSans-441" transform="translate(1279.101562 0)"/>
    <use xlink:href="#DejaVuSans-442" transform="translate(1334.082031 0)"/>
    <use xlink:href="#DejaVuSans-43a" transform="translate(1392.333984 0)"/>
    <use xlink:href="#DejaVuSans-443" transform="translate(1452.734375 0)"/>
    <use xlink:href="#DejaVuSans-3b" transform="translate(1511.914062 0)"/>
    <use xlink:href="#DejaVuSans-20" transform="translate(1545.605469 0)"/>
    <use xlink:href="#DejaVuSans-442" transform="translate(1577.392578 0)"/>
    <use xlink:href="#DejaVuSans-43e" transform="translate(1635.644531 0)"/>
    <use xlink:href="#DejaVuSans-43b" transform="translate(1696.826172 0)"/>
    <use xlink:href="#DejaVuSans-441" transform="translate(1760.742188 0)"/>
    <use xlink:href="#DejaVuSans-442" transform="translate(1815.722656 0)"/>
    <use xlink:href="#DejaVuSans-430" transform="translate(1873.974609 0)"/>
    <use xlink:href="#DejaVuSans-44f" transform="translate(1935.253906 0)"/>
    <use xlink:href="#DejaVuSans-20" transform="translate(1995.410156 0)"/>
    <use xlink:href="#DejaVuSans-43b" transform="translate(2027.197266 0)"/>
    <use xlink:href="#DejaVuSans-438" transform="translate(2091.113281 0)"/>
    <use xlink:href="#DejaVuSans-43d" transform="translate(2156.103516 0)"/>
    <use xlink:href="#DejaVuSans-438" transform="translate(2221.484375 0)"/>
    <use xlink:href="#DejaVuSans-44f" transform="translate(2286.474609 0)"/>
    <use xlink:href="#DejaVuSans-20" transform="translate(2346.630859 0)"/>
    <use xlink:href="#DejaVuSans-3d" transform="translate(2378.417969 0)"/>
    <use xlink:href="#DejaVuSans-20" transform="translate(2462.207031 0)"/>
    <use xlink:href="#DejaVuSans-43c" transform="translate(2493.994141 0)"/>
    <use xlink:href="#DejaVuSans-435" transform="translate(2569.433594 0)"/>
    <use xlink:href="#DejaVuSans-436" transform="translate(2630.957031 0)"/>
    <use xlink:href="#DejaVuSans-43a" transform="translate(2721.044922 0)"/>
    <use xlink:href="#DejaVuSans-432" transform="translate(2781.445312 0)"/>
    <use xlink:href="#DejaVuSans-430" transform="translate(2840.380859 0)"/>
    <use xlink:href="#DejaVuSans-440" transform="translate(2901.660156 0)"/>
    <use xlink:href="#DejaVuSans-442" transform="translate(2965.136719 0)"/>
    <use xlink:href="#DejaVuSans-438" transform="translate(3023.388672 0)"/>
    <use xlink:href="#DejaVuSans-43b" transform="translate(3088.378906 0)"/>
    <use xlink:href="#DejaVuSans-44c" transform="translate(3152.294922 0)"/>
    <use xlink:href="#DejaVuSans-43d" transform="translate(3211.230469 0)"/>
    <use xlink:href="#DejaVuSans-44b" transform="translate(3276.611328 0)"/>
    <use xlink:href="#DejaVuSans-439" transform="translate(3355.566406 0)"/>
    <use xlink:href="#DejaVuSans-20" transform="translate(3420.556641 0)"/>
    <use xlink:href="#DejaVuSans-434" transform="translate(3452.34375 0)"/>
    <use xlink:href="#DejaVuSans-438" transform="translate(3521.484375 0)"/>
    <use xlink:href="#DejaVuSans-430" transform="translate(3586.474609 0)"/>
    <use xlink:href="#DejaVuSans-43f" transform="translate(3647.753906 0)"/>
    <use xlink:href="#DejaVuSans-430" transform="translate(3713.134766 0)"/>
    <use xlink:href="#DejaVuSans-437" transform="translate(3774.414062 0)"/>
    <use xlink:href="#DejaVuSans-43e" transform="translate(3827.587891 0)"/>
    <use xlink:href="#DejaVuSans-43d" transform="translate(3888.769531 0)"/>
    <use xlink:href="#DejaVuSans-3b" transform="translate(3954.150391 0)"/>
    <use xlink:href="#DejaVuSans-20" transform="translate(3987.841797 0)"/>
    <use xlink:href="#DejaVuSans-6e" transform="translate(4019.628906 0)"/>
    <use xlink:href="#DejaVuSans-20" transform="translate(4083.007812 0)"/>
    <use xlink:href="#DejaVuSans-3d" transform="translate(4114.794922 0)"/>
    <use xlink:href="#DejaVuSans-20" transform="translate(4198.583984 0)"/>
    <use xlink:href="#DejaVuSans-447" transform="translate(4230.371094 0)"/>
    <use xlink:href="#DejaVuSans-438" transform="translate(4289.453125 0)"/>
    <use xlink:href="#DejaVuSans-441" transform="translate(4354.443359 0)"/>
    <use xlink:href="#DejaVuSans-43b" transform="translate(4409.423828 0)"/>
    <use xlink:href="#DejaVuSans-43e" transform="translate(4473.339844 0)"/>
    <use xlink:href="#DejaVuSans-20" transform="translate(4534.521484 0)"/>
    <use xlink:href="#DejaVuSans-438" transform="translate(4566.308594 0)"/>
    <use xlink:href="#DejaVuSans-43d" transform="translate(4631.298828 0)"/>
    <use xlink:href="#DejaVuSans-442" transform="translate(4696.679688 0)"/>
    <use xlink:href="#DejaVuSans-435" transform="translate(4754.931641 0)"/>
    <use xlink:href="#DejaVuSans-440" transform="translate(4816.455078 0)"/>
    <use xlink:href="#DejaVuSans-432" transform="translate(4879.931641 0)"/>
    <use xlink:href="#DejaVuSans-430" transform="translate(4938.867188 0)"/>
    <use xlink:href="#DejaVuSans-43b" transform="translate(5000.146484 0)"/>
    <use xlink:href="#DejaVuSans-43e" transform="translate(5064.0625 0)"/>
    <use xlink:href="#DejaVuSans-432" transform="translate(5125.244141 0)"/>
    <use xlink:href="#DejaVuSans-20" transform="translate(5184.179688 0)"/>
    <use xlink:href="#DejaVuSans-43d" transform="translate(5215.966797 0)"/>
    <use xlink:href="#DejaVuSans-430" transform="translate(5281.347656 0)"/>
    <use xlink:href="#DejaVuSans-431" transform="translate(5342.626953 0)"/>
    <use xlink:href="#DejaVuSans-43b" transform="translate(5404.296875 0)"/>
    <use xlink:href="#DejaVuSans-44e" transform="translate(5468.212891 0)"/>
    <use xlink:href="#DejaVuSans-434" transform="translate(5552.392578 0)"/>
    <use xlink:href="#DejaVuSans-435" transform="translate(5621.533203 0)"/>
    <use xlink:href="#DejaVuSans-43d" transform="translate(5683.056641 0)"/>
    <use xlink:href="#DejaVuSans-438" transform="translate(5748.4375 0)"/>
    <use xlink:href="#DejaVuSans-439" transform="translate(5813.427734 0)"/>
    <use xlink:href="#DejaVuSans-2e" transform="translate(5878.417969 0)"/>
   </g>
   <!-- Для межучасткового сравнения используется беззнаковый показатель, чтобы не смешивать масштаб изменений с направлением. -->
   <g style="fill: #46505b" transform="translate(12.96 30.884827) scale(0.0935 -0.0935)">
    <defs>
     <path id="DejaVuSans-414" d="M 1459 531 
L 3522 531 
L 3522 4134 
L 2006 4134 
L 2006 3472 
Q 2006 1913 1656 878 
Q 1584 666 1459 531 
z
M 538 531 
Q 956 728 1075 1103 
Q 1378 2066 1378 3784 
L 1378 4666 
L 4153 4666 
L 4153 531 
L 4684 531 
L 4684 -1003 
L 4153 -1003 
L 4153 0 
L 847 0 
L 847 -1003 
L 316 -1003 
L 316 531 
L 538 531 
z
" transform="scale(0.015625)"/>
     <path id="DejaVuSans-448" d="M 3216 459 
L 4697 459 
L 4697 3500 
L 5275 3500 
L 5275 0 
L 581 0 
L 581 3500 
L 1159 3500 
L 1159 459 
L 2638 459 
L 2638 3500 
L 3216 3500 
L 3216 459 
z
" transform="scale(0.015625)"/>
    </defs>
    <use xlink:href="#DejaVuSans-414"/>
    <use xlink:href="#DejaVuSans-43b" transform="translate(78.125 0)"/>
    <use xlink:href="#DejaVuSans-44f" transform="translate(142.041016 0)"/>
    <use xlink:href="#DejaVuSans-20" transform="translate(202.197266 0)"/>
    <use xlink:href="#DejaVuSans-43c" transform="translate(233.984375 0)"/>
    <use xlink:href="#DejaVuSans-435" transform="translate(309.423828 0)"/>
    <use xlink:href="#DejaVuSans-436" transform="translate(370.947266 0)"/>
    <use xlink:href="#DejaVuSans-443" transform="translate(461.035156 0)"/>
    <use xlink:href="#DejaVuSans-447" transform="translate(520.214844 0)"/>
    <use xlink:href="#DejaVuSans-430" transform="translate(579.296875 0)"/>
    <use xlink:href="#DejaVuSans-441" transform="translate(640.576172 0)"/>
    <use xlink:href="#DejaVuSans-442" transform="translate(695.556641 0)"/>
    <use xlink:href="#DejaVuSans-43a" transform="translate(753.808594 0)"/>
    <use xlink:href="#DejaVuSans-43e" transform="translate(814.208984 0)"/>
    <use xlink:href="#DejaVuSans-432" transform="translate(875.390625 0)"/>
    <use xlink:href="#DejaVuSans-43e" transform="translate(934.326172 0)"/>
    <use xlink:href="#DejaVuSans-433" transform="translate(995.507812 0)"/>
    <use xlink:href="#DejaVuSans-43e" transform="translate(1048.046875 0)"/>
    <use xlink:href="#DejaVuSans-20" transform="translate(1109.228516 0)"/>
    <use xlink:href="#DejaVuSans-441" transform="translate(1141.015625 0)"/>
    <use xlink:href="#DejaVuSans-440" transform="translate(1195.996094 0)"/>
    <use xlink:href="#DejaVuSans-430" transform="translate(1259.472656 0)"/>
    <use xlink:href="#DejaVuSans-432" transform="translate(1320.751953 0)"/>
    <use xlink:href="#DejaVuSans-43d" transform="translate(1379.6875 0)"/>
    <use xlink:href="#DejaVuSans-435" transform="translate(1445.068359 0)"/>
    <use xlink:href="#DejaVuSans-43d" transform="translate(1506.591797 0)"/>
    <use xlink:href="#DejaVuSans-438" transform="translate(1571.972656 0)"/>
    <use xlink:href="#DejaVuSans-44f" transform="translate(1636.962891 0)"/>
    <use xlink:href="#DejaVuSans-20" transform="translate(1697.119141 0)"/>
    <use xlink:href="#DejaVuSans-438" transform="translate(1728.90625 0)"/>
    <use xlink:href="#DejaVuSans-441" transform="translate(1793.896484 0)"/>
    <use xlink:href="#DejaVuSans-43f" transform="translate(1848.876953 0)"/>
    <use xlink:href="#DejaVuSans-43e" transform="translate(1914.257812 0)"/>
    <use xlink:href="#DejaVuSans-43b" transform="translate(1975.439453 0)"/>
    <use xlink:href="#DejaVuSans-44c" transform="translate(2039.355469 0)"/>
    <use xlink:href="#DejaVuSans-437" transform="translate(2098.291016 0)"/>
    <use xlink:href="#DejaVuSans-443" transform="translate(2151.464844 0)"/>
    <use xlink:href="#DejaVuSans-435" transform="translate(2210.644531 0)"/>
    <use xlink:href="#DejaVuSans-442" transform="translate(2272.167969 0)"/>
    <use xlink:href="#DejaVuSans-441" transform="translate(2330.419922 0)"/>
    <use xlink:href="#DejaVuSans-44f" transform="translate(2385.400391 0)"/>
    <use xlink:href="#DejaVuSans-20" transform="translate(2445.556641 0)"/>
    <use xlink:href="#DejaVuSans-431" transform="translate(2477.34375 0)"/>
    <use xlink:href="#DejaVuSans-435" transform="translate(2539.013672 0)"/>
    <use xlink:href="#DejaVuSans-437" transform="translate(2600.537109 0)"/>
    <use xlink:href="#DejaVuSans-437" transform="translate(2653.710938 0)"/>
    <use xlink:href="#DejaVuSans-43d" transform="translate(2706.884766 0)"/>
    <use xlink:href="#DejaVuSans-430" transform="translate(2772.265625 0)"/>
    <use xlink:href="#DejaVuSans-43a" transform="translate(2833.544922 0)"/>
    <use xlink:href="#DejaVuSans-43e" transform="translate(2893.945312 0)"/>
    <use xlink:href="#DejaVuSans-432" transform="translate(2955.126953 0)"/>
    <use xlink:href="#DejaVuSans-44b" transform="translate(3014.0625 0)"/>
    <use xlink:href="#DejaVuSans-439" transform="translate(3093.017578 0)"/>
    <use xlink:href="#DejaVuSans-20" transform="translate(3158.007812 0)"/>
    <use xlink:href="#DejaVuSans-43f" transform="translate(3189.794922 0)"/>
    <use xlink:href="#DejaVuSans-43e" transform="translate(3255.175781 0)"/>
    <use xlink:href="#DejaVuSans-43a" transform="translate(3316.357422 0)"/>
    <use xlink:href="#DejaVuSans-430" transform="translate(3376.757812 0)"/>
    <use xlink:href="#DejaVuSans-437" transform="translate(3438.037109 0)"/>
    <use xlink:href="#DejaVuSans-430" transform="translate(3491.210938 0)"/>
    <use xlink:href="#DejaVuSans-442" transform="translate(3552.490234 0)"/>
    <use xlink:href="#DejaVuSans-435" transform="translate(3610.742188 0)"/>
    <use xlink:href="#DejaVuSans-43b" transform="translate(3672.265625 0)"/>
    <use xlink:href="#DejaVuSans-44c" transform="translate(3736.181641 0)"/>
    <use xlink:href="#DejaVuSans-2c" transform="translate(3795.117188 0)"/>
    <use xlink:href="#DejaVuSans-20" transform="translate(3826.904297 0)"/>
    <use xlink:href="#DejaVuSans-447" transform="translate(3858.691406 0)"/>
    <use xlink:href="#DejaVuSans-442" transform="translate(3917.773438 0)"/>
    <use xlink:href="#DejaVuSans-43e" transform="translate(3976.025391 0)"/>
    <use xlink:href="#DejaVuSans-431" transform="translate(4037.207031 0)"/>
    <use xlink:href="#DejaVuSans-44b" transform="translate(4098.876953 0)"/>
    <use xlink:href="#DejaVuSans-20" transform="translate(4177.832031 0)"/>
    <use xlink:href="#DejaVuSans-43d" transform="translate(4209.619141 0)"/>
    <use xlink:href="#DejaVuSans-435" transform="translate(4275 0)"/>
    <use xlink:href="#DejaVuSans-20" transform="translate(4336.523438 0)"/>
    <use xlink:href="#DejaVuSans-441" transform="translate(4368.310547 0)"/>
    <use xlink:href="#DejaVuSans-43c" transform="translate(4423.291016 0)"/>
    <use xlink:href="#DejaVuSans-435" transform="translate(4498.730469 0)"/>
    <use xlink:href="#DejaVuSans-448" transform="translate(4560.253906 0)"/>
    <use xlink:href="#DejaVuSans-438" transform="translate(4651.757812 0)"/>
    <use xlink:href="#DejaVuSans-432" transform="translate(4716.748047 0)"/>
    <use xlink:href="#DejaVuSans-430" transform="translate(4775.683594 0)"/>
    <use xlink:href="#DejaVuSans-442" transform="translate(4836.962891 0)"/>
    <use xlink:href="#DejaVuSans-44c" transform="translate(4895.214844 0)"/>
    <use xlink:href="#DejaVuSans-20" transform="translate(4954.150391 0)"/>
    <use xlink:href="#DejaVuSans-43c" transform="translate(4985.9375 0)"/>
    <use xlink:href="#DejaVuSans-430" transform="translate(5061.376953 0)"/>
    <use xlink:href="#DejaVuSans-441" transform="translate(5122.65625 0)"/>
    <use xlink:href="#DejaVuSans-448" transform="translate(5177.636719 0)"/>
    <use xlink:href="#DejaVuSans-442" transform="translate(5269.140625 0)"/>
    <use xlink:href="#DejaVuSans-430" transform="translate(5327.392578 0)"/>
    <use xlink:href="#DejaVuSans-431" transform="translate(5388.671875 0)"/>
    <use xlink:href="#DejaVuSans-20" transform="translate(5450.341797 0)"/>
    <use xlink:href="#DejaVuSans-438" transform="translate(5482.128906 0)"/>
    <use xlink:href="#DejaVuSans-437" transform="translate(5547.119141 0)"/>
    <use xlink:href="#DejaVuSans-43c" transform="translate(5600.292969 0)"/>
    <use xlink:href="#DejaVuSans-435" transform="translate(5675.732422 0)"/>
    <use xlink:href="#DejaVuSans-43d" transform="translate(5737.255859 0)"/>
    <use xlink:href="#DejaVuSans-435" transform="translate(5802.636719 0)"/>
    <use xlink:href="#DejaVuSans-43d" transform="translate(5864.160156 0)"/>
    <use xlink:href="#DejaVuSans-438" transform="translate(5929.541016 0)"/>
    <use xlink:href="#DejaVuSans-439" transform="translate(5994.53125 0)"/>
    <use xlink:href="#DejaVuSans-20" transform="translate(6059.521484 0)"/>
    <use xlink:href="#DejaVuSans-441" transform="translate(6091.308594 0)"/>
    <use xlink:href="#DejaVuSans-20" transform="translate(6146.289062 0)"/>
    <use xlink:href="#DejaVuSans-43d" transform="translate(6178.076172 0)"/>
    <use xlink:href="#DejaVuSans-430" transform="translate(6243.457031 0)"/>
    <use xlink:href="#DejaVuSans-43f" transform="translate(6304.736328 0)"/>
    <use xlink:href="#DejaVuSans-440" transform="translate(6370.117188 0)"/>
    <use xlink:href="#DejaVuSans-430" transform="translate(6433.59375 0)"/>
    <use xlink:href="#DejaVuSans-432" transform="translate(6494.873047 0)"/>
    <use xlink:href="#DejaVuSans-43b" transform="translate(6553.808594 0)"/>
    <use xlink:href="#DejaVuSans-435" transform="translate(6617.724609 0)"/>
    <use xlink:href="#DejaVuSans-43d" transform="translate(6679.248047 0)"/>
    <use xlink:href="#DejaVuSans-438" transform="translate(6744.628906 0)"/>
    <use xlink:href="#DejaVuSans-435" transform="translate(6809.619141 0)"/>
    <use xlink:href="#DejaVuSans-43c" transform="translate(6871.142578 0)"/>
    <use xlink:href="#DejaVuSans-2e" transform="translate(6946.582031 0)"/>
   </g>
  </g>
  <g id="text_30">
   <!-- График показывает именно масштаб изменений, а не их направление. Беззнаковый показатель интенсивности удобен для межучасткового сравнения, потому что отражает масштаб изменения без смешения с направлением. -->
   <g style="fill: #46505b" transform="translate(12.96 472.249887) scale(0.092 -0.092)">
    <defs>
     <path id="DejaVuSans-413" d="M 628 0 
L 628 4666 
L 3531 4666 
L 3531 4134 
L 1259 4134 
L 1259 0 
L 628 0 
z
" transform="scale(0.015625)"/>
     <path id="DejaVuSans-444" d="M 947 1747 
Q 947 1013 1173 702 
Q 1400 391 1784 391 
Q 2091 391 2447 916 
L 2447 2578 
Q 2091 3103 1784 3103 
Q 1400 3103 1173 2792 
Q 947 2481 947 1747 
z
M 2447 -1331 
L 2447 447 
Q 2269 153 2064 31 
Q 1859 -91 1600 -91 
Q 1078 -91 714 392 
Q 350 875 350 1734 
Q 350 2594 714 3089 
Q 1078 3584 1600 3584 
Q 1859 3584 2064 3465 
Q 2269 3347 2447 3053 
L 2447 4666 
L 3025 4666 
L 3025 3053 
Q 3203 3347 3408 3465 
Q 3613 3584 3872 3584 
Q 4394 3584 4758 3089 
Q 5122 2594 5122 1734 
Q 5122 875 4758 392 
Q 4394 -91 3872 -91 
Q 3613 -91 3408 31 
Q 3203 153 3025 447 
L 3025 -1331 
L 2447 -1331 
z
M 4525 1747 
Q 4525 2481 4298 2792 
Q 4072 3103 3688 3103 
Q 3381 3103 3025 2578 
L 3025 916 
Q 3381 391 3688 391 
Q 4072 391 4298 702 
Q 4525 1013 4525 1747 
z
" transform="scale(0.015625)"/>
     <path id="DejaVuSans-445" d="M 3513 3500 
L 2247 1797 
L 3578 0 
L 2900 0 
L 1881 1375 
L 863 0 
L 184 0 
L 1544 1831 
L 300 3500 
L 978 3500 
L 1906 2253 
L 2834 3500 
L 3513 3500 
z
" transform="scale(0.015625)"/>
    </defs>
    <use xlink:href="#DejaVuSans-413"/>
    <use xlink:href="#DejaVuSans-440" transform="translate(60.986328 0)"/>
    <use xlink:href="#DejaVuSans-430" transform="translate(124.462891 0)"/>
    <use xlink:href="#DejaVuSans-444" transform="translate(185.742188 0)"/>
    <use xlink:href="#DejaVuSans-438" transform="translate(271.240234 0)"/>
    <use xlink:href="#DejaVuSans-43a" transform="translate(336.230469 0)"/>
    <use xlink:href="#DejaVuSans-20" transform="translate(396.630859 0)"/>
    <use xlink:href="#DejaVuSans-43f" transform="translate(428.417969 0)"/>
    <use xlink:href="#DejaVuSans-43e" transform="translate(493.798828 0)"/>
    <use xlink:href="#DejaVuSans-43a" transform="translate(554.980469 0)"/>
    <use xlink:href="#DejaVuSans-430" transform="translate(615.380859 0)"/>
    <use xlink:href="#DejaVuSans-437" transform="translate(676.660156 0)"/>
    <use xlink:href="#DejaVuSans-44b" transform="translate(729.833984 0)"/>
    <use xlink:href="#DejaVuSans-432" transform="translate(808.789062 0)"/>
    <use xlink:href="#DejaVuSans-430" transform="translate(867.724609 0)"/>
    <use xlink:href="#DejaVuSans-435" transform="translate(929.003906 0)"/>
    <use xlink:href="#DejaVuSans-442" transform="translate(990.527344 0)"/>
    <use xlink:href="#DejaVuSans-20" transform="translate(1048.779297 0)"/>
    <use xlink:href="#DejaVuSans-438" transform="translate(1080.566406 0)"/>
    <use xlink:href="#DejaVuSans-43c" transform="translate(1145.556641 0)"/>
    <use xlink:href="#DejaVuSans-435" transform="translate(1220.996094 0)"/>
    <use xlink:href="#DejaVuSans-43d" transform="translate(1282.519531 0)"/>
    <use xlink:href="#DejaVuSans-43d" transform="translate(1347.900391 0)"/>
    <use xlink:href="#DejaVuSans-43e" transform="translate(1413.28125 0)"/>
    <use xlink:href="#DejaVuSans-20" transform="translate(1474.462891 0)"/>
    <use xlink:href="#DejaVuSans-43c" transform="translate(1506.25 0)"/>
    <use xlink:href="#DejaVuSans-430" transform="translate(1581.689453 0)"/>
    <use xlink:href="#DejaVuSans-441" transform="translate(1642.96875 0)"/>
    <use xlink:href="#DejaVuSans-448" transform="translate(1697.949219 0)"/>
    <use xlink:href="#DejaVuSans-442" transform="translate(1789.453125 0)"/>
    <use xlink:href="#DejaVuSans-430" transform="translate(1847.705078 0)"/>
    <use xlink:href="#DejaVuSans-431" transform="translate(1908.984375 0)"/>
    <use xlink:href="#DejaVuSans-20" transform="translate(1970.654297 0)"/>
    <use xlink:href="#DejaVuSans-438" transform="translate(2002.441406 0)"/>
    <use xlink:href="#DejaVuSans-437" transform="translate(2067.431641 0)"/>
    <use xlink:href="#DejaVuSans-43c" transform="translate(2120.605469 0)"/>
    <use xlink:href="#DejaVuSans-435" transform="translate(2196.044922 0)"/>
    <use xlink:href="#DejaVuSans-43d" transform="translate(2257.568359 0)"/>
    <use xlink:href="#DejaVuSans-435" transform="translate(2322.949219 0)"/>
    <use xlink:href="#DejaVuSans-43d" transform="translate(2384.472656 0)"/>
    <use xlink:href="#DejaVuSans-438" transform="translate(2449.853516 0)"/>
    <use xlink:href="#DejaVuSans-439" transform="translate(2514.84375 0)"/>
    <use xlink:href="#DejaVuSans-2c" transform="translate(2579.833984 0)"/>
    <use xlink:href="#DejaVuSans-20" transform="translate(2611.621094 0)"/>
    <use xlink:href="#DejaVuSans-430" transform="translate(2643.408203 0)"/>
    <use xlink:href="#DejaVuSans-20" transform="translate(2704.6875 0)"/>
    <use xlink:href="#DejaVuSans-43d" transform="translate(2736.474609 0)"/>
    <use xlink:href="#DejaVuSans-435" transform="translate(2801.855469 0)"/>
    <use xlink:href="#DejaVuSans-20" transform="translate(2863.378906 0)"/>
    <use xlink:href="#DejaVuSans-438" transform="translate(2895.166016 0)"/>
    <use xlink:href="#DejaVuSans-445" transform="translate(2960.15625 0)"/>
    <use xlink:href="#DejaVuSans-20" transform="translate(3019.335938 0)"/>
    <use xlink:href="#DejaVuSans-43d" transform="translate(3051.123047 0)"/>
    <use xlink:href="#DejaVuSans-430" transform="translate(3116.503906 0)"/>
    <use xlink:href="#DejaVuSans-43f" transform="translate(3177.783203 0)"/>
    <use xlink:href="#DejaVuSans-440" transform="translate(3243.164062 0)"/>
    <use xlink:href="#DejaVuSans-430" transform="translate(3306.640625 0)"/>
    <use xlink:href="#DejaVuSans-432" transform="translate(3367.919922 0)"/>
    <use xlink:href="#DejaVuSans-43b" transform="translate(3426.855469 0)"/>
    <use xlink:href="#DejaVuSans-435" transform="translate(3490.771484 0)"/>
    <use xlink:href="#DejaVuSans-43d" transform="translate(3552.294922 0)"/>
    <use xlink:href="#DejaVuSans-438" transform="translate(3617.675781 0)"/>
    <use xlink:href="#DejaVuSans-435" transform="translate(3682.666016 0)"/>
    <use xlink:href="#DejaVuSans-2e" transform="translate(3744.189453 0)"/>
    <use xlink:href="#DejaVuSans-20" transform="translate(3775.976562 0)"/>
    <use xlink:href="#DejaVuSans-411" transform="translate(3807.763672 0)"/>
    <use xlink:href="#DejaVuSans-435" transform="translate(3876.367188 0)"/>
    <use xlink:href="#DejaVuSans-437" transform="translate(3937.890625 0)"/>
    <use xlink:href="#DejaVuSans-437" transform="translate(3991.064453 0)"/>
    <use xlink:href="#DejaVuSans-43d" transform="translate(4044.238281 0)"/>
    <use xlink:href="#DejaVuSans-430" transform="translate(4109.619141 0)"/>
    <use xlink:href="#DejaVuSans-43a" transform="translate(4170.898438 0)"/>
    <use xlink:href="#DejaVuSans-43e" transform="translate(4231.298828 0)"/>
    <use xlink:href="#DejaVuSans-432" transform="translate(4292.480469 0)"/>
    <use xlink:href="#DejaVuSans-44b" transform="translate(4351.416016 0)"/>
    <use xlink:href="#DejaVuSans-439" transform="translate(4430.371094 0)"/>
    <use xlink:href="#DejaVuSans-20" transform="translate(4495.361328 0)"/>
    <use xlink:href="#DejaVuSans-43f" transform="translate(4527.148438 0)"/>
    <use xlink:href="#DejaVuSans-43e" transform="translate(4592.529297 0)"/>
    <use xlink:href="#DejaVuSans-43a" transform="translate(4653.710938 0)"/>
    <use xlink:href="#DejaVuSans-430" transform="translate(4714.111328 0)"/>
    <use xlink:href="#DejaVuSans-437" transform="translate(4775.390625 0)"/>
    <use xlink:href="#DejaVuSans-430" transform="translate(4828.564453 0)"/>
    <use xlink:href="#DejaVuSans-442" transform="translate(4889.84375 0)"/>
    <use xlink:href="#DejaVuSans-435" transform="translate(4948.095703 0)"/>
    <use xlink:href="#DejaVuSans-43b" transform="translate(5009.619141 0)"/>
    <use xlink:href="#DejaVuSans-44c" transform="translate(5073.535156 0)"/>
    <use xlink:href="#DejaVuSans-20" transform="translate(5132.470703 0)"/>
    <use xlink:href="#DejaVuSans-438" transform="translate(5164.257812 0)"/>
    <use xlink:href="#DejaVuSans-43d" transform="translate(5229.248047 0)"/>
    <use xlink:href="#DejaVuSans-442" transform="translate(5294.628906 0)"/>
    <use xlink:href="#DejaVuSans-435" transform="translate(5352.880859 0)"/>
    <use xlink:href="#DejaVuSans-43d" transform="translate(5414.404297 0)"/>
    <use xlink:href="#DejaVuSans-441" transform="translate(5479.785156 0)"/>
    <use xlink:href="#DejaVuSans-438" transform="translate(5534.765625 0)"/>
    <use xlink:href="#DejaVuSans-432" transform="translate(5599.755859 0)"/>
    <use xlink:href="#DejaVuSans-43d" transform="translate(5658.691406 0)"/>
    <use xlink:href="#DejaVuSans-43e" transform="translate(5724.072266 0)"/>
    <use xlink:href="#DejaVuSans-441" transform="translate(5785.253906 0)"/>
    <use xlink:href="#DejaVuSans-442" transform="translate(5840.234375 0)"/>
    <use xlink:href="#DejaVuSans-438" transform="translate(5898.486328 0)"/>
    <use xlink:href="#DejaVuSans-20" transform="translate(5963.476562 0)"/>
    <use xlink:href="#DejaVuSans-443" transform="translate(5995.263672 0)"/>
    <use xlink:href="#DejaVuSans-434" transform="translate(6054.443359 0)"/>
    <use xlink:href="#DejaVuSans-43e" transform="translate(6123.583984 0)"/>
    <use xlink:href="#DejaVuSans-431" transform="translate(6184.765625 0)"/>
    <use xlink:href="#DejaVuSans-435" transform="translate(6246.435547 0)"/>
    <use xlink:href="#DejaVuSans-43d" transform="translate(6307.958984 0)"/>
    <use xlink:href="#DejaVuSans-20" transform="translate(6373.339844 0)"/>
    <use xlink:href="#DejaVuSans-434" transform="translate(6405.126953 0)"/>
    <use xlink:href="#DejaVuSans-43b" transform="translate(6474.267578 0)"/>
    <use xlink:href="#DejaVuSans-44f" transform="translate(6538.183594 0)"/>
    <use xlink:href="#DejaVuSans-20" transform="translate(6598.339844 0)"/>
    <use xlink:href="#DejaVuSans-43c" transform="translate(6630.126953 0)"/>
    <use xlink:href="#DejaVuSans-435" transform="translate(6705.566406 0)"/>
    <use xlink:href="#DejaVuSans-436" transform="translate(6767.089844 0)"/>
    <use xlink:href="#DejaVuSans-443" transform="translate(6857.177734 0)"/>
    <use xlink:href="#DejaVuSans-447" transform="translate(6916.357422 0)"/>
    <use xlink:href="#DejaVuSans-430" transform="translate(6975.439453 0)"/>
    <use xlink:href="#DejaVuSans-441" transform="translate(7036.71875 0)"/>
    <use xlink:href="#DejaVuSans-442" transform="translate(7091.699219 0)"/>
    <use xlink:href="#DejaVuSans-43a" transform="translate(7149.951172 0)"/>
    <use xlink:href="#DejaVuSans-43e" transform="translate(7210.351562 0)"/>
    <use xlink:href="#DejaVuSans-432" transform="translate(7271.533203 0)"/>
    <use xlink:href="#DejaVuSans-43e" transform="translate(7330.46875 0)"/>
    <use xlink:href="#DejaVuSans-433" transform="translate(7391.650391 0)"/>
    <use xlink:href="#DejaVuSans-43e" transform="translate(7444.189453 0)"/>
    <use xlink:href="#DejaVuSans-20" transform="translate(7505.371094 0)"/>
    <use xlink:href="#DejaVuSans-441" transform="translate(7537.158203 0)"/>
    <use xlink:href="#DejaVuSans-440" transform="translate(7592.138672 0)"/>
    <use xlink:href="#DejaVuSans-430" transform="translate(7655.615234 0)"/>
    <use xlink:href="#DejaVuSans-432" transform="translate(7716.894531 0)"/>
    <use xlink:href="#DejaVuSans-43d" transform="translate(7775.830078 0)"/>
    <use xlink:href="#DejaVuSans-435" transform="translate(7841.210938 0)"/>
    <use xlink:href="#DejaVuSans-43d" transform="translate(7902.734375 0)"/>
    <use xlink:href="#DejaVuSans-438" transform="translate(7968.115234 0)"/>
    <use xlink:href="#DejaVuSans-44f" transform="translate(8033.105469 0)"/>
    <use xlink:href="#DejaVuSans-2c" transform="translate(8093.261719 0)"/>
    <use xlink:href="#DejaVuSans-20" transform="translate(8125.048828 0)"/>
    <use xlink:href="#DejaVuSans-43f" transform="translate(8156.835938 0)"/>
    <use xlink:href="#DejaVuSans-43e" transform="translate(8222.216797 0)"/>
    <use xlink:href="#DejaVuSans-442" transform="translate(8283.398438 0)"/>
    <use xlink:href="#DejaVuSans-43e" transform="translate(8341.650391 0)"/>
    <use xlink:href="#DejaVuSans-43c" transform="translate(8402.832031 0)"/>
    <use xlink:href="#DejaVuSans-443" transform="translate(8478.271484 0)"/>
    <use xlink:href="#DejaVuSans-20" transform="translate(8537.451172 0)"/>
    <use xlink:href="#DejaVuSans-447" transform="translate(8569.238281 0)"/>
    <use xlink:href="#DejaVuSans-442" transform="translate(8628.320312 0)"/>
    <use xlink:href="#DejaVuSans-43e" transform="translate(8686.572266 0)"/>
    <use xlink:href="#DejaVuSans-20" transform="translate(8747.753906 0)"/>
    <use xlink:href="#DejaVuSans-43e" transform="translate(8779.541016 0)"/>
    <use xlink:href="#DejaVuSans-442" transform="translate(8840.722656 0)"/>
    <use xlink:href="#DejaVuSans-440" transform="translate(8898.974609 0)"/>
    <use xlink:href="#DejaVuSans-430" transform="translate(8962.451172 0)"/>
    <use xlink:href="#DejaVuSans-436" transform="translate(9023.730469 0)"/>
    <use xlink:href="#DejaVuSans-430" transform="translate(9113.818359 0)"/>
    <use xlink:href="#DejaVuSans-435" transform="translate(9175.097656 0)"/>
    <use xlink:href="#DejaVuSans-442" transform="translate(9236.621094 0)"/>
    <use xlink:href="#DejaVuSans-20" transform="translate(9294.873047 0)"/>
    <use xlink:href="#DejaVuSans-43c" transform="translate(9326.660156 0)"/>
    <use xlink:href="#DejaVuSans-430" transform="translate(9402.099609 0)"/>
    <use xlink:href="#DejaVuSans-441" transform="translate(9463.378906 0)"/>
    <use xlink:href="#DejaVuSans-448" transform="translate(9518.359375 0)"/>
    <use xlink:href="#DejaVuSans-442" transform="translate(9609.863281 0)"/>
    <use xlink:href="#DejaVuSans-430" transform="translate(9668.115234 0)"/>
    <use xlink:href="#DejaVuSans-431" transform="translate(9729.394531 0)"/>
    <use xlink:href="#DejaVuSans-20" transform="translate(9791.064453 0)"/>
    <use xlink:href="#DejaVuSans-438" transform="translate(9822.851562 0)"/>
    <use xlink:href="#DejaVuSans-437" transform="translate(9887.841797 0)"/>
    <use xlink:href="#DejaVuSans-43c" transform="translate(9941.015625 0)"/>
    <use xlink:href="#DejaVuSans-435" transform="translate(10016.455078 0)"/>
    <use xlink:href="#DejaVuSans-43d" transform="translate(10077.978516 0)"/>
    <use xlink:href="#DejaVuSans-435" transform="translate(10143.359375 0)"/>
    <use xlink:href="#DejaVuSans-43d" transform="translate(10204.882812 0)"/>
    <use xlink:href="#DejaVuSans-438" transform="translate(10270.263672 0)"/>
    <use xlink:href="#DejaVuSans-44f" transform="translate(10335.253906 0)"/>
    <use xlink:href="#DejaVuSans-20" transform="translate(10395.410156 0)"/>
    <use xlink:href="#DejaVuSans-431" transform="translate(10427.197266 0)"/>
    <use xlink:href="#DejaVuSans-435" transform="translate(10488.867188 0)"/>
    <use xlink:href="#DejaVuSans-437" transform="translate(10550.390625 0)"/>
    <use xlink:href="#DejaVuSans-20" transform="translate(10603.564453 0)"/>
    <use xlink:href="#DejaVuSans-441" transform="translate(10635.351562 0)"/>
    <use xlink:href="#DejaVuSans-43c" transform="translate(10690.332031 0)"/>
    <use xlink:href="#DejaVuSans-435" transform="translate(10765.771484 0)"/>
    <use xlink:href="#DejaVuSans-448" transform="translate(10827.294922 0)"/>
    <use xlink:href="#DejaVuSans-435" transform="translate(10918.798828 0)"/>
    <use xlink:href="#DejaVuSans-43d" transform="translate(10980.322266 0)"/>
    <use xlink:href="#DejaVuSans-438" transform="translate(11045.703125 0)"/>
    <use xlink:href="#DejaVuSans-44f" transform="translate(11110.693359 0)"/>
    <use xlink:href="#DejaVuSans-20" transform="translate(11170.849609 0)"/>
    <use xlink:href="#DejaVuSans-441" transform="translate(11202.636719 0)"/>
    <use xlink:href="#DejaVuSans-20" transform="translate(11257.617188 0)"/>
    <use xlink:href="#DejaVuSans-43d" transform="translate(11289.404297 0)"/>
    <use xlink:href="#DejaVuSans-430" transform="translate(11354.785156 0)"/>
    <use xlink:href="#DejaVuSans-43f" transform="translate(11416.064453 0)"/>
    <use xlink:href="#DejaVuSans-440" transform="translate(11481.445312 0)"/>
    <use xlink:href="#DejaVuSans-430" transform="translate(11544.921875 0)"/>
    <use xlink:href="#DejaVuSans-432" transform="translate(11606.201172 0)"/>
    <use xlink:href="#DejaVuSans-43b" transform="translate(11665.136719 0)"/>
    <use xlink:href="#DejaVuSans-435" transform="translate(11729.052734 0)"/>
    <use xlink:href="#DejaVuSans-43d" transform="translate(11790.576172 0)"/>
    <use xlink:href="#DejaVuSans-438" transform="translate(11855.957031 0)"/>
    <use xlink:href="#DejaVuSans-435" transform="translate(11920.947266 0)"/>
    <use xlink:href="#DejaVuSans-43c" transform="translate(11982.470703 0)"/>
    <use xlink:href="#DejaVuSans-2e" transform="translate(12057.910156 0)"/>
   </g>
  </g>
 </g>
 <defs>
  <clipPath id="p7a1585576a">
   <rect x="124.68" y="60.5157" width="763.813903" height="341.479"/>
  </clipPath>
 </defs>
</svg>
