<?xml version="1.0" encoding="utf-8" standalone="no"?>
<!DOCTYPE svg PUBLIC "-//W3C//DTD SVG 1.1//EN"
  "http://www.w3.org/Graphics/SVG/1.1/DTD/svg11.dtd">
<svg xmlns:xlink="http://www.w3.org/1999/xlink" width="941.51537pt" height="523.91952pt" viewBox="0 0 941.51537 523.91952" xmlns="http://www.w3.org/2000/svg" version="1.1">
 <metadata>
  <rdf:RDF xmlns:dc="http://purl.org/dc/elements/1.1/" xmlns:cc="http://creativecommons.org/ns#" xmlns:rdf="http://www.w3.org/1999/02/22-rdf-syntax-ns#">
   <cc:Work>
    <dc:type rdf:resource="http://purl.org/dc/dcmitype/StillImage"/>
    <dc:date>2026-04-12T22:09:36.381042</dc:date>
    <dc:format>image/svg+xml</dc:format>
    <dc:creator>
     <cc:Agent>
      <dc:title>Matplotlib v3.10.1, https://matplotlib.org/</dc:title>
     </cc:Agent>
    </dc:creator>
   </cc:Work>
  </rdf:RDF>
 </metadata>
 <defs>
  <style type="text/css">*{stroke-linejoin: round; stroke-linecap: butt}</style>
 </defs>
 <g id="figure_1">
  <g id="patch_1">
   <path d="M 0 523.91952 
L 941.51537 523.91952 
L 941.51537 0 
L 0 0 
z
" style="fill: #ffffff"/>
  </g>
  <g id="axes_1">
   <g id="text_1">
    <!-- Задача 2. Сводное сравнение согласованности профилей по участкам -->
    <g style="fill: #20262d" transform="translate(206.408262 26.292102) scale(0.16 -0.16)">
     <defs>
      <path id="DejaVuSans-417" d="M 1828 4750 
Q 2597 4750 3084 4423 
Q 3572 4097 3572 3541 
Q 3572 3153 3350 2886 
Q 3128 2619 2719 2516 
Q 3172 2419 3426 2112 
Q 3681 1806 3681 1356 
Q 3681 638 3126 273 
Q 2572 -91 1828 -91 
Q 1447 -91 1003 12 
Q 559 116 422 203 
L 422 853 
Q 900 575 1164 508 
Q 1428 441 1816 441 
Q 2403 441 2728 666 
Q 3053 891 3053 1356 
Q 3053 1769 2764 2001 
Q 2475 2234 1866 2234 
L 1228 2234 
L 1228 2753 
L 1891 2753 
Q 2450 2753 2697 2939 
Q 2944 3125 2944 3475 
Q 2944 3834 2689 4026 
Q 2434 4219 1816 4219 
Q 1397 4219 1253 4181 
Q 1109 4144 469 3903 
L 469 4519 
Q 822 4644 1190 4697 
Q 1559 4750 1828 4750 
z
" transform="scale(0.015625)"/>
      <path id="DejaVuSans-430" d="M 2194 1759 
Q 1497 1759 1228 1600 
Q 959 1441 959 1056 
Q 959 750 1161 570 
Q 1363 391 1709 391 
Q 2188 391 2477 730 
Q 2766 1069 2766 1631 
L 2766 1759 
L 2194 1759 
z
M 3341 1997 
L 3341 0 
L 2766 0 
L 2766 531 
Q 2569 213 2275 61 
Q 1981 -91 1556 -91 
Q 1019 -91 701 211 
Q 384 513 384 1019 
Q 384 1609 779 1909 
Q 1175 2209 1959 2209 
L 2766 2209 
L 2766 2266 
Q 2766 2663 2505 2880 
Q 2244 3097 1772 3097 
Q 1472 3097 1187 3025 
Q 903 2953 641 2809 
L 641 3341 
Q 956 3463 1253 3523 
Q 1550 3584 1831 3584 
Q 2591 3584 2966 3190 
Q 3341 2797 3341 1997 
z
" transform="scale(0.015625)"/>
      <path id="DejaVuSans-434" d="M 1384 459 
L 3053 459 
L 3053 3041 
L 1844 3041 
L 1844 2603 
Q 1844 1316 1475 628 
L 1384 459 
z
M 550 459 
Q 834 584 959 850 
Q 1266 1509 1266 2838 
L 1266 3500 
L 3631 3500 
L 3631 459 
L 4091 459 
L 4091 -884 
L 3631 -884 
L 3631 0 
L 794 0 
L 794 -884 
L 334 -884 
L 334 459 
L 550 459 
z
" transform="scale(0.015625)"/>
      <path id="DejaVuSans-447" d="M 2625 0 
L 2625 1472 
L 1553 1472 
Q 1075 1472 756 1769 
Q 469 2038 469 2613 
L 469 3500 
L 1044 3500 
L 1044 2666 
Q 1044 2300 1206 2116 
Q 1372 1931 1697 1931 
L 2625 1931 
L 2625 3500 
L 3200 3500 
L 3200 0 
L 2625 0 
z
" transform="scale(0.015625)"/>
      <path id="DejaVuSans-20" transform="scale(0.015625)"/>
      <path id="DejaVuSans-32" d="M 1228 531 
L 3431 531 
L 3431 0 
L 469 0 
L 469 531 
Q 828 903 1448 1529 
Q 2069 2156 2228 2338 
Q 2531 2678 2651 2914 
Q 2772 3150 2772 3378 
Q 2772 3750 2511 3984 
Q 2250 4219 1831 4219 
Q 1534 4219 1204 4116 
Q 875 4013 500 3803 
L 500 4441 
Q 881 4594 1212 4672 
Q 1544 4750 1819 4750 
Q 2544 4750 2975 4387 
Q 3406 4025 3406 3419 
Q 3406 3131 3298 2873 
Q 3191 2616 2906 2266 
Q 2828 2175 2409 1742 
Q 1991 1309 1228 531 
z
" transform="scale(0.015625)"/>
      <path id="DejaVuSans-2e" d="M 684 794 
L 1344 794 
L 1344 0 
L 684 0 
L 684 794 
z
" transform="scale(0.015625)"/>
      <path id="DejaVuSans-421" d="M 4122 4306 
L 4122 3641 
Q 3803 3938 3442 4084 
Q 3081 4231 2675 4231 
Q 1875 4231 1450 3742 
Q 1025 3253 1025 2328 
Q 1025 1406 1450 917 
Q 1875 428 2675 428 
Q 3081 428 3442 575 
Q 3803 722 4122 1019 
L 4122 359 
Q 3791 134 3420 21 
Q 3050 -91 2638 -91 
Q 1578 -91 968 557 
Q 359 1206 359 2328 
Q 359 3453 968 4101 
Q 1578 4750 2638 4750 
Q 3056 4750 3426 4639 
Q 3797 4528 4122 4306 
z
" transform="scale(0.015625)"/>
      <path id="DejaVuSans-432" d="M 1156 1613 
L 1156 459 
L 1975 459 
Q 2369 459 2575 607 
Q 2781 756 2781 1038 
Q 2781 1319 2575 1466 
Q 2369 1613 1975 1613 
L 1156 1613 
z
M 1156 3041 
L 1156 2072 
L 1913 2072 
Q 2238 2072 2444 2201 
Q 2650 2331 2650 2563 
Q 2650 2794 2444 2917 
Q 2238 3041 1913 3041 
L 1156 3041 
z
M 581 3500 
L 1950 3500 
Q 2566 3500 2897 3275 
Q 3228 3050 3228 2634 
Q 3228 2313 3059 2123 
Q 2891 1934 2559 1888 
Q 2956 1813 3175 1575 
Q 3394 1338 3394 981 
Q 3394 513 3033 256 
Q 2672 0 2003 0 
L 581 0 
L 581 3500 
z
" transform="scale(0.015625)"/>
      <path id="DejaVuSans-43e" d="M 1959 3097 
Q 1497 3097 1228 2736 
Q 959 2375 959 1747 
Q 959 1119 1226 758 
Q 1494 397 1959 397 
Q 2419 397 2687 759 
Q 2956 1122 2956 1747 
Q 2956 2369 2687 2733 
Q 2419 3097 1959 3097 
z
M 1959 3584 
Q 2709 3584 3137 3096 
Q 3566 2609 3566 1747 
Q 3566 888 3137 398 
Q 2709 -91 1959 -91 
Q 1206 -91 779 398 
Q 353 888 353 1747 
Q 353 2609 779 3096 
Q 1206 3584 1959 3584 
z
" transform="scale(0.015625)"/>
      <path id="DejaVuSans-43d" d="M 581 3500 
L 1159 3500 
L 1159 2072 
L 3025 2072 
L 3025 3500 
L 3603 3500 
L 3603 0 
L 3025 0 
L 3025 1613 
L 1159 1613 
L 1159 0 
L 581 0 
L 581 3500 
z
" transform="scale(0.015625)"/>
      <path id="DejaVuSans-435" d="M 3597 1894 
L 3597 1613 
L 953 1613 
Q 991 1019 1311 708 
Q 1631 397 2203 397 
Q 2534 397 2845 478 
Q 3156 559 3463 722 
L 3463 178 
Q 3153 47 2828 -22 
Q 2503 -91 2169 -91 
Q 1331 -91 842 396 
Q 353 884 353 1716 
Q 353 2575 817 3079 
Q 1281 3584 2069 3584 
Q 2775 3584 3186 3129 
Q 3597 2675 3597 1894 
z
M 3022 2063 
Q 3016 2534 2758 2815 
Q 2500 3097 2075 3097 
Q 1594 3097 1305 2825 
Q 1016 2553 972 2059 
L 3022 2063 
z
" transform="scale(0.015625)"/>
      <path id="DejaVuSans-441" d="M 3122 3366 
L 3122 2828 
Q 2878 2963 2633 3030 
Q 2388 3097 2138 3097 
Q 1578 3097 1268 2742 
Q 959 2388 959 1747 
Q 959 1106 1268 751 
Q 1578 397 2138 397 
Q 2388 397 2633 464 
Q 2878 531 3122 666 
L 3122 134 
Q 2881 22 2623 -34 
Q 2366 -91 2075 -91 
Q 1284 -91 818 406 
Q 353 903 353 1747 
Q 353 2603 823 3093 
Q 1294 3584 2113 3584 
Q 2378 3584 2631 3529 
Q 2884 3475 3122 3366 
z
" transform="scale(0.015625)"/>
      <path id="DejaVuSans-440" d="M 1159 525 
L 1159 -1331 
L 581 -1331 
L 581 3500 
L 1159 3500 
L 1159 2969 
Q 1341 3281 1617 3432 
Q 1894 3584 2278 3584 
Q 2916 3584 3314 3078 
Q 3713 2572 3713 1747 
Q 3713 922 3314 415 
Q 2916 -91 2278 -91 
Q 1894 -91 1617 61 
Q 1341 213 1159 525 
z
M 3116 1747 
Q 3116 2381 2855 2742 
Q 2594 3103 2138 3103 
Q 1681 3103 1420 2742 
Q 1159 2381 1159 1747 
Q 1159 1113 1420 752 
Q 1681 391 2138 391 
Q 2594 391 2855 752 
Q 3116 1113 3116 1747 
z
" transform="scale(0.015625)"/>
      <path id="DejaVuSans-438" d="M 3578 3500 
L 3578 0 
L 3006 0 
L 3006 2809 
L 1319 0 
L 581 0 
L 581 3500 
L 1153 3500 
L 1153 697 
L 2838 3500 
L 3578 3500 
z
" transform="scale(0.015625)"/>
      <path id="DejaVuSans-433" d="M 581 0 
L 581 3500 
L 3050 3500 
L 3050 3041 
L 1159 3041 
L 1159 0 
L 581 0 
z
" transform="scale(0.015625)"/>
      <path id="DejaVuSans-43b" d="M 238 0 
L 238 478 
Q 806 566 981 959 
Q 1194 1513 1194 2928 
L 1194 3500 
L 3559 3500 
L 3559 0 
L 2984 0 
L 2984 3041 
L 1769 3041 
L 1769 2694 
Q 1769 1344 1494 738 
Q 1200 91 238 0 
z
" transform="scale(0.015625)"/>
      <path id="DejaVuSans-442" d="M 188 3500 
L 3541 3500 
L 3541 3041 
L 2147 3041 
L 2147 0 
L 1581 0 
L 1581 3041 
L 188 3041 
L 188 3500 
z
" transform="scale(0.015625)"/>
      <path id="DejaVuSans-43f" d="M 3603 3500 
L 3603 0 
L 3025 0 
L 3025 3041 
L 1159 3041 
L 1159 0 
L 581 0 
L 581 3500 
L 3603 3500 
z
" transform="scale(0.015625)"/>
      <path id="DejaVuSans-444" d="M 947 1747 
Q 947 1013 1173 702 
Q 1400 391 1784 391 
Q 2091 391 2447 916 
L 2447 2578 
Q 2091 3103 1784 3103 
Q 1400 3103 1173 2792 
Q 947 2481 947 1747 
z
M 2447 -1331 
L 2447 447 
Q 2269 153 2064 31 
Q 1859 -91 1600 -91 
Q 1078 -91 714 392 
Q 350 875 350 1734 
Q 350 2594 714 3089 
Q 1078 3584 1600 3584 
Q 1859 3584 2064 3465 
Q 2269 3347 2447 3053 
L 2447 4666 
L 3025 4666 
L 3025 3053 
Q 3203 3347 3408 3465 
Q 3613 3584 3872 3584 
Q 4394 3584 4758 3089 
Q 5122 2594 5122 1734 
Q 5122 875 4758 392 
Q 4394 -91 3872 -91 
Q 3613 -91 3408 31 
Q 3203 153 3025 447 
L 3025 -1331 
L 2447 -1331 
z
M 4525 1747 
Q 4525 2481 4298 2792 
Q 4072 3103 3688 3103 
Q 3381 3103 3025 2578 
L 3025 916 
Q 3381 391 3688 391 
Q 4072 391 4298 702 
Q 4525 1013 4525 1747 
z
" transform="scale(0.015625)"/>
      <path id="DejaVuSans-439" d="M 3578 3500 
L 3578 0 
L 3006 0 
L 3006 2809 
L 1319 0 
L 581 0 
L 581 3500 
L 1153 3500 
L 1153 697 
L 2838 3500 
L 3578 3500 
z
M 1102 4833 
L 1471 4833 
Q 1505 4599 1656 4481 
Q 1808 4364 2080 4364 
Q 2349 4364 2499 4480 
Q 2649 4596 2689 4833 
L 3058 4833 
Q 3027 4386 2780 4161 
Q 2533 3936 2080 3936 
Q 1627 3936 1380 4161 
Q 1133 4386 1102 4833 
z
" transform="scale(0.015625)"/>
      <path id="DejaVuSans-443" d="M 2059 -325 
Q 1816 -950 1584 -1140 
Q 1353 -1331 966 -1331 
L 506 -1331 
L 506 -850 
L 844 -850 
Q 1081 -850 1212 -737 
Q 1344 -625 1503 -206 
L 1606 56 
L 191 3500 
L 800 3500 
L 1894 763 
L 2988 3500 
L 3597 3500 
L 2059 -325 
z
" transform="scale(0.015625)"/>
      <path id="DejaVuSans-43a" d="M 581 3500 
L 1153 3500 
L 1153 1856 
L 2775 3500 
L 3481 3500 
L 2144 2147 
L 3653 0 
L 3009 0 
L 1769 1766 
L 1153 1141 
L 1153 0 
L 581 0 
L 581 3500 
z
" transform="scale(0.015625)"/>
      <path id="DejaVuSans-43c" d="M 581 3500 
L 1422 3500 
L 2416 1156 
L 3413 3500 
L 4247 3500 
L 4247 0 
L 3669 0 
L 3669 2950 
L 2703 672 
L 2128 672 
L 1159 2950 
L 1159 0 
L 581 0 
L 581 3500 
z
" transform="scale(0.015625)"/>
     </defs>
     <use xlink:href="#DejaVuSans-417"/>
     <use xlink:href="#DejaVuSans-430" transform="translate(64.111328 0)"/>
     <use xlink:href="#DejaVuSans-434" transform="translate(125.390625 0)"/>
     <use xlink:href="#DejaVuSans-430" transform="translate(194.53125 0)"/>
     <use xlink:href="#DejaVuSans-447" transform="translate(255.810547 0)"/>
     <use xlink:href="#DejaVuSans-430" transform="translate(314.892578 0)"/>
     <use xlink:href="#DejaVuSans-20" transform="translate(376.171875 0)"/>
     <use xlink:href="#DejaVuSans-32" transform="translate(407.958984 0)"/>
     <use xlink:href="#DejaVuSans-2e" transform="translate(471.582031 0)"/>
     <use xlink:href="#DejaVuSans-20" transform="translate(503.369141 0)"/>
     <use xlink:href="#DejaVuSans-421" transform="translate(535.15625 0)"/>
     <use xlink:href="#DejaVuSans-432" transform="translate(604.980469 0)"/>
     <use xlink:href="#DejaVuSans-43e" transform="translate(663.916016 0)"/>
     <use xlink:href="#DejaVuSans-434" transform="translate(725.097656 0)"/>
     <use xlink:href="#DejaVuSans-43d" transform="translate(794.238281 0)"/>
     <use xlink:href="#DejaVuSans-43e" transform="translate(859.619141 0)"/>
     <use xlink:href="#DejaVuSans-435" transform="translate(920.800781 0)"/>
     <use xlink:href="#DejaVuSans-20" transform="translate(982.324219 0)"/>
     <use xlink:href="#DejaVuSans-441" transform="translate(1014.111328 0)"/>
     <use xlink:href="#DejaVuSans-440" transform="translate(1069.091797 0)"/>
     <use xlink:href="#DejaVuSans-430" transform="translate(1132.568359 0)"/>
     <use xlink:href="#DejaVuSans-432" transform="translate(1193.847656 0)"/>
     <use xlink:href="#DejaVuSans-43d" transform="translate(1252.783203 0)"/>
     <use xlink:href="#DejaVuSans-435" transform="translate(1318.164062 0)"/>
     <use xlink:href="#DejaVuSans-43d" transform="translate(1379.6875 0)"/>
     <use xlink:href="#DejaVuSans-438" transform="translate(1445.068359 0)"/>
     <use xlink:href="#DejaVuSans-435" transform="translate(1510.058594 0)"/>
     <use xlink:href="#DejaVuSans-20" transform="translate(1571.582031 0)"/>
     <use xlink:href="#DejaVuSans-441" transform="translate(1603.369141 0)"/>
     <use xlink:href="#DejaVuSans-43e" transform="translate(1658.349609 0)"/>
     <use xlink:href="#DejaVuSans-433" transform="translate(1719.53125 0)"/>
     <use xlink:href="#DejaVuSans-43b" transform="translate(1772.070312 0)"/>
     <use xlink:href="#DejaVuSans-430" transform="translate(1835.986328 0)"/>
     <use xlink:href="#DejaVuSans-441" transform="translate(1897.265625 0)"/>
     <use xlink:href="#DejaVuSans-43e" transform="translate(1952.246094 0)"/>
     <use xlink:href="#DejaVuSans-432" transform="translate(2013.427734 0)"/>
     <use xlink:href="#DejaVuSans-430" transform="translate(2072.363281 0)"/>
     <use xlink:href="#DejaVuSans-43d" transform="translate(2133.642578 0)"/>
     <use xlink:href="#DejaVuSans-43d" transform="translate(2199.023438 0)"/>
     <use xlink:href="#DejaVuSans-43e" transform="translate(2264.404297 0)"/>
     <use xlink:href="#DejaVuSans-441" transform="translate(2325.585938 0)"/>
     <use xlink:href="#DejaVuSans-442" transform="translate(2380.566406 0)"/>
     <use xlink:href="#DejaVuSans-438" transform="translate(2438.818359 0)"/>
     <use xlink:href="#DejaVuSans-20" transform="translate(2503.808594 0)"/>
     <use xlink:href="#DejaVuSans-43f" transform="translate(2535.595703 0)"/>
     <use xlink:href="#DejaVuSans-440" transform="translate(2600.976562 0)"/>
     <use xlink:href="#DejaVuSans-43e" transform="translate(2664.453125 0)"/>
     <use xlink:href="#DejaVuSans-444" transform="translate(2725.634766 0)"/>
     <use xlink:href="#DejaVuSans-438" transform="translate(2811.132812 0)"/>
     <use xlink:href="#DejaVuSans-43b" transform="translate(2876.123047 0)"/>
     <use xlink:href="#DejaVuSans-435" transform="translate(2940.039062 0)"/>
     <use xlink:href="#DejaVuSans-439" transform="translate(3001.5625 0)"/>
     <use xlink:href="#DejaVuSans-20" transform="translate(3066.552734 0)"/>
     <use xlink:href="#DejaVuSans-43f" transform="translate(3098.339844 0)"/>
     <use xlink:href="#DejaVuSans-43e" transform="translate(3163.720703 0)"/>
     <use xlink:href="#DejaVuSans-20" transform="translate(3224.902344 0)"/>
     <use xlink:href="#DejaVuSans-443" transform="translate(3256.689453 0)"/>
     <use xlink:href="#DejaVuSans-447" transform="translate(3315.869141 0)"/>
     <use xlink:href="#DejaVuSans-430" transform="translate(3374.951172 0)"/>
     <use xlink:href="#DejaVuSans-441" transform="translate(3436.230469 0)"/>
     <use xlink:href="#DejaVuSans-442" transform="translate(3491.210938 0)"/>
     <use xlink:href="#DejaVuSans-43a" transform="translate(3549.462891 0)"/>
     <use xlink:href="#DejaVuSans-430" transform="translate(3609.863281 0)"/>
     <use xlink:href="#DejaVuSans-43c" transform="translate(3671.142578 0)"/>
    </g>
   </g>
   <g id="text_2">
    <!-- Справа указано число общих интервалов; пометка осторожности добавлена только там, где она действительно нужна. -->
    <g style="fill: #46505b" transform="translate(124.302422 59.215782) scale(0.0915 -0.0915)">
     <defs>
      <path id="DejaVuSans-437" d="M 2206 1888 
Q 2594 1813 2809 1584 
Q 3025 1356 3025 1019 
Q 3025 478 2622 193 
Q 2219 -91 1475 -91 
Q 1225 -91 961 -47 
Q 697 -3 416 84 
L 416 619 
Q 638 503 903 445 
Q 1169 388 1459 388 
Q 1931 388 2195 563 
Q 2459 738 2459 1019 
Q 2459 1294 2225 1461 
Q 1991 1628 1563 1628 
L 1100 1628 
L 1100 2103 
L 1584 2103 
Q 1947 2103 2158 2242 
Q 2369 2381 2369 2600 
Q 2369 2800 2151 2944 
Q 1934 3088 1563 3088 
Q 1341 3088 1089 3047 
Q 838 3006 534 2916 
L 534 3438 
Q 841 3513 1106 3550 
Q 1372 3588 1609 3588 
Q 2222 3588 2576 3342 
Q 2931 3097 2931 2656 
Q 2931 2366 2743 2164 
Q 2556 1963 2206 1888 
z
" transform="scale(0.015625)"/>
      <path id="DejaVuSans-431" d="M 1991 3584 
Q 2741 3584 3169 3096 
Q 3597 2609 3597 1747 
Q 3597 888 3169 398 
Q 2741 -91 1991 -91 
Q 1238 -91 822 384 
Q 406 859 384 1747 
L 366 2463 
Q 350 2834 350 2963 
Q 350 3463 531 3831 
Q 816 4409 1308 4659 
Q 1800 4909 2625 4916 
Q 3006 4919 3175 4972 
L 3334 4516 
Q 3181 4453 3041 4450 
L 2259 4397 
Q 1866 4369 1628 4231 
Q 1006 3866 947 3388 
L 925 3213 
Q 1331 3584 1991 3584 
z
M 1991 3097 
Q 1528 3097 1259 2736 
Q 991 2375 991 1747 
Q 991 1119 1258 758 
Q 1525 397 1991 397 
Q 2450 397 2719 759 
Q 2988 1122 2988 1747 
Q 2988 2369 2719 2733 
Q 2450 3097 1991 3097 
z
" transform="scale(0.015625)"/>
      <path id="DejaVuSans-449" d="M 5275 0 
L 581 0 
L 581 3500 
L 1159 3500 
L 1159 459 
L 2638 459 
L 2638 3500 
L 3216 3500 
L 3216 459 
L 4697 459 
L 4697 3500 
L 5275 3500 
L 5275 459 
L 5734 459 
L 5734 -884 
L 5275 -884 
L 5275 0 
z
" transform="scale(0.015625)"/>
      <path id="DejaVuSans-445" d="M 3513 3500 
L 2247 1797 
L 3578 0 
L 2900 0 
L 1881 1375 
L 863 0 
L 184 0 
L 1544 1831 
L 300 3500 
L 978 3500 
L 1906 2253 
L 2834 3500 
L 3513 3500 
z
" transform="scale(0.015625)"/>
      <path id="DejaVuSans-3b" d="M 750 3309 
L 1409 3309 
L 1409 2516 
L 750 2516 
L 750 3309 
z
M 750 794 
L 1409 794 
L 1409 256 
L 897 -744 
L 494 -744 
L 750 256 
L 750 794 
z
" transform="scale(0.015625)"/>
      <path id="DejaVuSans-436" d="M 2597 3500 
L 3169 3500 
L 3169 1856 
L 4697 3500 
L 5366 3500 
L 4109 2153 
L 5547 0 
L 4931 0 
L 3753 1769 
L 3169 1141 
L 3169 0 
L 2597 0 
L 2597 1141 
L 2013 1769 
L 834 0 
L 219 0 
L 1656 2153 
L 400 3500 
L 1069 3500 
L 2597 1856 
L 2597 3500 
z
" transform="scale(0.015625)"/>
      <path id="DejaVuSans-44c" d="M 2781 1038 
Q 2781 1319 2576 1466 
Q 2372 1613 1978 1613 
L 1159 1613 
L 1159 459 
L 1978 459 
Q 2372 459 2576 607 
Q 2781 756 2781 1038 
z
M 581 3500 
L 1159 3500 
L 1159 2072 
L 2003 2072 
Q 2672 2072 3033 1817 
Q 3394 1563 3394 1038 
Q 3394 513 3033 256 
Q 2672 0 2003 0 
L 581 0 
L 581 3500 
z
" transform="scale(0.015625)"/>
      <path id="DejaVuSans-2c" d="M 750 794 
L 1409 794 
L 1409 256 
L 897 -744 
L 494 -744 
L 750 256 
L 750 794 
z
" transform="scale(0.015625)"/>
     </defs>
     <use xlink:href="#DejaVuSans-421"/>
     <use xlink:href="#DejaVuSans-43f" transform="translate(69.824219 0)"/>
     <use xlink:href="#DejaVuSans-440" transform="translate(135.205078 0)"/>
     <use xlink:href="#DejaVuSans-430" transform="translate(198.681641 0)"/>
     <use xlink:href="#DejaVuSans-432" transform="translate(259.960938 0)"/>
     <use xlink:href="#DejaVuSans-430" transform="translate(318.896484 0)"/>
     <use xlink:href="#DejaVuSans-20" transform="translate(380.175781 0)"/>
     <use xlink:href="#DejaVuSans-443" transform="translate(411.962891 0)"/>
     <use xlink:href="#DejaVuSans-43a" transform="translate(471.142578 0)"/>
     <use xlink:href="#DejaVuSans-430" transform="translate(531.542969 0)"/>
     <use xlink:href="#DejaVuSans-437" transform="translate(592.822266 0)"/>
     <use xlink:href="#DejaVuSans-430" transform="translate(645.996094 0)"/>
     <use xlink:href="#DejaVuSans-43d" transform="translate(707.275391 0)"/>
     <use xlink:href="#DejaVuSans-43e" transform="translate(772.65625 0)"/>
     <use xlink:href="#DejaVuSans-20" transform="translate(833.837891 0)"/>
     <use xlink:href="#DejaVuSans-447" transform="translate(865.625 0)"/>
     <use xlink:href="#DejaVuSans-438" transform="translate(924.707031 0)"/>
     <use xlink:href="#DejaVuSans-441" transform="translate(989.697266 0)"/>
     <use xlink:href="#DejaVuSans-43b" transform="translate(1044.677734 0)"/>
     <use xlink:href="#DejaVuSans-43e" transform="translate(1108.59375 0)"/>
     <use xlink:href="#DejaVuSans-20" transform="translate(1169.775391 0)"/>
     <use xlink:href="#DejaVuSans-43e" transform="translate(1201.5625 0)"/>
     <use xlink:href="#DejaVuSans-431" transform="translate(1262.744141 0)"/>
     <use xlink:href="#DejaVuSans-449" transform="translate(1324.414062 0)"/>
     <use xlink:href="#DejaVuSans-438" transform="translate(1418.603516 0)"/>
     <use xlink:href="#DejaVuSans-445" transform="translate(1483.59375 0)"/>
     <use xlink:href="#DejaVuSans-20" transform="translate(1542.773438 0)"/>
     <use xlink:href="#DejaVuSans-438" transform="translate(1574.560547 0)"/>
     <use xlink:href="#DejaVuSans-43d" transform="translate(1639.550781 0)"/>
     <use xlink:href="#DejaVuSans-442" transform="translate(1704.931641 0)"/>
     <use xlink:href="#DejaVuSans-435" transform="translate(1763.183594 0)"/>
     <use xlink:href="#DejaVuSans-440" transform="translate(1824.707031 0)"/>
     <use xlink:href="#DejaVuSans-432" transform="translate(1888.183594 0)"/>
     <use xlink:href="#DejaVuSans-430" transform="translate(1947.119141 0)"/>
     <use xlink:href="#DejaVuSans-43b" transform="translate(2008.398438 0)"/>
     <use xlink:href="#DejaVuSans-43e" transform="translate(2072.314453 0)"/>
     <use xlink:href="#DejaVuSans-432" transform="translate(2133.496094 0)"/>
     <use xlink:href="#DejaVuSans-3b" transform="translate(2192.431641 0)"/>
     <use xlink:href="#DejaVuSans-20" transform="translate(2226.123047 0)"/>
     <use xlink:href="#DejaVuSans-43f" transform="translate(2257.910156 0)"/>
     <use xlink:href="#DejaVuSans-43e" transform="translate(2323.291016 0)"/>
     <use xlink:href="#DejaVuSans-43c" transform="translate(2384.472656 0)"/>
     <use xlink:href="#DejaVuSans-435" transform="translate(2459.912109 0)"/>
     <use xlink:href="#DejaVuSans-442" transform="translate(2521.435547 0)"/>
     <use xlink:href="#DejaVuSans-43a" transform="translate(2579.6875 0)"/>
     <use xlink:href="#DejaVuSans-430" transform="translate(2640.087891 0)"/>
     <use xlink:href="#DejaVuSans-20" transform="translate(2701.367188 0)"/>
     <use xlink:href="#DejaVuSans-43e" transform="translate(2733.154297 0)"/>
     <use xlink:href="#DejaVuSans-441" transform="translate(2794.335938 0)"/>
     <use xlink:href="#DejaVuSans-442" transform="translate(2849.316406 0)"/>
     <use xlink:href="#DejaVuSans-43e" transform="translate(2907.568359 0)"/>
     <use xlink:href="#DejaVuSans-440" transform="translate(2968.75 0)"/>
     <use xlink:href="#DejaVuSans-43e" transform="translate(3032.226562 0)"/>
     <use xlink:href="#DejaVuSans-436" transform="translate(3093.408203 0)"/>
     <use xlink:href="#DejaVuSans-43d" transform="translate(3183.496094 0)"/>
     <use xlink:href="#DejaVuSans-43e" transform="translate(3248.876953 0)"/>
     <use xlink:href="#DejaVuSans-441" transform="translate(3310.058594 0)"/>
     <use xlink:href="#DejaVuSans-442" transform="translate(3365.039062 0)"/>
     <use xlink:href="#DejaVuSans-438" transform="translate(3423.291016 0)"/>
     <use xlink:href="#DejaVuSans-20" transform="translate(3488.28125 0)"/>
     <use xlink:href="#DejaVuSans-434" transform="translate(3520.068359 0)"/>
     <use xlink:href="#DejaVuSans-43e" transform="translate(3589.208984 0)"/>
     <use xlink:href="#DejaVuSans-431" transform="translate(3650.390625 0)"/>
     <use xlink:href="#DejaVuSans-430" transform="translate(3712.060547 0)"/>
     <use xlink:href="#DejaVuSans-432" transform="translate(3773.339844 0)"/>
     <use xlink:href="#DejaVuSans-43b" transform="translate(3832.275391 0)"/>
     <use xlink:href="#DejaVuSans-435" transform="translate(3896.191406 0)"/>
     <use xlink:href="#DejaVuSans-43d" transform="translate(3957.714844 0)"/>
     <use xlink:href="#DejaVuSans-430" transform="translate(4023.095703 0)"/>
     <use xlink:href="#DejaVuSans-20" transform="translate(4084.375 0)"/>
     <use xlink:href="#DejaVuSans-442" transform="translate(4116.162109 0)"/>
     <use xlink:href="#DejaVuSans-43e" transform="translate(4174.414062 0)"/>
     <use xlink:href="#DejaVuSans-43b" transform="translate(4235.595703 0)"/>
     <use xlink:href="#DejaVuSans-44c" transform="translate(4299.511719 0)"/>
     <use xlink:href="#DejaVuSans-43a" transform="translate(4358.447266 0)"/>
     <use xlink:href="#DejaVuSans-43e" transform="translate(4418.847656 0)"/>
     <use xlink:href="#DejaVuSans-20" transform="translate(4480.029297 0)"/>
     <use xlink:href="#DejaVuSans-442" transform="translate(4511.816406 0)"/>
     <use xlink:href="#DejaVuSans-430" transform="translate(4570.068359 0)"/>
     <use xlink:href="#DejaVuSans-43c" transform="translate(4631.347656 0)"/>
     <use xlink:href="#DejaVuSans-2c" transform="translate(4706.787109 0)"/>
     <use xlink:href="#DejaVuSans-20" transform="translate(4738.574219 0)"/>
     <use xlink:href="#DejaVuSans-433" transform="translate(4770.361328 0)"/>
     <use xlink:href="#DejaVuSans-434" transform="translate(4822.900391 0)"/>
     <use xlink:href="#DejaVuSans-435" transform="translate(4892.041016 0)"/>
     <use xlink:href="#DejaVuSans-20" transform="translate(4953.564453 0)"/>
     <use xlink:href="#DejaVuSans-43e" transform="translate(4985.351562 0)"/>
     <use xlink:href="#DejaVuSans-43d" transform="translate(5046.533203 0)"/>
     <use xlink:href="#DejaVuSans-430" transform="translate(5111.914062 0)"/>
     <use xlink:href="#DejaVuSans-20" transform="translate(5173.193359 0)"/>
     <use xlink:href="#DejaVuSans-434" transform="translate(5204.980469 0)"/>
     <use xlink:href="#DejaVuSans-435" transform="translate(5274.121094 0)"/>
     <use xlink:href="#DejaVuSans-439" transform="translate(5335.644531 0)"/>
     <use xlink:href="#DejaVuSans-441" transform="translate(5400.634766 0)"/>
     <use xlink:href="#DejaVuSans-442" transform="translate(5455.615234 0)"/>
     <use xlink:href="#DejaVuSans-432" transform="translate(5513.867188 0)"/>
     <use xlink:href="#DejaVuSans-438" transform="translate(5572.802734 0)"/>
     <use xlink:href="#DejaVuSans-442" transform="translate(5637.792969 0)"/>
     <use xlink:href="#DejaVuSans-435" transform="translate(5696.044922 0)"/>
     <use xlink:href="#DejaVuSans-43b" transform="translate(5757.568359 0)"/>
     <use xlink:href="#DejaVuSans-44c" transform="translate(5821.484375 0)"/>
     <use xlink:href="#DejaVuSans-43d" transform="translate(5880.419922 0)"/>
     <use xlink:href="#DejaVuSans-43e" transform="translate(5945.800781 0)"/>
     <use xlink:href="#DejaVuSans-20" transform="translate(6006.982422 0)"/>
     <use xlink:href="#DejaVuSans-43d" transform="translate(6038.769531 0)"/>
     <use xlink:href="#DejaVuSans-443" transform="translate(6104.150391 0)"/>
     <use xlink:href="#DejaVuSans-436" transform="translate(6163.330078 0)"/>
     <use xlink:href="#DejaVuSans-43d" transform="translate(6253.417969 0)"/>
     <use xlink:href="#DejaVuSans-430" transform="translate(6318.798828 0)"/>
     <use xlink:href="#DejaVuSans-2e" transform="translate(6380.078125 0)"/>
    </g>
   </g>
  </g>
  <g id="axes_2">
   <g id="patch_2">
    <path d="M 124.302422 444.753825 
L 887.974103 444.753825 
L 887.974103 77.690597 
L 124.302422 77.690597 
z
" style="fill: #ffffff"/>
   </g>
   <g id="matplotlib.axis_1">
    <g id="xtick_1">
     <g id="line2d_1">
      <path d="M 124.302422 444.753825 
L 124.302422 77.690597 
" clip-path="url(#p7234de84cb)" style="fill: none; stroke: #d7dde5; stroke-opacity: 0.7; stroke-width: 0.8; stroke-linecap: square"/>
     </g>
     <g id="line2d_2">
      <defs>
       <path id="maeafe8173b" d="M 0 0 
L 0 3.5 
" style="stroke: #000000; stroke-width: 0.8"/>
      </defs>
      <g>
       <use xlink:href="#maeafe8173b" x="124.302422" y="444.753825" style="stroke: #000000; stroke-width: 0.8"/>
      </g>
     </g>
     <g id="text_3">
      <!-- −1.00 -->
      <g transform="translate(109.745898 458.972341) scale(0.095 -0.095)">
       <defs>
        <path id="DejaVuSans-2212" d="M 678 2272 
L 4684 2272 
L 4684 1741 
L 678 1741 
L 678 2272 
z
" transform="scale(0.015625)"/>
        <path id="DejaVuSans-31" d="M 794 531 
L 1825 531 
L 1825 4091 
L 703 3866 
L 703 4441 
L 1819 4666 
L 2450 4666 
L 2450 531 
L 3481 531 
L 3481 0 
L 794 0 
L 794 531 
z
" transform="scale(0.015625)"/>
        <path id="DejaVuSans-30" d="M 2034 4250 
Q 1547 4250 1301 3770 
Q 1056 3291 1056 2328 
Q 1056 1369 1301 889 
Q 1547 409 2034 409 
Q 2525 409 2770 889 
Q 3016 1369 3016 2328 
Q 3016 3291 2770 3770 
Q 2525 4250 2034 4250 
z
M 2034 4750 
Q 2819 4750 3233 4129 
Q 3647 3509 3647 2328 
Q 3647 1150 3233 529 
Q 2819 -91 2034 -91 
Q 1250 -91 836 529 
Q 422 1150 422 2328 
Q 422 3509 836 4129 
Q 1250 4750 2034 4750 
z
" transform="scale(0.015625)"/>
       </defs>
       <use xlink:href="#DejaVuSans-2212"/>
       <use xlink:href="#DejaVuSans-31" transform="translate(83.789062 0)"/>
       <use xlink:href="#DejaVuSans-2e" transform="translate(147.412109 0)"/>
       <use xlink:href="#DejaVuSans-30" transform="translate(179.199219 0)"/>
       <use xlink:href="#DejaVuSans-30" transform="translate(242.822266 0)"/>
      </g>
     </g>
    </g>
    <g id="xtick_2">
     <g id="line2d_3">
      <path d="M 210.301485 444.753825 
L 210.301485 77.690597 
" clip-path="url(#p7234de84cb)" style="fill: none; stroke: #d7dde5; stroke-opacity: 0.7; stroke-width: 0.8; stroke-linecap: square"/>
     </g>
     <g id="line2d_4">
      <g>
       <use xlink:href="#maeafe8173b" x="210.301485" y="444.753825" style="stroke: #000000; stroke-width: 0.8"/>
      </g>
     </g>
     <g id="text_4">
      <!-- −0.75 -->
      <g transform="translate(195.744962 458.972341) scale(0.095 -0.095)">
       <defs>
        <path id="DejaVuSans-37" d="M 525 4666 
L 3525 4666 
L 3525 4397 
L 1831 0 
L 1172 0 
L 2766 4134 
L 525 4134 
L 525 4666 
z
" transform="scale(0.015625)"/>
        <path id="DejaVuSans-35" d="M 691 4666 
L 3169 4666 
L 3169 4134 
L 1269 4134 
L 1269 2991 
Q 1406 3038 1543 3061 
Q 1681 3084 1819 3084 
Q 2600 3084 3056 2656 
Q 3513 2228 3513 1497 
Q 3513 744 3044 326 
Q 2575 -91 1722 -91 
Q 1428 -91 1123 -41 
Q 819 9 494 109 
L 494 744 
Q 775 591 1075 516 
Q 1375 441 1709 441 
Q 2250 441 2565 725 
Q 2881 1009 2881 1497 
Q 2881 1984 2565 2268 
Q 2250 2553 1709 2553 
Q 1456 2553 1204 2497 
Q 953 2441 691 2322 
L 691 4666 
z
" transform="scale(0.015625)"/>
       </defs>
       <use xlink:href="#DejaVuSans-2212"/>
       <use xlink:href="#DejaVuSans-30" transform="translate(83.789062 0)"/>
       <use xlink:href="#DejaVuSans-2e" transform="translate(147.412109 0)"/>
       <use xlink:href="#DejaVuSans-37" transform="translate(179.199219 0)"/>
       <use xlink:href="#DejaVuSans-35" transform="translate(242.822266 0)"/>
      </g>
     </g>
    </g>
    <g id="xtick_3">
     <g id="line2d_5">
      <path d="M 296.300548 444.753825 
L 296.300548 77.690597 
" clip-path="url(#p7234de84cb)" style="fill: none; stroke: #d7dde5; stroke-opacity: 0.7; stroke-width: 0.8; stroke-linecap: square"/>
     </g>
     <g id="line2d_6">
      <g>
       <use xlink:href="#maeafe8173b" x="296.300548" y="444.753825" style="stroke: #000000; stroke-width: 0.8"/>
      </g>
     </g>
     <g id="text_5">
      <!-- −0.50 -->
      <g transform="translate(281.744025 458.972341) scale(0.095 -0.095)">
       <use xlink:href="#DejaVuSans-2212"/>
       <use xlink:href="#DejaVuSans-30" transform="translate(83.789062 0)"/>
       <use xlink:href="#DejaVuSans-2e" transform="translate(147.412109 0)"/>
       <use xlink:href="#DejaVuSans-35" transform="translate(179.199219 0)"/>
       <use xlink:href="#DejaVuSans-30" transform="translate(242.822266 0)"/>
      </g>
     </g>
    </g>
    <g id="xtick_4">
     <g id="line2d_7">
      <path d="M 382.299611 444.753825 
L 382.299611 77.690597 
" clip-path="url(#p7234de84cb)" style="fill: none; stroke: #d7dde5; stroke-opacity: 0.7; stroke-width: 0.8; stroke-linecap: square"/>
     </g>
     <g id="line2d_8">
      <g>
       <use xlink:href="#maeafe8173b" x="382.299611" y="444.753825" style="stroke: #000000; stroke-width: 0.8"/>
      </g>
     </g>
     <g id="text_6">
      <!-- −0.25 -->
      <g transform="translate(367.743088 458.972341) scale(0.095 -0.095)">
       <use xlink:href="#DejaVuSans-2212"/>
       <use xlink:href="#DejaVuSans-30" transform="translate(83.789062 0)"/>
       <use xlink:href="#DejaVuSans-2e" transform="translate(147.412109 0)"/>
       <use xlink:href="#DejaVuSans-32" transform="translate(179.199219 0)"/>
       <use xlink:href="#DejaVuSans-35" transform="translate(242.822266 0)"/>
      </g>
     </g>
    </g>
    <g id="xtick_5">
     <g id="line2d_9">
      <path d="M 468.298675 444.753825 
L 468.298675 77.690597 
" clip-path="url(#p7234de84cb)" style="fill: none; stroke: #d7dde5; stroke-opacity: 0.7; stroke-width: 0.8; stroke-linecap: square"/>
     </g>
     <g id="line2d_10">
      <g>
       <use xlink:href="#maeafe8173b" x="468.298675" y="444.753825" style="stroke: #000000; stroke-width: 0.8"/>
      </g>
     </g>
     <g id="text_7">
      <!-- 0.00 -->
      <g transform="translate(457.722503 458.972341) scale(0.095 -0.095)">
       <use xlink:href="#DejaVuSans-30"/>
       <use xlink:href="#DejaVuSans-2e" transform="translate(63.623047 0)"/>
       <use xlink:href="#DejaVuSans-30" transform="translate(95.410156 0)"/>
       <use xlink:href="#DejaVuSans-30" transform="translate(159.033203 0)"/>
      </g>
     </g>
    </g>
    <g id="xtick_6">
     <g id="line2d_11">
      <path d="M 554.297738 444.753825 
L 554.297738 77.690597 
" clip-path="url(#p7234de84cb)" style="fill: none; stroke: #d7dde5; stroke-opacity: 0.7; stroke-width: 0.8; stroke-linecap: square"/>
     </g>
     <g id="line2d_12">
      <g>
       <use xlink:href="#maeafe8173b" x="554.297738" y="444.753825" style="stroke: #000000; stroke-width: 0.8"/>
      </g>
     </g>
     <g id="text_8">
      <!-- 0.25 -->
      <g transform="translate(543.721566 458.972341) scale(0.095 -0.095)">
       <use xlink:href="#DejaVuSans-30"/>
       <use xlink:href="#DejaVuSans-2e" transform="translate(63.623047 0)"/>
       <use xlink:href="#DejaVuSans-32" transform="translate(95.410156 0)"/>
       <use xlink:href="#DejaVuSans-35" transform="translate(159.033203 0)"/>
      </g>
     </g>
    </g>
    <g id="xtick_7">
     <g id="line2d_13">
      <path d="M 640.296801 444.753825 
L 640.296801 77.690597 
" clip-path="url(#p7234de84cb)" style="fill: none; stroke: #d7dde5; stroke-opacity: 0.7; stroke-width: 0.8; stroke-linecap: square"/>
     </g>
     <g id="line2d_14">
      <g>
       <use xlink:href="#maeafe8173b" x="640.296801" y="444.753825" style="stroke: #000000; stroke-width: 0.8"/>
      </g>
     </g>
     <g id="text_9">
      <!-- 0.50 -->
      <g transform="translate(629.720629 458.972341) scale(0.095 -0.095)">
       <use xlink:href="#DejaVuSans-30"/>
       <use xlink:href="#DejaVuSans-2e" transform="translate(63.623047 0)"/>
       <use xlink:href="#DejaVuSans-35" transform="translate(95.410156 0)"/>
       <use xlink:href="#DejaVuSans-30" transform="translate(159.033203 0)"/>
      </g>
     </g>
    </g>
    <g id="xtick_8">
     <g id="line2d_15">
      <path d="M 726.295864 444.753825 
L 726.295864 77.690597 
" clip-path="url(#p7234de84cb)" style="fill: none; stroke: #d7dde5; stroke-opacity: 0.7; stroke-width: 0.8; stroke-linecap: square"/>
     </g>
     <g id="line2d_16">
      <g>
       <use xlink:href="#maeafe8173b" x="726.295864" y="444.753825" style="stroke: #000000; stroke-width: 0.8"/>
      </g>
     </g>
     <g id="text_10">
      <!-- 0.75 -->
      <g transform="translate(715.719692 458.972341) scale(0.095 -0.095)">
       <use xlink:href="#DejaVuSans-30"/>
       <use xlink:href="#DejaVuSans-2e" transform="translate(63.623047 0)"/>
       <use xlink:href="#DejaVuSans-37" transform="translate(95.410156 0)"/>
       <use xlink:href="#DejaVuSans-35" transform="translate(159.033203 0)"/>
      </g>
     </g>
    </g>
    <g id="xtick_9">
     <g id="line2d_17">
      <path d="M 812.294927 444.753825 
L 812.294927 77.690597 
" clip-path="url(#p7234de84cb)" style="fill: none; stroke: #d7dde5; stroke-opacity: 0.7; stroke-width: 0.8; stroke-linecap: square"/>
     </g>
     <g id="line2d_18">
      <g>
       <use xlink:href="#maeafe8173b" x="812.294927" y="444.753825" style="stroke: #000000; stroke-width: 0.8"/>
      </g>
     </g>
     <g id="text_11">
      <!-- 1.00 -->
      <g transform="translate(801.718755 458.972341) scale(0.095 -0.095)">
       <use xlink:href="#DejaVuSans-31"/>
       <use xlink:href="#DejaVuSans-2e" transform="translate(63.623047 0)"/>
       <use xlink:href="#DejaVuSans-30" transform="translate(95.410156 0)"/>
       <use xlink:href="#DejaVuSans-30" transform="translate(159.033203 0)"/>
      </g>
     </g>
    </g>
    <g id="text_12">
     <!-- Средний коэффициент корреляции по скоростям смещения -->
     <g transform="translate(330.3617 473.306325) scale(0.11 -0.11)">
      <defs>
       <path id="DejaVuSans-44d" d="M 353 666 
Q 847 397 1338 397 
Q 1797 397 2125 664 
Q 2453 931 2513 1613 
L 738 1613 
L 738 2072 
L 2494 2072 
Q 2456 2400 2207 2748 
Q 1959 3097 1338 3097 
Q 856 3097 353 2828 
L 353 3366 
Q 844 3584 1363 3584 
Q 2181 3584 2651 3089 
Q 3122 2594 3122 1747 
Q 3122 903 2664 406 
Q 2206 -91 1403 -91 
Q 813 -91 353 134 
L 353 666 
z
" transform="scale(0.015625)"/>
       <path id="DejaVuSans-446" d="M 3603 0 
L 581 0 
L 581 3500 
L 1159 3500 
L 1159 459 
L 3025 459 
L 3025 3500 
L 3603 3500 
L 3603 459 
L 4063 459 
L 4063 -884 
L 3603 -884 
L 3603 0 
z
" transform="scale(0.015625)"/>
       <path id="DejaVuSans-44f" d="M 1181 2491 
Q 1181 2231 1381 2084 
Q 1581 1938 1953 1938 
L 2728 1938 
L 2728 3041 
L 1953 3041 
Q 1581 3041 1381 2897 
Q 1181 2753 1181 2491 
z
M 363 0 
L 1431 1534 
Q 1069 1616 828 1830 
Q 588 2044 588 2491 
Q 588 2997 923 3248 
Q 1259 3500 1938 3500 
L 3306 3500 
L 3306 0 
L 2728 0 
L 2728 1478 
L 2013 1478 
L 981 0 
L 363 0 
z
" transform="scale(0.015625)"/>
      </defs>
      <use xlink:href="#DejaVuSans-421"/>
      <use xlink:href="#DejaVuSans-440" transform="translate(69.824219 0)"/>
      <use xlink:href="#DejaVuSans-435" transform="translate(133.300781 0)"/>
      <use xlink:href="#DejaVuSans-434" transform="translate(194.824219 0)"/>
      <use xlink:href="#DejaVuSans-43d" transform="translate(263.964844 0)"/>
      <use xlink:href="#DejaVuSans-438" transform="translate(329.345703 0)"/>
      <use xlink:href="#DejaVuSans-439" transform="translate(394.335938 0)"/>
      <use xlink:href="#DejaVuSans-20" transform="translate(459.326172 0)"/>
      <use xlink:href="#DejaVuSans-43a" transform="translate(491.113281 0)"/>
      <use xlink:href="#DejaVuSans-43e" transform="translate(551.513672 0)"/>
      <use xlink:href="#DejaVuSans-44d" transform="translate(612.695312 0)"/>
      <use xlink:href="#DejaVuSans-444" transform="translate(667.578125 0)"/>
      <use xlink:href="#DejaVuSans-444" transform="translate(753.076172 0)"/>
      <use xlink:href="#DejaVuSans-438" transform="translate(838.574219 0)"/>
      <use xlink:href="#DejaVuSans-446" transform="translate(903.564453 0)"/>
      <use xlink:href="#DejaVuSans-438" transform="translate(971.630859 0)"/>
      <use xlink:href="#DejaVuSans-435" transform="translate(1036.621094 0)"/>
      <use xlink:href="#DejaVuSans-43d" transform="translate(1098.144531 0)"/>
      <use xlink:href="#DejaVuSans-442" transform="translate(1163.525391 0)"/>
      <use xlink:href="#DejaVuSans-20" transform="translate(1221.777344 0)"/>
      <use xlink:href="#DejaVuSans-43a" transform="translate(1253.564453 0)"/>
      <use xlink:href="#DejaVuSans-43e" transform="translate(1313.964844 0)"/>
      <use xlink:href="#DejaVuSans-440" transform="translate(1375.146484 0)"/>
      <use xlink:href="#DejaVuSans-440" transform="translate(1438.623047 0)"/>
      <use xlink:href="#DejaVuSans-435" transform="translate(1502.099609 0)"/>
      <use xlink:href="#DejaVuSans-43b" transform="translate(1563.623047 0)"/>
      <use xlink:href="#DejaVuSans-44f" transform="translate(1627.539062 0)"/>
      <use xlink:href="#DejaVuSans-446" transform="translate(1687.695312 0)"/>
      <use xlink:href="#DejaVuSans-438" transform="translate(1755.761719 0)"/>
      <use xlink:href="#DejaVuSans-438" transform="translate(1820.751953 0)"/>
      <use xlink:href="#DejaVuSans-20" transform="translate(1885.742188 0)"/>
      <use xlink:href="#DejaVuSans-43f" transform="translate(1917.529297 0)"/>
      <use xlink:href="#DejaVuSans-43e" transform="translate(1982.910156 0)"/>
      <use xlink:href="#DejaVuSans-20" transform="translate(2044.091797 0)"/>
      <use xlink:href="#DejaVuSans-441" transform="translate(2075.878906 0)"/>
      <use xlink:href="#DejaVuSans-43a" transform="translate(2130.859375 0)"/>
      <use xlink:href="#DejaVuSans-43e" transform="translate(2191.259766 0)"/>
      <use xlink:href="#DejaVuSans-440" transform="translate(2252.441406 0)"/>
      <use xlink:href="#DejaVuSans-43e" transform="translate(2315.917969 0)"/>
      <use xlink:href="#DejaVuSans-441" transform="translate(2377.099609 0)"/>
      <use xlink:href="#DejaVuSans-442" transform="translate(2432.080078 0)"/>
      <use xlink:href="#DejaVuSans-44f" transform="translate(2490.332031 0)"/>
      <use xlink:href="#DejaVuSans-43c" transform="translate(2550.488281 0)"/>
      <use xlink:href="#DejaVuSans-20" transform="translate(2625.927734 0)"/>
      <use xlink:href="#DejaVuSans-441" transform="translate(2657.714844 0)"/>
      <use xlink:href="#DejaVuSans-43c" transform="translate(2712.695312 0)"/>
      <use xlink:href="#DejaVuSans-435" transform="translate(2788.134766 0)"/>
      <use xlink:href="#DejaVuSans-449" transform="translate(2849.658203 0)"/>
      <use xlink:href="#DejaVuSans-435" transform="translate(2943.847656 0)"/>
      <use xlink:href="#DejaVuSans-43d" transform="translate(3005.371094 0)"/>
      <use xlink:href="#DejaVuSans-438" transform="translate(3070.751953 0)"/>
      <use xlink:href="#DejaVuSans-44f" transform="translate(3135.742188 0)"/>
     </g>
    </g>
   </g>
   <g id="matplotlib.axis_2">
    <g id="ytick_1">
     <g id="line2d_19"/>
     <g id="text_13">
      <!-- Новоникольское -->
      <g transform="translate(38.205859 97.984547) scale(0.095 -0.095)">
       <defs>
        <path id="DejaVuSans-41d" d="M 628 4666 
L 1259 4666 
L 1259 2753 
L 3553 2753 
L 3553 4666 
L 4184 4666 
L 4184 0 
L 3553 0 
L 3553 2222 
L 1259 2222 
L 1259 0 
L 628 0 
L 628 4666 
z
" transform="scale(0.015625)"/>
       </defs>
       <use xlink:href="#DejaVuSans-41d"/>
       <use xlink:href="#DejaVuSans-43e" transform="translate(75.195312 0)"/>
       <use xlink:href="#DejaVuSans-432" transform="translate(136.376953 0)"/>
       <use xlink:href="#DejaVuSans-43e" transform="translate(195.3125 0)"/>
       <use xlink:href="#DejaVuSans-43d" transform="translate(256.494141 0)"/>
       <use xlink:href="#DejaVuSans-438" transform="translate(321.875 0)"/>
       <use xlink:href="#DejaVuSans-43a" transform="translate(386.865234 0)"/>
       <use xlink:href="#DejaVuSans-43e" transform="translate(447.265625 0)"/>
       <use xlink:href="#DejaVuSans-43b" transform="translate(508.447266 0)"/>
       <use xlink:href="#DejaVuSans-44c" transform="translate(572.363281 0)"/>
       <use xlink:href="#DejaVuSans-441" transform="translate(631.298828 0)"/>
       <use xlink:href="#DejaVuSans-43a" transform="translate(686.279297 0)"/>
       <use xlink:href="#DejaVuSans-43e" transform="translate(746.679688 0)"/>
       <use xlink:href="#DejaVuSans-435" transform="translate(807.861328 0)"/>
      </g>
     </g>
    </g>
    <g id="ytick_2">
     <g id="line2d_20"/>
     <g id="text_14">
      <!-- Молчановка -->
      <g transform="translate(60.103359 139.696277) scale(0.095 -0.095)">
       <defs>
        <path id="DejaVuSans-41c" d="M 628 4666 
L 1569 4666 
L 2759 1491 
L 3956 4666 
L 4897 4666 
L 4897 0 
L 4281 0 
L 4281 4097 
L 3078 897 
L 2444 897 
L 1241 4097 
L 1241 0 
L 628 0 
L 628 4666 
z
" transform="scale(0.015625)"/>
       </defs>
       <use xlink:href="#DejaVuSans-41c"/>
       <use xlink:href="#DejaVuSans-43e" transform="translate(86.279297 0)"/>
       <use xlink:href="#DejaVuSans-43b" transform="translate(147.460938 0)"/>
       <use xlink:href="#DejaVuSans-447" transform="translate(211.376953 0)"/>
       <use xlink:href="#DejaVuSans-430" transform="translate(270.458984 0)"/>
       <use xlink:href="#DejaVuSans-43d" transform="translate(331.738281 0)"/>
       <use xlink:href="#DejaVuSans-43e" transform="translate(397.119141 0)"/>
       <use xlink:href="#DejaVuSans-432" transform="translate(458.300781 0)"/>
       <use xlink:href="#DejaVuSans-43a" transform="translate(517.236328 0)"/>
       <use xlink:href="#DejaVuSans-430" transform="translate(577.636719 0)"/>
      </g>
     </g>
    </g>
    <g id="ytick_3">
     <g id="line2d_21"/>
     <g id="text_15">
      <!-- Бурты -->
      <g transform="translate(89.596406 181.408008) scale(0.095 -0.095)">
       <defs>
        <path id="DejaVuSans-411" d="M 3272 1372 
Q 3272 1806 3026 2017 
Q 2781 2228 2272 2228 
L 1259 2228 
L 1259 519 
L 2272 519 
Q 2781 519 3026 730 
Q 3272 941 3272 1372 
z
M 3609 4666 
L 3609 4147 
L 1259 4147 
L 1259 2747 
L 2303 2747 
Q 3088 2747 3513 2406 
Q 3938 2066 3938 1372 
Q 3938 681 3527 340 
Q 3116 0 2303 0 
L 628 0 
L 628 4666 
L 3609 4666 
z
" transform="scale(0.015625)"/>
        <path id="DejaVuSans-44b" d="M 3907 3500 
L 4482 3500 
L 4482 0 
L 3907 0 
L 3907 3500 
z
M 4195 3584 
L 4195 3584 
z
M 2781 1038 
Q 2781 1319 2576 1466 
Q 2372 1613 1978 1613 
L 1159 1613 
L 1159 459 
L 1978 459 
Q 2372 459 2576 607 
Q 2781 756 2781 1038 
z
M 581 3500 
L 1159 3500 
L 1159 2072 
L 2003 2072 
Q 2672 2072 3033 1817 
Q 3394 1563 3394 1038 
Q 3394 513 3033 256 
Q 2672 0 2003 0 
L 581 0 
L 581 3500 
z
" transform="scale(0.015625)"/>
       </defs>
       <use xlink:href="#DejaVuSans-411"/>
       <use xlink:href="#DejaVuSans-443" transform="translate(68.603516 0)"/>
       <use xlink:href="#DejaVuSans-440" transform="translate(127.783203 0)"/>
       <use xlink:href="#DejaVuSans-442" transform="translate(191.259766 0)"/>
       <use xlink:href="#DejaVuSans-44b" transform="translate(249.511719 0)"/>
      </g>
     </g>
    </g>
    <g id="ytick_4">
     <g id="line2d_22"/>
     <g id="text_16">
      <!-- Пичуга-Южный -->
      <g transform="translate(43.309141 223.119738) scale(0.095 -0.095)">
       <defs>
        <path id="DejaVuSans-41f" d="M 4184 4666 
L 4184 0 
L 3553 0 
L 3553 4134 
L 1259 4134 
L 1259 0 
L 628 0 
L 628 4666 
L 4184 4666 
z
" transform="scale(0.015625)"/>
        <path id="DejaVuSans-2d" d="M 313 2009 
L 1997 2009 
L 1997 1497 
L 313 1497 
L 313 2009 
z
" transform="scale(0.015625)"/>
        <path id="DejaVuSans-42e" d="M 4394 4238 
Q 3706 4238 3300 3725 
Q 2897 3213 2897 2328 
Q 2897 1447 3300 934 
Q 3706 422 4394 422 
Q 5081 422 5481 934 
Q 5884 1447 5884 2328 
Q 5884 3213 5481 3725 
Q 5081 4238 4394 4238 
z
M 2241 2597 
Q 2284 3472 2847 4113 
Q 3409 4750 4394 4750 
Q 5375 4750 5963 4094 
Q 6550 3434 6550 2328 
Q 6550 1225 5963 569 
Q 5375 -91 4394 -91 
Q 3409 -91 2847 550 
Q 2284 1191 2241 2066 
L 1291 2066 
L 1291 0 
L 659 0 
L 659 4666 
L 1291 4666 
L 1291 2597 
L 2241 2597 
z
" transform="scale(0.015625)"/>
       </defs>
       <use xlink:href="#DejaVuSans-41f"/>
       <use xlink:href="#DejaVuSans-438" transform="translate(75.195312 0)"/>
       <use xlink:href="#DejaVuSans-447" transform="translate(140.185547 0)"/>
       <use xlink:href="#DejaVuSans-443" transform="translate(199.267578 0)"/>
       <use xlink:href="#DejaVuSans-433" transform="translate(258.447266 0)"/>
       <use xlink:href="#DejaVuSans-430" transform="translate(310.986328 0)"/>
       <use xlink:href="#DejaVuSans-2d" transform="translate(372.265625 0)"/>
       <use xlink:href="#DejaVuSans-42e" transform="translate(408.349609 0)"/>
       <use xlink:href="#DejaVuSans-436" transform="translate(516.308594 0)"/>
       <use xlink:href="#DejaVuSans-43d" transform="translate(606.396484 0)"/>
       <use xlink:href="#DejaVuSans-44b" transform="translate(671.777344 0)"/>
       <use xlink:href="#DejaVuSans-439" transform="translate(750.732422 0)"/>
      </g>
     </g>
    </g>
    <g id="ytick_5">
     <g id="line2d_23"/>
     <g id="text_17">
      <!-- Пролейский -->
      <g transform="translate(60.413594 264.831469) scale(0.095 -0.095)">
       <use xlink:href="#DejaVuSans-41f"/>
       <use xlink:href="#DejaVuSans-440" transform="translate(75.195312 0)"/>
       <use xlink:href="#DejaVuSans-43e" transform="translate(138.671875 0)"/>
       <use xlink:href="#DejaVuSans-43b" transform="translate(199.853516 0)"/>
       <use xlink:href="#DejaVuSans-435" transform="translate(263.769531 0)"/>
       <use xlink:href="#DejaVuSans-439" transform="translate(325.292969 0)"/>
       <use xlink:href="#DejaVuSans-441" transform="translate(390.283203 0)"/>
       <use xlink:href="#DejaVuSans-43a" transform="translate(445.263672 0)"/>
       <use xlink:href="#DejaVuSans-438" transform="translate(505.664062 0)"/>
       <use xlink:href="#DejaVuSans-439" transform="translate(570.654297 0)"/>
      </g>
     </g>
    </g>
    <g id="ytick_6">
     <g id="line2d_24"/>
     <g id="text_18">
      <!-- Нижний Ураков -->
      <g transform="translate(42.556562 306.543199) scale(0.095 -0.095)">
       <defs>
        <path id="DejaVuSans-423" d="M 2047 566 
Q 1981 409 1881 291 
Q 1634 0 850 0 
L 609 0 
L 609 531 
L 806 531 
Q 1178 531 1322 616 
Q 1409 669 1466 800 
L 1606 1131 
L 109 4666 
L 788 4666 
L 1947 1928 
L 3113 4666 
L 3791 4666 
L 2047 566 
z
" transform="scale(0.015625)"/>
       </defs>
       <use xlink:href="#DejaVuSans-41d"/>
       <use xlink:href="#DejaVuSans-438" transform="translate(75.195312 0)"/>
       <use xlink:href="#DejaVuSans-436" transform="translate(140.185547 0)"/>
       <use xlink:href="#DejaVuSans-43d" transform="translate(230.273438 0)"/>
       <use xlink:href="#DejaVuSans-438" transform="translate(295.654297 0)"/>
       <use xlink:href="#DejaVuSans-439" transform="translate(360.644531 0)"/>
       <use xlink:href="#DejaVuSans-20" transform="translate(425.634766 0)"/>
       <use xlink:href="#DejaVuSans-423" transform="translate(457.421875 0)"/>
       <use xlink:href="#DejaVuSans-440" transform="translate(518.359375 0)"/>
       <use xlink:href="#DejaVuSans-430" transform="translate(581.835938 0)"/>
       <use xlink:href="#DejaVuSans-43a" transform="translate(643.115234 0)"/>
       <use xlink:href="#DejaVuSans-43e" transform="translate(703.515625 0)"/>
       <use xlink:href="#DejaVuSans-432" transform="translate(764.697266 0)"/>
      </g>
     </g>
    </g>
    <g id="ytick_7">
     <g id="line2d_25"/>
     <g id="text_19">
      <!-- Бережновка -->
      <g transform="translate(58.820859 348.25493) scale(0.095 -0.095)">
       <use xlink:href="#DejaVuSans-411"/>
       <use xlink:href="#DejaVuSans-435" transform="translate(68.603516 0)"/>
       <use xlink:href="#DejaVuSans-440" transform="translate(130.126953 0)"/>
       <use xlink:href="#DejaVuSans-435" transform="translate(193.603516 0)"/>
       <use xlink:href="#DejaVuSans-436" transform="translate(255.126953 0)"/>
       <use xlink:href="#DejaVuSans-43d" transform="translate(345.214844 0)"/>
       <use xlink:href="#DejaVuSans-43e" transform="translate(410.595703 0)"/>
       <use xlink:href="#DejaVuSans-432" transform="translate(471.777344 0)"/>
       <use xlink:href="#DejaVuSans-43a" transform="translate(530.712891 0)"/>
       <use xlink:href="#DejaVuSans-430" transform="translate(591.113281 0)"/>
      </g>
     </g>
    </g>
    <g id="ytick_8">
     <g id="line2d_26"/>
     <g id="text_20">
      <!-- Нижний Балыклей -->
      <g transform="translate(27.605937 389.96666) scale(0.095 -0.095)">
       <use xlink:href="#DejaVuSans-41d"/>
       <use xlink:href="#DejaVuSans-438" transform="translate(75.195312 0)"/>
       <use xlink:href="#DejaVuSans-436" transform="translate(140.185547 0)"/>
       <use xlink:href="#DejaVuSans-43d" transform="translate(230.273438 0)"/>
       <use xlink:href="#DejaVuSans-438" transform="translate(295.654297 0)"/>
       <use xlink:href="#DejaVuSans-439" transform="translate(360.644531 0)"/>
       <use xlink:href="#DejaVuSans-20" transform="translate(425.634766 0)"/>
       <use xlink:href="#DejaVuSans-411" transform="translate(457.421875 0)"/>
       <use xlink:href="#DejaVuSans-430" transform="translate(526.025391 0)"/>
       <use xlink:href="#DejaVuSans-43b" transform="translate(587.304688 0)"/>
       <use xlink:href="#DejaVuSans-44b" transform="translate(651.220703 0)"/>
       <use xlink:href="#DejaVuSans-43a" transform="translate(730.175781 0)"/>
       <use xlink:href="#DejaVuSans-43b" transform="translate(790.576172 0)"/>
       <use xlink:href="#DejaVuSans-435" transform="translate(854.492188 0)"/>
       <use xlink:href="#DejaVuSans-439" transform="translate(916.015625 0)"/>
      </g>
     </g>
    </g>
    <g id="ytick_9">
     <g id="line2d_27"/>
     <g id="text_21">
      <!-- Ураков Бугор -->
      <g transform="translate(54.014453 431.678391) scale(0.095 -0.095)">
       <use xlink:href="#DejaVuSans-423"/>
       <use xlink:href="#DejaVuSans-440" transform="translate(60.9375 0)"/>
       <use xlink:href="#DejaVuSans-430" transform="translate(124.414062 0)"/>
       <use xlink:href="#DejaVuSans-43a" transform="translate(185.693359 0)"/>
       <use xlink:href="#DejaVuSans-43e" transform="translate(246.09375 0)"/>
       <use xlink:href="#DejaVuSans-432" transform="translate(307.275391 0)"/>
       <use xlink:href="#DejaVuSans-20" transform="translate(366.210938 0)"/>
       <use xlink:href="#DejaVuSans-411" transform="translate(397.998047 0)"/>
       <use xlink:href="#DejaVuSans-443" transform="translate(466.601562 0)"/>
       <use xlink:href="#DejaVuSans-433" transform="translate(525.78125 0)"/>
       <use xlink:href="#DejaVuSans-43e" transform="translate(578.320312 0)"/>
       <use xlink:href="#DejaVuSans-440" transform="translate(639.501953 0)"/>
      </g>
     </g>
    </g>
    <g id="text_22">
     <!-- Участок -->
     <g transform="translate(21.318281 284.109086) rotate(-90) scale(0.11 -0.11)">
      <use xlink:href="#DejaVuSans-423"/>
      <use xlink:href="#DejaVuSans-447" transform="translate(60.9375 0)"/>
      <use xlink:href="#DejaVuSans-430" transform="translate(120.019531 0)"/>
      <use xlink:href="#DejaVuSans-441" transform="translate(181.298828 0)"/>
      <use xlink:href="#DejaVuSans-442" transform="translate(236.279297 0)"/>
      <use xlink:href="#DejaVuSans-43e" transform="translate(294.53125 0)"/>
      <use xlink:href="#DejaVuSans-43a" transform="translate(355.712891 0)"/>
     </g>
    </g>
   </g>
   <g id="LineCollection_1">
    <path d="M 756.563235 94.375289 
L 811.680995 94.375289 
" clip-path="url(#p7234de84cb)" style="fill: none; stroke: #8fa7c4; stroke-opacity: 0.95; stroke-width: 2.4"/>
    <path d="M 626.476737 136.087019 
L 703.237517 136.087019 
" clip-path="url(#p7234de84cb)" style="fill: none; stroke: #8fa7c4; stroke-opacity: 0.95; stroke-width: 2.4"/>
    <path d="M 651.045955 177.79875 
L 642.785243 177.79875 
" clip-path="url(#p7234de84cb)" style="fill: none; stroke: #8fa7c4; stroke-opacity: 0.95; stroke-width: 2.4"/>
    <path d="M 655.039497 219.51048 
L 597.397363 219.51048 
" clip-path="url(#p7234de84cb)" style="fill: none; stroke: #8fa7c4; stroke-opacity: 0.95; stroke-width: 2.4"/>
    <path d="M 643.874956 261.222211 
L 582.11523 261.222211 
" clip-path="url(#p7234de84cb)" style="fill: none; stroke: #8fa7c4; stroke-opacity: 0.95; stroke-width: 2.4"/>
    <path d="M 530.540382 302.933942 
L 530.756412 302.933942 
" clip-path="url(#p7234de84cb)" style="fill: none; stroke: #8fa7c4; stroke-opacity: 0.95; stroke-width: 2.4"/>
    <path d="M 646.27287 344.645672 
L 520.113835 344.645672 
" clip-path="url(#p7234de84cb)" style="fill: none; stroke: #8fa7c4; stroke-opacity: 0.95; stroke-width: 2.4"/>
    <path d="M 662.820403 386.357403 
L 503.687368 386.357403 
" clip-path="url(#p7234de84cb)" style="fill: none; stroke: #8fa7c4; stroke-opacity: 0.95; stroke-width: 2.4"/>
    <path d="M 538.031708 428.069133 
L 445.570706 428.069133 
" clip-path="url(#p7234de84cb)" style="fill: none; stroke: #8fa7c4; stroke-opacity: 0.95; stroke-width: 2.4"/>
   </g>
   <g id="patch_3">
    <path d="M 124.302422 444.753825 
L 887.974103 444.753825 
" style="fill: none; stroke: #6f7680; stroke-width: 0.8; stroke-linejoin: miter; stroke-linecap: square"/>
   </g>
   <g id="PathCollection_1">
    <defs>
     <path id="m7509155343" d="M 0 4 
C 1.060812 4 2.078319 3.578535 2.828427 2.828427 
C 3.578535 2.078319 4 1.060812 4 0 
C 4 -1.060812 3.578535 -2.078319 2.828427 -2.828427 
C 2.078319 -3.578535 1.060812 -4 0 -4 
C -1.060812 -4 -2.078319 -3.578535 -2.828427 -2.828427 
C -3.578535 -2.078319 -4 -1.060812 -4 0 
C -4 1.060812 -3.578535 2.078319 -2.828427 2.828427 
C -2.078319 3.578535 -1.060812 4 0 4 
z
" style="stroke: #456d9c"/>
    </defs>
    <g clip-path="url(#p7234de84cb)">
     <use xlink:href="#m7509155343" x="811.680995" y="94.375289" style="fill: #456d9c; stroke: #456d9c"/>
     <use xlink:href="#m7509155343" x="703.237517" y="136.087019" style="fill: #456d9c; stroke: #456d9c"/>
     <use xlink:href="#m7509155343" x="642.785243" y="177.79875" style="fill: #456d9c; stroke: #456d9c"/>
     <use xlink:href="#m7509155343" x="597.397363" y="219.51048" style="fill: #456d9c; stroke: #456d9c"/>
     <use xlink:href="#m7509155343" x="582.11523" y="261.222211" style="fill: #456d9c; stroke: #456d9c"/>
     <use xlink:href="#m7509155343" x="530.756412" y="302.933942" style="fill: #456d9c; stroke: #456d9c"/>
     <use xlink:href="#m7509155343" x="520.113835" y="344.645672" style="fill: #456d9c; stroke: #456d9c"/>
     <use xlink:href="#m7509155343" x="503.687368" y="386.357403" style="fill: #456d9c; stroke: #456d9c"/>
     <use xlink:href="#m7509155343" x="445.570706" y="428.069133" style="fill: #456d9c; stroke: #456d9c"/>
    </g>
   </g>
   <g id="PathCollection_2">
    <defs>
     <path id="m67d930247f" d="M 0 4 
C 1.060812 4 2.078319 3.578535 2.828427 2.828427 
C 3.578535 2.078319 4 1.060812 4 0 
C 4 -1.060812 3.578535 -2.078319 2.828427 -2.828427 
C 2.078319 -3.578535 1.060812 -4 0 -4 
C -1.060812 -4 -2.078319 -3.578535 -2.828427 -2.828427 
C -3.578535 -2.078319 -4 -1.060812 -4 0 
C -4 1.060812 -3.578535 2.078319 -2.828427 2.828427 
C -2.078319 3.578535 -1.060812 4 0 4 
z
" style="stroke: #b85c5c"/>
    </defs>
    <g clip-path="url(#p7234de84cb)">
     <use xlink:href="#m67d930247f" x="756.563235" y="94.375289" style="fill: #b85c5c; stroke: #b85c5c"/>
     <use xlink:href="#m67d930247f" x="626.476737" y="136.087019" style="fill: #b85c5c; stroke: #b85c5c"/>
     <use xlink:href="#m67d930247f" x="651.045955" y="177.79875" style="fill: #b85c5c; stroke: #b85c5c"/>
     <use xlink:href="#m67d930247f" x="655.039497" y="219.51048" style="fill: #b85c5c; stroke: #b85c5c"/>
     <use xlink:href="#m67d930247f" x="643.874956" y="261.222211" style="fill: #b85c5c; stroke: #b85c5c"/>
     <use xlink:href="#m67d930247f" x="530.540382" y="302.933942" style="fill: #b85c5c; stroke: #b85c5c"/>
     <use xlink:href="#m67d930247f" x="646.27287" y="344.645672" style="fill: #b85c5c; stroke: #b85c5c"/>
     <use xlink:href="#m67d930247f" x="662.820403" y="386.357403" style="fill: #b85c5c; stroke: #b85c5c"/>
     <use xlink:href="#m67d930247f" x="538.031708" y="428.069133" style="fill: #b85c5c; stroke: #b85c5c"/>
    </g>
   </g>
   <g id="text_23">
    <!-- 11-16 -->
    <g style="fill: #59626d" transform="translate(822.614815 96.706961) scale(0.0845 -0.0845)">
     <defs>
      <path id="DejaVuSans-36" d="M 2113 2584 
Q 1688 2584 1439 2293 
Q 1191 2003 1191 1497 
Q 1191 994 1439 701 
Q 1688 409 2113 409 
Q 2538 409 2786 701 
Q 3034 994 3034 1497 
Q 3034 2003 2786 2293 
Q 2538 2584 2113 2584 
z
M 3366 4563 
L 3366 3988 
Q 3128 4100 2886 4159 
Q 2644 4219 2406 4219 
Q 1781 4219 1451 3797 
Q 1122 3375 1075 2522 
Q 1259 2794 1537 2939 
Q 1816 3084 2150 3084 
Q 2853 3084 3261 2657 
Q 3669 2231 3669 1497 
Q 3669 778 3244 343 
Q 2819 -91 2113 -91 
Q 1303 -91 875 529 
Q 447 1150 447 2328 
Q 447 3434 972 4092 
Q 1497 4750 2381 4750 
Q 2619 4750 2861 4703 
Q 3103 4656 3366 4563 
z
" transform="scale(0.015625)"/>
     </defs>
     <use xlink:href="#DejaVuSans-31"/>
     <use xlink:href="#DejaVuSans-31" transform="translate(63.623047 0)"/>
     <use xlink:href="#DejaVuSans-2d" transform="translate(127.246094 0)"/>
     <use xlink:href="#DejaVuSans-31" transform="translate(163.330078 0)"/>
     <use xlink:href="#DejaVuSans-36" transform="translate(226.953125 0)"/>
    </g>
   </g>
   <g id="text_24">
    <!-- 21-23 -->
    <g style="fill: #59626d" transform="translate(822.614815 138.418691) scale(0.0845 -0.0845)">
     <defs>
      <path id="DejaVuSans-33" d="M 2597 2516 
Q 3050 2419 3304 2112 
Q 3559 1806 3559 1356 
Q 3559 666 3084 287 
Q 2609 -91 1734 -91 
Q 1441 -91 1130 -33 
Q 819 25 488 141 
L 488 750 
Q 750 597 1062 519 
Q 1375 441 1716 441 
Q 2309 441 2620 675 
Q 2931 909 2931 1356 
Q 2931 1769 2642 2001 
Q 2353 2234 1838 2234 
L 1294 2234 
L 1294 2753 
L 1863 2753 
Q 2328 2753 2575 2939 
Q 2822 3125 2822 3475 
Q 2822 3834 2567 4026 
Q 2313 4219 1838 4219 
Q 1578 4219 1281 4162 
Q 984 4106 628 3988 
L 628 4550 
Q 988 4650 1302 4700 
Q 1616 4750 1894 4750 
Q 2613 4750 3031 4423 
Q 3450 4097 3450 3541 
Q 3450 3153 3228 2886 
Q 3006 2619 2597 2516 
z
" transform="scale(0.015625)"/>
     </defs>
     <use xlink:href="#DejaVuSans-32"/>
     <use xlink:href="#DejaVuSans-31" transform="translate(63.623047 0)"/>
     <use xlink:href="#DejaVuSans-2d" transform="translate(127.246094 0)"/>
     <use xlink:href="#DejaVuSans-32" transform="translate(163.330078 0)"/>
     <use xlink:href="#DejaVuSans-33" transform="translate(226.953125 0)"/>
    </g>
   </g>
   <g id="text_25">
    <!-- 22-24 -->
    <g style="fill: #59626d" transform="translate(822.614815 180.130422) scale(0.0845 -0.0845)">
     <defs>
      <path id="DejaVuSans-34" d="M 2419 4116 
L 825 1625 
L 2419 1625 
L 2419 4116 
z
M 2253 4666 
L 3047 4666 
L 3047 1625 
L 3713 1625 
L 3713 1100 
L 3047 1100 
L 3047 0 
L 2419 0 
L 2419 1100 
L 313 1100 
L 313 1709 
L 2253 4666 
z
" transform="scale(0.015625)"/>
     </defs>
     <use xlink:href="#DejaVuSans-32"/>
     <use xlink:href="#DejaVuSans-32" transform="translate(63.623047 0)"/>
     <use xlink:href="#DejaVuSans-2d" transform="translate(127.246094 0)"/>
     <use xlink:href="#DejaVuSans-32" transform="translate(163.330078 0)"/>
     <use xlink:href="#DejaVuSans-34" transform="translate(226.953125 0)"/>
    </g>
   </g>
   <g id="text_26">
    <!-- 4-8; осторожно -->
    <g style="fill: #59626d" transform="translate(822.614815 221.842152) scale(0.0845 -0.0845)">
     <defs>
      <path id="DejaVuSans-38" d="M 2034 2216 
Q 1584 2216 1326 1975 
Q 1069 1734 1069 1313 
Q 1069 891 1326 650 
Q 1584 409 2034 409 
Q 2484 409 2743 651 
Q 3003 894 3003 1313 
Q 3003 1734 2745 1975 
Q 2488 2216 2034 2216 
z
M 1403 2484 
Q 997 2584 770 2862 
Q 544 3141 544 3541 
Q 544 4100 942 4425 
Q 1341 4750 2034 4750 
Q 2731 4750 3128 4425 
Q 3525 4100 3525 3541 
Q 3525 3141 3298 2862 
Q 3072 2584 2669 2484 
Q 3125 2378 3379 2068 
Q 3634 1759 3634 1313 
Q 3634 634 3220 271 
Q 2806 -91 2034 -91 
Q 1263 -91 848 271 
Q 434 634 434 1313 
Q 434 1759 690 2068 
Q 947 2378 1403 2484 
z
M 1172 3481 
Q 1172 3119 1398 2916 
Q 1625 2713 2034 2713 
Q 2441 2713 2670 2916 
Q 2900 3119 2900 3481 
Q 2900 3844 2670 4047 
Q 2441 4250 2034 4250 
Q 1625 4250 1398 4047 
Q 1172 3844 1172 3481 
z
" transform="scale(0.015625)"/>
     </defs>
     <use xlink:href="#DejaVuSans-34"/>
     <use xlink:href="#DejaVuSans-2d" transform="translate(63.623047 0)"/>
     <use xlink:href="#DejaVuSans-38" transform="translate(99.707031 0)"/>
     <use xlink:href="#DejaVuSans-3b" transform="translate(163.330078 0)"/>
     <use xlink:href="#DejaVuSans-20" transform="translate(197.021484 0)"/>
     <use xlink:href="#DejaVuSans-43e" transform="translate(228.808594 0)"/>
     <use xlink:href="#DejaVuSans-441" transform="translate(289.990234 0)"/>
     <use xlink:href="#DejaVuSans-442" transform="translate(344.970703 0)"/>
     <use xlink:href="#DejaVuSans-43e" transform="translate(403.222656 0)"/>
     <use xlink:href="#DejaVuSans-440" transform="translate(464.404297 0)"/>
     <use xlink:href="#DejaVuSans-43e" transform="translate(527.880859 0)"/>
     <use xlink:href="#DejaVuSans-436" transform="translate(589.0625 0)"/>
     <use xlink:href="#DejaVuSans-43d" transform="translate(679.150391 0)"/>
     <use xlink:href="#DejaVuSans-43e" transform="translate(744.53125 0)"/>
    </g>
   </g>
   <g id="text_27">
    <!-- 13-22 -->
    <g style="fill: #59626d" transform="translate(822.614815 263.553883) scale(0.0845 -0.0845)">
     <use xlink:href="#DejaVuSans-31"/>
     <use xlink:href="#DejaVuSans-33" transform="translate(63.623047 0)"/>
     <use xlink:href="#DejaVuSans-2d" transform="translate(127.246094 0)"/>
     <use xlink:href="#DejaVuSans-32" transform="translate(163.330078 0)"/>
     <use xlink:href="#DejaVuSans-32" transform="translate(226.953125 0)"/>
    </g>
   </g>
   <g id="text_28">
    <!-- 13-18 -->
    <g style="fill: #59626d" transform="translate(822.614815 305.265613) scale(0.0845 -0.0845)">
     <use xlink:href="#DejaVuSans-31"/>
     <use xlink:href="#DejaVuSans-33" transform="translate(63.623047 0)"/>
     <use xlink:href="#DejaVuSans-2d" transform="translate(127.246094 0)"/>
     <use xlink:href="#DejaVuSans-31" transform="translate(163.330078 0)"/>
     <use xlink:href="#DejaVuSans-38" transform="translate(226.953125 0)"/>
    </g>
   </g>
   <g id="text_29">
    <!-- 21-23 -->
    <g style="fill: #59626d" transform="translate(822.614815 346.977344) scale(0.0845 -0.0845)">
     <use xlink:href="#DejaVuSans-32"/>
     <use xlink:href="#DejaVuSans-31" transform="translate(63.623047 0)"/>
     <use xlink:href="#DejaVuSans-2d" transform="translate(127.246094 0)"/>
     <use xlink:href="#DejaVuSans-32" transform="translate(163.330078 0)"/>
     <use xlink:href="#DejaVuSans-33" transform="translate(226.953125 0)"/>
    </g>
   </g>
   <g id="text_30">
    <!-- 17-21 -->
    <g style="fill: #59626d" transform="translate(822.614815 388.689075) scale(0.0845 -0.0845)">
     <use xlink:href="#DejaVuSans-31"/>
     <use xlink:href="#DejaVuSans-37" transform="translate(63.623047 0)"/>
     <use xlink:href="#DejaVuSans-2d" transform="translate(127.246094 0)"/>
     <use xlink:href="#DejaVuSans-32" transform="translate(163.330078 0)"/>
     <use xlink:href="#DejaVuSans-31" transform="translate(226.953125 0)"/>
    </g>
   </g>
   <g id="text_31">
    <!-- 9-19; осторожно; дубли -->
    <g style="fill: #59626d" transform="translate(822.614815 430.472762) scale(0.0845 -0.0845)">
     <defs>
      <path id="DejaVuSans-39" d="M 703 97 
L 703 672 
Q 941 559 1184 500 
Q 1428 441 1663 441 
Q 2288 441 2617 861 
Q 2947 1281 2994 2138 
Q 2813 1869 2534 1725 
Q 2256 1581 1919 1581 
Q 1219 1581 811 2004 
Q 403 2428 403 3163 
Q 403 3881 828 4315 
Q 1253 4750 1959 4750 
Q 2769 4750 3195 4129 
Q 3622 3509 3622 2328 
Q 3622 1225 3098 567 
Q 2575 -91 1691 -91 
Q 1453 -91 1209 -44 
Q 966 3 703 97 
z
M 1959 2075 
Q 2384 2075 2632 2365 
Q 2881 2656 2881 3163 
Q 2881 3666 2632 3958 
Q 2384 4250 1959 4250 
Q 1534 4250 1286 3958 
Q 1038 3666 1038 3163 
Q 1038 2656 1286 2365 
Q 1534 2075 1959 2075 
z
" transform="scale(0.015625)"/>
     </defs>
     <use xlink:href="#DejaVuSans-39"/>
     <use xlink:href="#DejaVuSans-2d" transform="translate(63.623047 0)"/>
     <use xlink:href="#DejaVuSans-31" transform="translate(99.707031 0)"/>
     <use xlink:href="#DejaVuSans-39" transform="translate(163.330078 0)"/>
     <use xlink:href="#DejaVuSans-3b" transform="translate(226.953125 0)"/>
     <use xlink:href="#DejaVuSans-20" transform="translate(260.644531 0)"/>
     <use xlink:href="#DejaVuSans-43e" transform="translate(292.431641 0)"/>
     <use xlink:href="#DejaVuSans-441" transform="translate(353.613281 0)"/>
     <use xlink:href="#DejaVuSans-442" transform="translate(408.59375 0)"/>
     <use xlink:href="#DejaVuSans-43e" transform="translate(466.845703 0)"/>
     <use xlink:href="#DejaVuSans-440" transform="translate(528.027344 0)"/>
     <use xlink:href="#DejaVuSans-43e" transform="translate(591.503906 0)"/>
     <use xlink:href="#DejaVuSans-436" transform="translate(652.685547 0)"/>
     <use xlink:href="#DejaVuSans-43d" transform="translate(742.773438 0)"/>
     <use xlink:href="#DejaVuSans-43e" transform="translate(808.154297 0)"/>
     <use xlink:href="#DejaVuSans-3b" transform="translate(869.335938 0)"/>
     <use xlink:href="#DejaVuSans-20" transform="translate(903.027344 0)"/>
     <use xlink:href="#DejaVuSans-434" transform="translate(934.814453 0)"/>
     <use xlink:href="#DejaVuSans-443" transform="translate(1003.955078 0)"/>
     <use xlink:href="#DejaVuSans-431" transform="translate(1063.134766 0)"/>
     <use xlink:href="#DejaVuSans-43b" transform="translate(1124.804688 0)"/>
     <use xlink:href="#DejaVuSans-438" transform="translate(1188.720703 0)"/>
    </g>
   </g>
   <g id="legend_1">
    <g id="patch_4">
     <path d="M 130.952422 113.179034 
L 252.279297 113.179034 
Q 254.179297 113.179034 254.179297 111.279034 
L 254.179297 84.340597 
Q 254.179297 82.440597 252.279297 82.440597 
L 130.952422 82.440597 
Q 129.052422 82.440597 129.052422 84.340597 
L 129.052422 111.279034 
Q 129.052422 113.179034 130.952422 113.179034 
z
" style="fill: #ffffff; opacity: 0.8; stroke: #d7dde5; stroke-linejoin: miter"/>
    </g>
    <g id="PathCollection_3">
     <g>
      <use xlink:href="#m7509155343" x="142.352422" y="90.965362" style="fill: #456d9c; stroke: #456d9c"/>
     </g>
    </g>
    <g id="text_32">
     <!-- Средний Пирсон -->
     <g transform="translate(159.452422 93.459112) scale(0.095 -0.095)">
      <use xlink:href="#DejaVuSans-421"/>
      <use xlink:href="#DejaVuSans-440" transform="translate(69.824219 0)"/>
      <use xlink:href="#DejaVuSans-435" transform="translate(133.300781 0)"/>
      <use xlink:href="#DejaVuSans-434" transform="translate(194.824219 0)"/>
      <use xlink:href="#DejaVuSans-43d" transform="translate(263.964844 0)"/>
      <use xlink:href="#DejaVuSans-438" transform="translate(329.345703 0)"/>
      <use xlink:href="#DejaVuSans-439" transform="translate(394.335938 0)"/>
      <use xlink:href="#DejaVuSans-20" transform="translate(459.326172 0)"/>
      <use xlink:href="#DejaVuSans-41f" transform="translate(491.113281 0)"/>
      <use xlink:href="#DejaVuSans-438" transform="translate(566.308594 0)"/>
      <use xlink:href="#DejaVuSans-440" transform="translate(631.298828 0)"/>
      <use xlink:href="#DejaVuSans-441" transform="translate(694.775391 0)"/>
      <use xlink:href="#DejaVuSans-43e" transform="translate(749.755859 0)"/>
      <use xlink:href="#DejaVuSans-43d" transform="translate(810.9375 0)"/>
     </g>
    </g>
    <g id="PathCollection_4">
     <g>
      <use xlink:href="#m67d930247f" x="142.352422" y="104.909581" style="fill: #b85c5c; stroke: #b85c5c"/>
     </g>
    </g>
    <g id="text_33">
     <!-- Средний Спирмен -->
     <g transform="translate(159.452422 107.403331) scale(0.095 -0.095)">
      <use xlink:href="#DejaVuSans-421"/>
      <use xlink:href="#DejaVuSans-440" transform="translate(69.824219 0)"/>
      <use xlink:href="#DejaVuSans-435" transform="translate(133.300781 0)"/>
      <use xlink:href="#DejaVuSans-434" transform="translate(194.824219 0)"/>
      <use xlink:href="#DejaVuSans-43d" transform="translate(263.964844 0)"/>
      <use xlink:href="#DejaVuSans-438" transform="translate(329.345703 0)"/>
      <use xlink:href="#DejaVuSans-439" transform="translate(394.335938 0)"/>
      <use xlink:href="#DejaVuSans-20" transform="translate(459.326172 0)"/>
      <use xlink:href="#DejaVuSans-421" transform="translate(491.113281 0)"/>
      <use xlink:href="#DejaVuSans-43f" transform="translate(560.9375 0)"/>
      <use xlink:href="#DejaVuSans-438" transform="translate(626.318359 0)"/>
      <use xlink:href="#DejaVuSans-440" transform="translate(691.308594 0)"/>
      <use xlink:href="#DejaVuSans-43c" transform="translate(754.785156 0)"/>
      <use xlink:href="#DejaVuSans-435" transform="translate(830.224609 0)"/>
      <use xlink:href="#DejaVuSans-43d" transform="translate(891.748047 0)"/>
     </g>
    </g>
   </g>
  </g>
  <g id="axes_3">
   <g id="text_34">
    <!-- Это основной рисунок задачи 2: он показывает, где профили внутри участка ведут себя более согласованно, а где интерпретация должна быть осторожной. -->
    <g style="fill: #46505b" transform="translate(124.302422 504.724303) scale(0.0905 -0.0905)">
     <defs>
      <path id="DejaVuSans-42d" d="M 347 1019 
Q 1006 428 1806 428 
Q 2631 428 3003 872 
Q 3375 1316 3444 2063 
L 950 2063 
L 950 2594 
L 3444 2594 
Q 3375 3341 3003 3786 
Q 2631 4231 1806 4231 
Q 1006 4231 347 3641 
L 347 4306 
Q 997 4750 1844 4750 
Q 2891 4750 3500 4101 
Q 4109 3453 4109 2331 
Q 4109 1206 3500 557 
Q 2891 -91 1844 -91 
Q 1009 -91 347 359 
L 347 1019 
z
" transform="scale(0.015625)"/>
      <path id="DejaVuSans-3a" d="M 750 794 
L 1409 794 
L 1409 0 
L 750 0 
L 750 794 
z
M 750 3309 
L 1409 3309 
L 1409 2516 
L 750 2516 
L 750 3309 
z
" transform="scale(0.015625)"/>
     </defs>
     <use xlink:href="#DejaVuSans-42d"/>
     <use xlink:href="#DejaVuSans-442" transform="translate(69.824219 0)"/>
     <use xlink:href="#DejaVuSans-43e" transform="translate(128.076172 0)"/>
     <use xlink:href="#DejaVuSans-20" transform="translate(189.257812 0)"/>
     <use xlink:href="#DejaVuSans-43e" transform="translate(221.044922 0)"/>
     <use xlink:href="#DejaVuSans-441" transform="translate(282.226562 0)"/>
     <use xlink:href="#DejaVuSans-43d" transform="translate(337.207031 0)"/>
     <use xlink:href="#DejaVuSans-43e" transform="translate(402.587891 0)"/>
     <use xlink:href="#DejaVuSans-432" transform="translate(463.769531 0)"/>
     <use xlink:href="#DejaVuSans-43d" transform="translate(522.705078 0)"/>
     <use xlink:href="#DejaVuSans-43e" transform="translate(588.085938 0)"/>
     <use xlink:href="#DejaVuSans-439" transform="translate(649.267578 0)"/>
     <use xlink:href="#DejaVuSans-20" transform="translate(714.257812 0)"/>
     <use xlink:href="#DejaVuSans-440" transform="translate(746.044922 0)"/>
     <use xlink:href="#DejaVuSans-438" transform="translate(809.521484 0)"/>
     <use xlink:href="#DejaVuSans-441" transform="translate(874.511719 0)"/>
     <use xlink:href="#DejaVuSans-443" transform="translate(929.492188 0)"/>
     <use xlink:href="#DejaVuSans-43d" transform="translate(988.671875 0)"/>
     <use xlink:href="#DejaVuSans-43e" transform="translate(1054.052734 0)"/>
     <use xlink:href="#DejaVuSans-43a" transform="translate(1115.234375 0)"/>
     <use xlink:href="#DejaVuSans-20" transform="translate(1175.634766 0)"/>
     <use xlink:href="#DejaVuSans-437" transform="translate(1207.421875 0)"/>
     <use xlink:href="#DejaVuSans-430" transform="translate(1260.595703 0)"/>
     <use xlink:href="#DejaVuSans-434" transform="translate(1321.875 0)"/>
     <use xlink:href="#DejaVuSans-430" transform="translate(1391.015625 0)"/>
     <use xlink:href="#DejaVuSans-447" transform="translate(1452.294922 0)"/>
     <use xlink:href="#DejaVuSans-438" transform="translate(1511.376953 0)"/>
     <use xlink:href="#DejaVuSans-20" transform="translate(1576.367188 0)"/>
     <use xlink:href="#DejaVuSans-32" transform="translate(1608.154297 0)"/>
     <use xlink:href="#DejaVuSans-3a" transform="translate(1671.777344 0)"/>
     <use xlink:href="#DejaVuSans-20" transform="translate(1705.46875 0)"/>
     <use xlink:href="#DejaVuSans-43e" transform="translate(1737.255859 0)"/>
     <use xlink:href="#DejaVuSans-43d" transform="translate(1798.4375 0)"/>
     <use xlink:href="#DejaVuSans-20" transform="translate(1863.818359 0)"/>
     <use xlink:href="#DejaVuSans-43f" transform="translate(1895.605469 0)"/>
     <use xlink:href="#DejaVuSans-43e" transform="translate(1960.986328 0)"/>
     <use xlink:href="#DejaVuSans-43a" transform="translate(2022.167969 0)"/>
     <use xlink:href="#DejaVuSans-430" transform="translate(2082.568359 0)"/>
     <use xlink:href="#DejaVuSans-437" transform="translate(2143.847656 0)"/>
     <use xlink:href="#DejaVuSans-44b" transform="translate(2197.021484 0)"/>
     <use xlink:href="#DejaVuSans-432" transform="translate(2275.976562 0)"/>
     <use xlink:href="#DejaVuSans-430" transform="translate(2334.912109 0)"/>
     <use xlink:href="#DejaVuSans-435" transform="translate(2396.191406 0)"/>
     <use xlink:href="#DejaVuSans-442" transform="translate(2457.714844 0)"/>
     <use xlink:href="#DejaVuSans-2c" transform="translate(2515.966797 0)"/>
     <use xlink:href="#DejaVuSans-20" transform="translate(2547.753906 0)"/>
     <use xlink:href="#DejaVuSans-433" transform="translate(2579.541016 0)"/>
     <use xlink:href="#DejaVuSans-434" transform="translate(2632.080078 0)"/>
     <use xlink:href="#DejaVuSans-435" transform="translate(2701.220703 0)"/>
     <use xlink:href="#DejaVuSans-20" transform="translate(2762.744141 0)"/>
     <use xlink:href="#DejaVuSans-43f" transform="translate(2794.53125 0)"/>
     <use xlink:href="#DejaVuSans-440" transform="translate(2859.912109 0)"/>
     <use xlink:href="#DejaVuSans-43e" transform="translate(2923.388672 0)"/>
     <use xlink:href="#DejaVuSans-444" transform="translate(2984.570312 0)"/>
     <use xlink:href="#DejaVuSans-438" transform="translate(3070.068359 0)"/>
     <use xlink:href="#DejaVuSans-43b" transform="translate(3135.058594 0)"/>
     <use xlink:href="#DejaVuSans-438" transform="translate(3198.974609 0)"/>
     <use xlink:href="#DejaVuSans-20" transform="translate(3263.964844 0)"/>
     <use xlink:href="#DejaVuSans-432" transform="translate(3295.751953 0)"/>
     <use xlink:href="#DejaVuSans-43d" transform="translate(3354.6875 0)"/>
     <use xlink:href="#DejaVuSans-443" transform="translate(3420.068359 0)"/>
     <use xlink:href="#DejaVuSans-442" transform="translate(3479.248047 0)"/>
     <use xlink:href="#DejaVuSans-440" transform="translate(3537.5 0)"/>
     <use xlink:href="#DejaVuSans-438" transform="translate(3600.976562 0)"/>
     <use xlink:href="#DejaVuSans-20" transform="translate(3665.966797 0)"/>
     <use xlink:href="#DejaVuSans-443" transform="translate(3697.753906 0)"/>
     <use xlink:href="#DejaVuSans-447" transform="translate(3756.933594 0)"/>
     <use xlink:href="#DejaVuSans-430" transform="translate(3816.015625 0)"/>
     <use xlink:href="#DejaVuSans-441" transform="translate(3877.294922 0)"/>
     <use xlink:href="#DejaVuSans-442" transform="translate(3932.275391 0)"/>
     <use xlink:href="#DejaVuSans-43a" transform="translate(3990.527344 0)"/>
     <use xlink:href="#DejaVuSans-430" transform="translate(4050.927734 0)"/>
     <use xlink:href="#DejaVuSans-20" transform="translate(4112.207031 0)"/>
     <use xlink:href="#DejaVuSans-432" transform="translate(4143.994141 0)"/>
     <use xlink:href="#DejaVuSans-435" transform="translate(4202.929688 0)"/>
     <use xlink:href="#DejaVuSans-434" transform="translate(4264.453125 0)"/>
     <use xlink:href="#DejaVuSans-443" transform="translate(4333.59375 0)"/>
     <use xlink:href="#DejaVuSans-442" transform="translate(4392.773438 0)"/>
     <use xlink:href="#DejaVuSans-20" transform="translate(4451.025391 0)"/>
     <use xlink:href="#DejaVuSans-441" transform="translate(4482.8125 0)"/>
     <use xlink:href="#DejaVuSans-435" transform="translate(4537.792969 0)"/>
     <use xlink:href="#DejaVuSans-431" transform="translate(4599.316406 0)"/>
     <use xlink:href="#DejaVuSans-44f" transform="translate(4660.986328 0)"/>
     <use xlink:href="#DejaVuSans-20" transform="translate(4721.142578 0)"/>
     <use xlink:href="#DejaVuSans-431" transform="translate(4752.929688 0)"/>
     <use xlink:href="#DejaVuSans-43e" transform="translate(4814.599609 0)"/>
     <use xlink:href="#DejaVuSans-43b" transform="translate(4875.78125 0)"/>
     <use xlink:href="#DejaVuSans-435" transform="translate(4939.697266 0)"/>
     <use xlink:href="#DejaVuSans-435" transform="translate(5001.220703 0)"/>
     <use xlink:href="#DejaVuSans-20" transform="translate(5062.744141 0)"/>
     <use xlink:href="#DejaVuSans-441" transform="translate(5094.53125 0)"/>
     <use xlink:href="#DejaVuSans-43e" transform="translate(5149.511719 0)"/>
     <use xlink:href="#DejaVuSans-433" transform="translate(5210.693359 0)"/>
     <use xlink:href="#DejaVuSans-43b" transform="translate(5263.232422 0)"/>
     <use xlink:href="#DejaVuSans-430" transform="translate(5327.148438 0)"/>
     <use xlink:href="#DejaVuSans-441" transform="translate(5388.427734 0)"/>
     <use xlink:href="#DejaVuSans-43e" transform="translate(5443.408203 0)"/>
     <use xlink:href="#DejaVuSans-432" transform="translate(5504.589844 0)"/>
     <use xlink:href="#DejaVuSans-430" transform="translate(5563.525391 0)"/>
     <use xlink:href="#DejaVuSans-43d" transform="translate(5624.804688 0)"/>
     <use xlink:href="#DejaVuSans-43d" transform="translate(5690.185547 0)"/>
     <use xlink:href="#DejaVuSans-43e" transform="translate(5755.566406 0)"/>
     <use xlink:href="#DejaVuSans-2c" transform="translate(5816.748047 0)"/>
     <use xlink:href="#DejaVuSans-20" transform="translate(5848.535156 0)"/>
     <use xlink:href="#DejaVuSans-430" transform="translate(5880.322266 0)"/>
     <use xlink:href="#DejaVuSans-20" transform="translate(5941.601562 0)"/>
     <use xlink:href="#DejaVuSans-433" transform="translate(5973.388672 0)"/>
     <use xlink:href="#DejaVuSans-434" transform="translate(6025.927734 0)"/>
     <use xlink:href="#DejaVuSans-435" transform="translate(6095.068359 0)"/>
     <use xlink:href="#DejaVuSans-20" transform="translate(6156.591797 0)"/>
     <use xlink:href="#DejaVuSans-438" transform="translate(6188.378906 0)"/>
     <use xlink:href="#DejaVuSans-43d" transform="translate(6253.369141 0)"/>
     <use xlink:href="#DejaVuSans-442" transform="translate(6318.75 0)"/>
     <use xlink:href="#DejaVuSans-435" transform="translate(6377.001953 0)"/>
     <use xlink:href="#DejaVuSans-440" transform="translate(6438.525391 0)"/>
     <use xlink:href="#DejaVuSans-43f" transform="translate(6502.001953 0)"/>
     <use xlink:href="#DejaVuSans-440" transform="translate(6567.382812 0)"/>
     <use xlink:href="#DejaVuSans-435" transform="translate(6630.859375 0)"/>
     <use xlink:href="#DejaVuSans-442" transform="translate(6692.382812 0)"/>
     <use xlink:href="#DejaVuSans-430" transform="translate(6750.634766 0)"/>
     <use xlink:href="#DejaVuSans-446" transform="translate(6811.914062 0)"/>
     <use xlink:href="#DejaVuSans-438" transform="translate(6879.980469 0)"/>
     <use xlink:href="#DejaVuSans-44f" transform="translate(6944.970703 0)"/>
     <use xlink:href="#DejaVuSans-20" transform="translate(7005.126953 0)"/>
     <use xlink:href="#DejaVuSans-434" transform="translate(7036.914062 0)"/>
     <use xlink:href="#DejaVuSans-43e" transform="translate(7106.054688 0)"/>
     <use xlink:href="#DejaVuSans-43b" transform="translate(7167.236328 0)"/>
     <use xlink:href="#DejaVuSans-436" transform="translate(7231.152344 0)"/>
     <use xlink:href="#DejaVuSans-43d" transform="translate(7321.240234 0)"/>
     <use xlink:href="#DejaVuSans-430" transform="translate(7386.621094 0)"/>
     <use xlink:href="#DejaVuSans-20" transform="translate(7447.900391 0)"/>
     <use xlink:href="#DejaVuSans-431" transform="translate(7479.6875 0)"/>
     <use xlink:href="#DejaVuSans-44b" transform="translate(7541.357422 0)"/>
     <use xlink:href="#DejaVuSans-442" transform="translate(7620.3125 0)"/>
     <use xlink:href="#DejaVuSans-44c" transform="translate(7678.564453 0)"/>
     <use xlink:href="#DejaVuSans-20" transform="translate(7737.5 0)"/>
     <use xlink:href="#DejaVuSans-43e" transform="translate(7769.287109 0)"/>
     <use xlink:href="#DejaVuSans-441" transform="translate(7830.46875 0)"/>
     <use xlink:href="#DejaVuSans-442" transform="translate(7885.449219 0)"/>
     <use xlink:href="#DejaVuSans-43e" transform="translate(7943.701172 0)"/>
     <use xlink:href="#DejaVuSans-440" transform="translate(8004.882812 0)"/>
     <use xlink:href="#DejaVuSans-43e" transform="translate(8068.359375 0)"/>
     <use xlink:href="#DejaVuSans-436" transform="translate(8129.541016 0)"/>
     <use xlink:href="#DejaVuSans-43d" transform="translate(8219.628906 0)"/>
     <use xlink:href="#DejaVuSans-43e" transform="translate(8285.009766 0)"/>
     <use xlink:href="#DejaVuSans-439" transform="translate(8346.191406 0)"/>
     <use xlink:href="#DejaVuSans-2e" transform="translate(8411.181641 0)"/>
    </g>
   </g>
  </g>
 </g>
 <defs>
  <clipPath id="p7234de84cb">
   <rect x="124.302422" y="77.690597" width="763.671681" height="367.063229"/>
  </clipPath>
 </defs>
</svg>
